<svg enable-background="new 0 0 53 53" viewBox="0 0 53 53" xmlns="http://www.w3.org/2000/svg"><path d="m18.6 41.6-7.9 4.3c-.5.3-.9.6-1.3.9 4.6 3.9 10.6 6.2 17.1 6.2s12.4-2.3 17-6.1c-.4-.4-.9-.7-1.4-.9l-8.5-4.2c-1.1-.5-1.8-1.7-1.8-2.9v-3.3c.2-.3.5-.6.8-1 1.2-1.6 2-3.4 2.6-5.3 1.1-.3 1.9-1.3 1.9-2.5v-3.5c0-.8-.3-1.5-.9-2v-5.3s1.1-8-9.8-8-9.8 8-9.8 8v5.1c-.5.5-.9 1.2-.9 2v3.5c0 .9.5 1.8 1.2 2.2.9 3.9 3.2 6.6 3.2 6.6v3.2c.2 1.3-.5 2.4-1.5 3z" fill="#fff"/><path d="m27 0c-14.7-.2-26.7 11.4-27 26-.1 8.3 3.6 15.8 9.4 20.7.4-.3.8-.6 1.3-.9l7.9-4.3c1-.6 1.7-1.7 1.7-2.8v-3.2s-2.3-2.8-3.2-6.6c-.7-.5-1.2-1.3-1.2-2.2v-3.5c0-.8.3-1.5.9-2v-5.2s-1.1-8 9.8-8 9.8 8 9.8 8v5.1c.5.5.9 1.2.9 2v3.5c0 1.2-.8 2.2-1.9 2.5-.6 1.9-1.5 3.7-2.6 5.3-.3.4-.6.8-.8 1v3.3c0 1.2.7 2.3 1.8 2.9l8.5 4.2c.5.3 1 .6 1.4.9 5.5-4.6 9.2-11.7 9.3-19.7.2-14.7-11.4-26.7-26-27z" fill="#fd0"/></svg>