<svg xmlns="http://www.w3.org/2000/svg" width="12" height="12" viewBox="0 0 12 12">
  <path fill="#274377" d="M597.897891,1392.19624 L597.303314,1392.80627 C597.051557,1393.06458 596.644459,1393.06458 596.39538,1392.80627 L591.188818,1387.46714 C590.937061,1387.20884 590.937061,1386.79116 591.188818,1386.53561 L596.39538,1381.19373 C596.647138,1380.93542 597.054235,1380.93542 597.303314,1381.19373 L597.897891,1381.80376 C598.152327,1382.0648 598.14697,1382.49073 597.887178,1382.74628 L594.659859,1385.90085 L602.357215,1385.90085 C602.713425,1385.90085 603,1386.19487 603,1386.56034 L603,1387.43966 C603,1387.80513 602.713425,1388.09915 602.357215,1388.09915 L594.659859,1388.09915 L597.887178,1391.25372 C598.149648,1391.50927 598.155005,1391.9352 597.897891,1392.19624 Z" transform="translate(-591 -1381)"/>
</svg>
