<svg xmlns="http://www.w3.org/2000/svg" width="34" height="42" viewBox="0 0 34 42">
  <g fill="none" fill-rule="evenodd" transform="translate(2 2)">
    <path stroke="#284479" stroke-linecap="round" stroke-linejoin="round" stroke-width="3" d="M0 18L6 18 6 29 3.12116652 28.9999997C2.29281538 29.0003652 1.49832886 28.6589554.912844553 28.0510311.327360245 27.4431069-.00105231822 26.6185801.00000253327521 25.7592105L0 18zM24 18L30 18 30 25.7621189C30 26.6208584 29.6713034 27.4444261 29.0862197 28.0516466 28.501136 28.6588671 27.7075922 29 26.8801589 29L24 29 24 18z"/>
    <path stroke="#284479" stroke-linecap="round" stroke-linejoin="round" stroke-width="3" d="M0 21L0 15.012898C0 6.75594518 6.75045811 0 15.0007048 0 23.2509515 0 30 6.75594518 30 15.0114873L30 20.9985893M3.22429907 29.8899245L3.22429907 30.3813962C3.22429907 34.3349006 6.44220012 37.5398491 10.4116822 37.5398491L14.9663551 37.5398491"/>
    <rect width="8" height="5" x="12" y="35" fill="#284479" fill-rule="nonzero" rx="2.5"/>
  </g>
</svg>
