<svg xmlns="http://www.w3.org/2000/svg" width="34" height="34" viewBox="0 0 34 34">
  <g fill="none" fill-rule="evenodd" stroke="#284479" stroke-linecap="square" stroke-width="3" transform="translate(2 2)">
    <path stroke-linejoin="round" d="M30,15 C29.9990712,12.7449938 28.4097445,10.8089403 26.2001862,10.3630261 C27.4484592,8.48547148 27.1996607,5.98768888 25.6055742,4.39349113 C24.0114877,2.79929338 21.5146585,2.55125678 19.638318,3.80070007 C19.1945268,1.59033251 17.2538033,1.92180371e-13 15.0002263,1.91978378e-13 C12.7466493,1.91776384e-13 10.8059258,1.59033251 10.3621347,3.80070007 C8.50441527,2.55706153 6.0298295,2.78549335 4.43095274,4.34821418 C2.83207598,5.91093502 2.54618044,8.38056085 3.74570737,10.2675079 L3.8059497,10.361889 C1.54819259,10.8489329 -0.0142118692,12.7939791 9.74862472e-05,15.0373538 C0.0144068417,17.2807286 1.60149599,19.205669 3.80026646,19.646483 C2.55166325,21.5238806 2.80049532,24.0218381 4.39489491,25.6157963 C5.9892945,27.2097546 8.48638428,27.4569588 10.3621347,26.2065348 C10.7964421,28.3698007 12.6698969,29.944081 14.8747742,29.9985451 C17.0796515,30.0530092 19.0284858,28.5731456 19.5689824,26.433959 L19.6167217,26.1496787 L19.7462995,26.2713507 C21.6146475,27.448274 24.0487485,27.1731357 25.6074999,25.6088306 C27.1662514,24.0445255 27.4336301,21.6085591 26.2513353,19.7431383 L26.1967762,19.6351118 C28.4385693,19.1693506 29.9997297,17.2338293 30,15 Z"/>
    <polyline points="11 15.502 13.653 18 20 12"/>
  </g>
</svg>
