<?xml version="1.0" encoding="UTF-8"?>
<svg width="1003px" height="582px" viewBox="0 0 1003 582" version="1.1" xmlns="http://www.w3.org/2000/svg" xmlns:xlink="http://www.w3.org/1999/xlink">
    <!-- Generator: Sketch 48.2 (47327) - http://www.bohemiancoding.com/sketch -->
    <title>Group</title>
    <desc>Created with Sketch.</desc>
    <defs>
        <linearGradient x1="94.6218025%" y1="45.7948506%" x2="0%" y2="45.7948511%" id="linearGradient-1">
            <stop stop-color="#FFE36B" stop-opacity="0" offset="0%"></stop>
            <stop stop-color="#F8CE41" offset="100%"></stop>
        </linearGradient>
        <linearGradient x1="42.7056276%" y1="18.7700565%" x2="4.64621658%" y2="111.148418%" id="linearGradient-2">
            <stop stop-color="#FFE36B" stop-opacity="0" offset="0%"></stop>
            <stop stop-color="#F8CE41" offset="100%"></stop>
        </linearGradient>
    </defs>
    <g id="Desktop-HD-Copy-4" stroke="none" stroke-width="1" fill="none" fill-rule="evenodd" transform="translate(-437.000000, 0.000000)">
        <g id="Group" transform="translate(437.000000, -1.000000)">
            <path d="M128.19426,-5.17920154e-15 L716.690147,3.38367364e-14 C749.404796,-1.22929188e-15 767.545989,4.64128056 783.842285,13.3566352 C800.138581,22.0719898 812.92801,34.8614185 821.643365,51.1577148 C830.358719,67.4540111 835,85.5952044 835,118.309853 L835,163.305939 C835,200.664289 832.097882,214.219848 826.199554,228.496296 C820.301226,242.772745 811.406688,254.720422 799.421845,264.46572 C787.437003,274.211017 775.283385,280.879226 739.494683,291.594406 L128.682156,474.472408 C75.7741597,490.313126 20.0423152,460.264159 4.20159759,407.356162 C1.4154003,398.050263 1.18962729e-15,388.38805 0,378.674006 L3.45280103e-15,128.19426 C-2.00617683e-15,83.618323 4.64128056,67.4540111 13.3566352,51.1577148 C22.0719898,34.8614185 34.8614185,22.0719898 51.1577148,13.3566352 C67.4540111,4.64128056 83.618323,3.00926524e-15 128.19426,-5.17920154e-15 Z" id="Rectangle-Copy-2" fill="url(#linearGradient-1)" opacity="0.24000001"></path>
            <path d="M460.19426,104 L1048.69015,104 C1081.4048,104 1099.54599,108.641281 1115.84229,117.356635 C1132.13858,126.07199 1144.92801,138.861419 1153.64336,155.157715 C1162.35872,171.454011 1167,189.595204 1167,222.309853 L1167,267.305939 C1167,304.664289 1164.09788,318.219848 1158.19955,332.496296 C1152.30123,346.772745 1143.40669,358.720422 1131.42185,368.46572 C1119.437,378.211017 1107.28338,384.879226 1071.49468,395.594406 L460.682156,578.472408 C407.77416,594.313126 352.042315,564.264159 336.201598,511.356162 C333.4154,502.050263 332,492.38805 332,482.674006 L332,232.19426 C332,187.618323 336.641281,171.454011 345.356635,155.157715 C354.07199,138.861419 366.861419,126.07199 383.157715,117.356635 C399.454011,108.641281 415.618323,104 460.19426,104 Z" id="Rectangle-Copy" fill="url(#linearGradient-2)" opacity="0.200000003"></path>
        </g>
    </g>
</svg>