<?xml version="1.0" encoding="UTF-8"?>
<svg width="124px" height="105px" viewBox="0 0 124 105" version="1.1" xmlns="http://www.w3.org/2000/svg" xmlns:xlink="http://www.w3.org/1999/xlink">
    <!-- Generator: Sketch 52 (66869) - http://www.bohemiancoding.com/sketch -->
    <title>Group 7</title>
    <desc>Created with Sketch.</desc>
    <g id="Page-1" stroke="none" stroke-width="1" fill="none" fill-rule="evenodd">
        <g id="Desktop-HD" transform="translate(-664.000000, -1123.000000)">
            <g id="Group-7" transform="translate(666.000000, 1125.000000)">
                <g id="Group-6" transform="translate(0.462123, 0.000000)">
                    <g id="percent-(1)-copy" transform="translate(-0.000000, 48.000000)" stroke="#FFE422" stroke-linecap="round" stroke-linejoin="round" stroke-width="4.26749444">
                        <path d="M32.0062083,2.13374722 L2.13374722,32.0062083" id="Path"></path>
                        <circle id="Oval" cx="5.33436804" cy="5.33436804" r="5.33436804"></circle>
                        <circle id="Oval" cx="28.8055874" cy="28.8055874" r="5.33436804"></circle>
                    </g>
                    <g id="percent-(1)-copy-4" transform="translate(46.000000, 0.000000)" stroke="#FFE422" stroke-linecap="round" stroke-linejoin="round" stroke-width="2.25">
                        <path d="M16.875,1.125 L1.125,16.875" id="Path"></path>
                        <circle id="Oval" cx="2.8125" cy="2.8125" r="2.8125"></circle>
                        <circle id="Oval" cx="15.1875" cy="15.1875" r="2.8125"></circle>
                    </g>
                    <g id="percent-(1)-copy-3" opacity="0.602864583" transform="translate(94.000000, 75.000000)" stroke="#FFE422" stroke-linecap="round" stroke-linejoin="round" stroke-width="3.20062083">
                        <path d="M24.0046562,1.60031041 L1.60031041,24.0046562" id="Path"></path>
                        <circle id="Oval" cx="4.00077603" cy="4.00077603" r="4.00077603"></circle>
                        <circle id="Oval" cx="21.6041906" cy="21.6041906" r="4.00077603"></circle>
                    </g>
                    <path d="M48.3207192,66.7661199 C48.3207192,64.6014379 48.7304564,62.5604828 49.5499432,60.6431931 C50.3694299,58.7259034 51.4904091,57.0483 52.9129143,55.6103328 C54.3354196,54.1723655 55.9975611,53.0359245 57.8993888,52.2009758 C59.8012165,51.3660271 61.8499026,50.948559 64.0455085,50.948559 C66.2101904,50.948559 68.2511456,51.3660271 70.1684353,52.2009758 C72.085725,53.0359245 73.7633283,54.1723655 75.2012956,55.6103328 C76.6392629,57.0483 77.7757038,58.7259034 78.6106526,60.6431931 C79.4456013,62.5604828 79.8630694,64.6014379 79.8630694,66.7661199 C79.8630694,68.9617258 79.4456013,71.0104119 78.6106526,72.9122396 C77.7757038,74.8140672 76.6392629,76.4762088 75.2012956,77.898714 C73.7633283,79.3212193 72.085725,80.4421985 70.1684353,81.2616852 C68.2511456,82.0811719 66.2101904,82.4909091 64.0455085,82.4909091 C61.8499026,82.4909091 59.8012165,82.0811719 57.8993888,81.2616852 C55.9975611,80.4421985 54.3354196,79.3212193 52.9129143,77.898714 C51.4904091,76.4762088 50.3694299,74.8140672 49.5499432,72.9122396 C48.7304564,71.0104119 48.3207192,68.9617258 48.3207192,66.7661199 Z M55.3713622,66.7661199 C55.3713622,67.9721569 55.6032889,69.1085979 56.0671493,70.1754768 C56.5310098,71.2423558 57.1572119,72.1700627 57.9457746,72.9586254 C58.7343373,73.7471881 59.6620442,74.3733902 60.7289232,74.8372506 C61.7958021,75.301111 62.9322431,75.5330378 64.1382801,75.5330378 C65.3443172,75.5330378 66.488489,75.301111 67.57083,74.8372506 C68.653171,74.3733902 69.5886087,73.7471881 70.3771714,72.9586254 C71.1657341,72.1700627 71.7919363,71.2423558 72.2557967,70.1754768 C72.7196571,69.1085979 72.9515838,67.9721569 72.9515838,66.7661199 C72.9515838,65.5600828 72.7196571,64.4159109 72.2557967,63.33357 C71.7919363,62.251229 71.1657341,61.3157912 70.3771714,60.5272285 C69.5886087,59.7386658 68.653171,59.1124637 67.57083,58.6486033 C66.488489,58.1847429 65.3443172,57.9528161 64.1382801,57.9528161 C62.9322431,57.9528161 61.7958021,58.1847429 60.7289232,58.6486033 C59.6620442,59.1124637 58.7343373,59.7386658 57.9457746,60.5272285 C57.1572119,61.3157912 56.5310098,62.251229 56.0671493,63.33357 C55.6032889,64.4159109 55.3713622,65.5600828 55.3713622,66.7661199 Z" id="۰" fill="#14286D" fill-rule="nonzero"></path>
                </g>
                <path d="M4.57967828,64.3927132 C21.9351332,37.0631359 71.6931655,-15.672068 99.9788804,32.5403477 C128.264595,80.7527634 112.018841,102.982025 66.8248313,102.982025 C21.6308213,102.982025 -12.7757766,91.7222906 4.57967828,64.3927132 Z" id="Path-2" fill-opacity="0.15" fill="#FFE422"></path>
            </g>
        </g>
    </g>
</svg>