<?xml version="1.0" encoding="UTF-8"?>
<svg width="60px" height="85px" viewBox="0 0 60 85" version="1.1" xmlns="http://www.w3.org/2000/svg" xmlns:xlink="http://www.w3.org/1999/xlink">
    <!-- Generator: Sketch 52 (66869) - http://www.bohemiancoding.com/sketch -->
    <title>1</title>
    <desc>Created with Sketch.</desc>
    <defs>
        <linearGradient x1="-50.3472222%" y1="0%" x2="150.347222%" y2="100%" id="linearGradient-1">
            <stop stop-color="#FFEE00" offset="0%"></stop>
            <stop stop-color="#FFCE00" offset="100%"></stop>
        </linearGradient>
    </defs>
    <g id="Page-1" stroke="none" stroke-width="1" fill="none" fill-rule="evenodd">
        <g id="Desktop-HD" transform="translate(-1229.000000, -2764.000000)" fill-rule="nonzero">
            <g id="1" transform="translate(1229.000000, 2764.000000)">
                <rect id="Rectangle" fill="url(#linearGradient-1)" x="0" y="0" width="60" height="85" rx="6"></rect>
                <g id="badge-b-link" transform="translate(10.000000, 55.000000)" fill="#FFFFFF">
                    <path d="M38.3978261,4.3121739 L38.8695652,4.3121739 C38.968986,4.3121739 39.0744922,4.3086232 39.186087,4.3015217 C39.2976817,4.2944203 39.4047096,4.2802175 39.5071739,4.258913 C39.6096382,4.2376086 39.7024634,4.2081886 39.7856522,4.1706522 C39.868841,4.1331158 39.9307244,4.0849278 39.9713043,4.026087 C40.0017393,3.9814491 40.0174638,3.9215946 40.0184783,3.8465217 C40.0194928,3.7714489 40.0093479,3.6892758 39.9880435,3.6 C39.966739,3.5107242 39.9383335,3.4168846 39.9028261,3.3184783 C39.8673187,3.220072 39.8292756,3.1247106 39.7886957,3.0323913 C39.7481157,2.940072 39.7080437,2.8528265 39.6684783,2.7706522 C39.6289128,2.6884779 39.5959422,2.6189858 39.5695652,2.5621739 L40.2786957,2.2121739 C40.3334785,2.3095657 40.3877534,2.4267384 40.4415217,2.5636957 C40.4952901,2.7006529 40.5424636,2.8421732 40.5830435,2.9882609 C40.6236234,3.1343486 40.6565941,3.2784051 40.6819565,3.4204348 C40.707319,3.5624645 40.72,3.6882603 40.72,3.7978261 C40.72,3.9946387 40.6865221,4.1701442 40.6195652,4.3243478 C40.5424634,4.5028994 40.4339137,4.6494922 40.293913,4.7641304 C40.1539123,4.8787687 39.9875372,4.9644925 39.7947826,5.0213043 C39.7359417,5.0375363 39.6623917,5.0502173 39.5741304,5.0593478 C39.4858691,5.0684783 39.3960874,5.0755797 39.3047826,5.0806522 C39.2134778,5.0857247 39.1267395,5.0887681 39.0445652,5.0897826 C38.9623909,5.0907971 38.8989857,5.0913043 38.8543478,5.0913043 L38.3856522,5.0913043 C38.3793759,5.0913043 38.3731529,5.0911712 38.3669831,5.0909049 C38.3515615,5.0906514 38.3344513,5.0902773 38.3156522,5.0897826 C38.2771013,5.0887681 38.2350002,5.0842029 38.1893478,5.076087 C38.1436954,5.067971 38.094493,5.0552899 38.0417391,5.0380435 C37.9889852,5.020797 37.9372466,4.9959422 37.8865217,4.9634783 C37.8601448,5.2191317 37.7825369,5.4641293 37.6536957,5.6984783 C37.5248544,5.9328273 37.36203,6.1524627 37.1652174,6.3573913 C36.9684048,6.5623199 36.7477548,6.7499991 36.5032609,6.9204348 C36.2587669,7.0908704 36.0076824,7.2399994 35.75,7.3678261 L35.4091304,6.6647826 C35.5511601,6.5917388 35.6936949,6.5126091 35.8367391,6.4273913 C35.9797833,6.3421735 36.1162312,6.2513773 36.246087,6.155 C36.3759427,6.0586227 36.4971734,5.9566672 36.6097826,5.8491304 C36.7223919,5.7415937 36.8197822,5.6305078 36.9019565,5.5158696 C36.9841308,5.4012313 37.0490577,5.2830441 37.0967391,5.1613043 C37.1444205,5.0395646 37.1682609,4.9147832 37.1682609,4.7869565 C37.1682609,4.7707246 37.1677536,4.7539856 37.1667391,4.7367391 C37.1657246,4.7194927 37.1642029,4.7027537 37.1621739,4.6865217 L37.1621739,4.6895652 C37.1479709,4.5759415 37.1241306,4.4607977 37.0906522,4.3441304 C37.0571737,4.2274632 37.0211596,4.1143484 36.9826087,4.0047826 C36.9440578,3.8952168 36.9055074,3.7902179 36.8669565,3.6897826 C36.8284056,3.5893473 36.7959422,3.4985511 36.7695652,3.4173913 L37.5,3.1130435 C37.5791308,3.350436 37.6536953,3.5467384 37.7236957,3.7019565 C37.793696,3.8571747 37.8642025,3.9799271 37.9352174,4.0702174 C38.0062322,4.1605077 38.0787677,4.2234056 38.1528261,4.258913 C38.2268844,4.2944205 38.3085503,4.3121739 38.3978261,4.3121739 Z M38.9395652,6.61 L38.4221739,6.0895652 L38.9456522,5.5691304 L39.4630435,6.0865217 L38.9395652,6.61 Z M40.09,6.603913 L39.5726087,6.0865217 L40.096087,5.5630435 L40.6134783,6.0834783 L40.09,6.603913 Z M39.5208696,6.4882609 L39.9956522,6.9630435 L39.5178261,7.4408696 L39.0430435,6.966087 L39.5208696,6.4882609 Z M32.9926087,3.8952174 C33.0697105,3.9439133 33.1625357,3.9936229 33.271087,4.0443478 C33.3796382,4.0950727 33.4922458,4.1412317 33.608913,4.1828261 C33.7255803,4.2244205 33.8402168,4.2578984 33.9528261,4.2832609 C34.0654353,4.3086233 34.1643474,4.3213043 34.2495652,4.3213043 C34.3002901,4.3213043 34.3687677,4.3187681 34.455,4.3136957 C34.5412323,4.3086232 34.6259416,4.2944204 34.7091304,4.271087 C34.7923193,4.2477535 34.8643475,4.2112321 34.9252174,4.1615217 C34.9860873,4.1118113 35.0175362,4.0413048 35.0195652,3.95 C35.0215942,3.8668112 34.9992756,3.7729715 34.9526087,3.6684783 C34.9059418,3.563985 34.8430439,3.4554353 34.763913,3.3428261 C34.6847822,3.2302168 34.5934788,3.117102 34.49,3.0034783 C34.3865212,2.8898545 34.2789861,2.7807976 34.1673913,2.6763043 C34.0557965,2.5718111 33.9436962,2.4754352 33.831087,2.3871739 C33.7184777,2.2989126 33.6134787,2.2243481 33.516087,2.1634783 L33.9695652,1.4908696 C34.1562328,1.6186963 34.3403614,1.7627528 34.5219565,1.9230435 C34.7035516,2.0833341 34.8709413,2.2542745 35.0241304,2.4358696 C35.1773196,2.6174647 35.3102168,2.8066657 35.4228261,3.0034783 C35.5354353,3.2002908 35.6160867,3.3991294 35.6647826,3.6 C35.7175365,3.8252185 35.718551,4.0331875 35.6678261,4.223913 C35.6171012,4.4146386 35.5257978,4.5784776 35.393913,4.7154348 C35.2620283,4.852392 35.0946387,4.9573909 34.8917391,5.0304348 C34.6888396,5.1034786 34.4615955,5.1339131 34.21,5.1217391 C34.0760863,5.1217391 33.9401456,5.1085509 33.8021739,5.0821739 C33.6642022,5.055797 33.5287688,5.0207973 33.3958696,4.9771739 C33.2629704,4.9335505 33.1351455,4.8828264 33.0123913,4.825 C32.8896371,4.7671736 32.7755078,4.7057974 32.67,4.6408696 L32.9926087,3.8952174 Z M31.2365217,0.4895652 L32.0186957,0.233913 C32.1201454,1.0029024 32.1728985,1.7221706 32.1769565,2.3917391 C32.1810145,3.4691358 32.1657973,4.3263736 32.1313043,4.9634783 L31.333913,5.0852174 C31.3947829,4.1478214 31.4130436,3.3626119 31.3886957,2.7295652 C31.3562317,1.901735 31.3055076,1.1550758 31.2365217,0.4895652 Z M26.1021739,4.312855 C26.1102104,4.312401 26.1183263,4.3121739 26.1265217,4.3121739 L26.7291304,4.3121739 C26.9807259,4.3121739 27.2368828,4.2883336 27.4976087,4.2406522 C27.7583346,4.1929708 28.0175349,4.1300729 28.2752174,4.0519565 C28.5328998,3.9738402 28.7844915,3.8840585 29.03,3.7826087 C29.2755085,3.6811589 29.507825,3.5766672 29.7269565,3.4691304 C29.5524629,3.4305795 29.3901457,3.3793481 29.24,3.3154348 C29.0898543,3.2515214 28.9478268,3.1891307 28.813913,3.1282609 C28.6799993,3.067391 28.55116,3.0146379 28.4273913,2.97 C28.3036226,2.9253621 28.1808702,2.9030435 28.0591304,2.9030435 C27.9881156,2.9030435 27.921667,2.9157245 27.8597826,2.941087 C27.7978982,2.9664494 27.74058,2.9984056 27.6878261,3.0369565 C27.6350722,3.0755074 27.5878988,3.1181157 27.5463043,3.1647826 C27.5047099,3.2114495 27.4681886,3.256594 27.4367391,3.3002174 C27.4052897,3.3438408 27.3794204,3.3828984 27.3591304,3.4173913 C27.3388405,3.4518842 27.3246377,3.4762318 27.3165217,3.4904348 L26.6834783,3.0795652 C26.7524641,2.9578255 26.8346372,2.8396383 26.93,2.725 C27.0253628,2.6103617 27.1313762,2.507899 27.2480435,2.4176087 C27.3647107,2.3273184 27.4910138,2.2552901 27.6269565,2.2015217 C27.7628992,2.1477534 27.9069558,2.1208696 28.0591304,2.1208696 C28.2153631,2.1208696 28.3705789,2.1416665 28.5247826,2.1832609 C28.6789863,2.2248553 28.8316659,2.2771011 28.9828261,2.34 C29.1339863,2.4028989 29.2856514,2.4713764 29.4378261,2.5454348 C29.5900008,2.6194931 29.7436949,2.6884779 29.898913,2.7523913 C30.0541312,2.8163047 30.2108688,2.8700722 30.3691304,2.9136957 C30.5273921,2.9573191 30.6897093,2.9801449 30.856087,2.9821739 L30.7921739,3.7673913 C30.5081145,3.903334 30.2118856,4.0473905 29.9034783,4.1995652 C29.5950709,4.3517399 29.2724655,4.492753 28.9356522,4.6226087 C28.5988389,4.7524644 28.2468134,4.8610141 27.8795652,4.9482609 C27.512317,5.0355077 27.1288426,5.0831884 26.7291304,5.0913043 L26.1265217,5.0913043 C26.1183263,5.0913043 26.1102104,5.0910773 26.1021739,5.0906232 C26.0941374,5.0910773 26.0860215,5.0913043 26.0778261,5.0913043 L26.0534783,5.0913043 C25.8850716,5.0913043 25.7308703,5.0771016 25.5908696,5.0486957 C25.4508689,5.0202897 25.3230441,4.9751452 25.2073913,4.9132609 C25.0917386,4.8513765 24.9887686,4.7722469 24.8984783,4.6758696 C24.808188,4.5794923 24.7295656,4.463334 24.6626087,4.3273913 C24.1046349,4.8427562 23.2697157,5.1004348 22.1578261,5.1004348 C21.5268084,5.0963768 21.0028282,5.0172471 20.5858696,4.8630435 C20.168911,4.7088398 19.86203,4.4734798 19.6652174,4.1569565 C19.5881156,4.0271008 19.5328263,3.8921746 19.4993478,3.7521739 C19.4658694,3.6121732 19.4491304,3.4752181 19.4491304,3.3413043 C19.4491304,3.1769557 19.4694201,3.0186964 19.51,2.8665217 L19.51,2.8695652 C19.5343479,2.7701444 19.55971,2.6834062 19.586087,2.6093478 C19.6124639,2.5352895 19.6368115,2.4728988 19.6591304,2.4221739 C19.6814494,2.371449 19.7007246,2.3318842 19.7169565,2.3034783 C19.7331885,2.2750723 19.7443478,2.2557972 19.7504348,2.2456522 L20.3378261,2.613913 C20.3175361,2.650435 20.294203,2.6899998 20.2678261,2.7326087 C20.2414491,2.7752176 20.2165943,2.8249273 20.1932609,2.8817391 C20.1699274,2.938551 20.150145,3.0055069 20.133913,3.0826087 C20.1176811,3.1597105 20.1095652,3.2499995 20.1095652,3.3534783 C20.1095652,3.4244931 20.1227535,3.4970286 20.1491304,3.571087 C20.1755074,3.6451453 20.2089853,3.7146374 20.2495652,3.7795652 C20.3063771,3.874928 20.3926081,3.9560866 20.5082609,4.0230435 C20.6239136,4.0900003 20.7644195,4.1447824 20.9297826,4.1873913 C21.0951458,4.2300002 21.2813033,4.2614492 21.4882609,4.2817391 C21.6952184,4.3020291 21.9184046,4.3121739 22.1578261,4.3121739 C22.3749286,4.3121739 22.5808686,4.3040581 22.7756522,4.2878261 C22.9704358,4.2715941 23.1515209,4.2457248 23.318913,4.2102174 C23.4863052,4.17471 23.6374631,4.1290583 23.7723913,4.0732609 C23.9073195,4.0174635 24.0244923,3.9489859 24.123913,3.8678261 C24.2131889,3.7988402 24.2852171,3.7186961 24.34,3.6273913 C24.3947829,3.5360865 24.4404346,3.4402179 24.4769565,3.3397826 C24.5134784,3.2393473 24.5439129,3.1363773 24.5682609,3.0308696 C24.5926088,2.9253618 24.6189854,2.8239135 24.6473913,2.7265217 L25.3473913,2.9152174 C25.3210144,3.0247832 25.2931161,3.13384 25.2636957,3.2423913 C25.2342752,3.3509426 25.2205797,3.4630429 25.2226087,3.5786957 L25.2226087,3.5756522 C25.2286957,3.6872469 25.2479709,3.7886952 25.2804348,3.88 C25.3128987,3.9713048 25.3631156,4.0489127 25.431087,4.1128261 C25.4990583,4.1767395 25.5857966,4.2259419 25.6913043,4.2604348 C25.7968121,4.2949277 25.9256514,4.3121739 26.0778261,4.3121739 C26.0860215,4.3121739 26.0941374,4.312401 26.1021739,4.312855 Z M28.5126087,1.0891304 L27.9313043,1.6704348 L27.3469565,1.086087 L27.9282609,0.5047826 L28.5126087,1.0891304 Z M22.3465217,2.0052174 L21.8291304,2.5226087 L21.3056522,2.0021739 L21.8230435,1.4817391 L22.3465217,2.0052174 Z M23.4969565,2.0082609 L22.9795652,2.5286957 L22.456087,2.0052174 L22.9734783,1.4878261 L23.4969565,2.0082609 Z M17.0586957,0.4895652 L17.8408696,0.233913 C17.9423193,1.0029024 17.9950724,1.7221706 17.9991304,2.3917391 C18.0031884,3.4691358 17.9879712,4.3263736 17.9534783,4.9634783 L17.156087,5.0852174 C17.2169568,4.1478214 17.2352175,3.3626119 17.2108696,2.7295652 C17.1784056,1.901735 17.1276815,1.1550758 17.0586957,0.4895652 Z M15.0530435,6.05 L14.5356522,6.5673913 L14.0121739,6.0469565 L14.5295652,5.5265217 L15.0530435,6.05 Z M16.2034783,6.0530435 L15.686087,6.5734783 L15.1626087,6.05 L15.68,5.5326087 L16.2034783,6.0530435 Z M14.0318838,4.3121739 L14.2921739,4.3121739 C14.3915947,4.3121739 14.4971009,4.3086232 14.6086957,4.3015217 C14.7202904,4.2944203 14.8273183,4.2802175 14.9297826,4.258913 C15.0322469,4.2376086 15.125072,4.2081886 15.2082609,4.1706522 C15.2914497,4.1331158 15.3533331,4.0849278 15.393913,4.026087 C15.424348,3.9814491 15.4400725,3.9215946 15.441087,3.8465217 C15.4421015,3.7714489 15.4319566,3.6892758 15.4106522,3.6 C15.3893477,3.5107242 15.3609422,3.4168846 15.3254348,3.3184783 C15.2899274,3.220072 15.2518843,3.1247106 15.2113043,3.0323913 C15.1707244,2.940072 15.1306524,2.8528265 15.091087,2.7706522 C15.0515215,2.6884779 15.0185509,2.6189858 14.9921739,2.5621739 L15.7013043,2.2121739 C15.7560872,2.3095657 15.8103621,2.4267384 15.8641304,2.5636957 C15.9178988,2.7006529 15.9650723,2.8421732 16.0056522,2.9882609 C16.0462321,3.1343486 16.0792028,3.2784051 16.1045652,3.4204348 C16.1299277,3.5624645 16.1426087,3.6882603 16.1426087,3.7978261 C16.1426087,3.9946387 16.1091308,4.1701442 16.0421739,4.3243478 C15.9650721,4.5028994 15.8565224,4.6494922 15.7165217,4.7641304 C15.576521,4.8787687 15.4101459,4.9644925 15.2173913,5.0213043 C15.1585504,5.0375363 15.0850004,5.0502173 14.9967391,5.0593478 C14.9084778,5.0684783 14.8186961,5.0755797 14.7273913,5.0806522 C14.6360865,5.0857247 14.5493482,5.0887681 14.4671739,5.0897826 C14.3849996,5.0907971 14.3215944,5.0913043 14.2769565,5.0913043 L13.8082609,5.0913043 C13.7554121,5.0913043 13.7063405,5.0818632 13.6610448,5.0629806 C13.4971546,5.0279027 13.3697055,4.9602427 13.2786957,4.86 L13.2147826,4.79 L13.1508696,4.8569565 C13.0007239,5.0050732 12.8100012,5.0791304 12.5786957,5.0791304 C12.4569559,5.0791304 12.3169573,5.0527539 12.1586957,5 C12.0308689,4.9594201 11.8949283,4.9026091 11.7508696,4.8295652 C11.5865209,4.7463764 11.4434789,4.6631888 11.3217391,4.58 C11.2649273,4.6652178 11.1776817,4.7514488 11.06,4.8386957 C10.8226075,5.0111603 10.5537696,5.0973913 10.2534783,5.0973913 C10.2284192,5.0973913 10.2042417,5.0952979 10.1809456,5.0911112 C9.9601472,5.0879276 9.7580947,5.0453837 9.5747826,4.9634783 C9.5768116,5.1318849 9.5626088,5.3043469 9.5321739,5.4808696 C9.501739,5.6573922 9.4520293,5.8268108 9.3830435,5.9891304 C9.3140576,6.1514501 9.2252904,6.3021008 9.1167391,6.441087 C9.0081879,6.5800732 8.8768124,6.6962314 8.7226087,6.7895652 L8.7256522,6.7895652 C8.6302894,6.8544931 8.5278266,6.9102896 8.4182609,6.9569565 C8.3086951,7.0036234 8.1925368,7.0421738 8.0697826,7.0726087 C7.9470284,7.1030436 7.8176818,7.126884 7.6817391,7.1441304 C7.5457964,7.1613769 7.4017399,7.1740579 7.2495652,7.1821739 C6.9107229,7.1821739 6.6200737,7.1415946 6.3776087,7.0604348 C6.1351437,6.979275 5.9246386,6.8626095 5.746087,6.7104348 C5.5310134,6.5136222 5.3707252,6.2818129 5.2652174,6.015 C5.1597096,5.7481871 5.1069565,5.4666681 5.1069565,5.1704348 C5.1069565,4.9999991 5.1181158,4.8392037 5.1404348,4.6880435 C5.1627537,4.5368833 5.1962317,4.3882616 5.2408696,4.2421739 C5.2855075,4.0960862 5.3423185,3.9469573 5.4113043,3.7947826 C5.4802902,3.6426079 5.5614488,3.4792762 5.6547826,3.3047826 L6.293913,3.7673913 C6.2310142,3.8810151 6.1691307,4.0052892 6.1082609,4.1402174 C6.047391,4.2751456 5.9941307,4.4151442 5.9484783,4.5602174 C5.9028259,4.7052906 5.8693479,4.8508688 5.8480435,4.9969565 C5.826739,5.1430442 5.8252173,5.2830428 5.8434783,5.4169565 C5.8515942,5.4656524 5.8663042,5.5239852 5.8876087,5.5919565 C5.9089132,5.6599279 5.9403621,5.7304344 5.9819565,5.8034783 C6.0235509,5.8765221 6.076304,5.9490576 6.1402174,6.021087 C6.2041308,6.0931163 6.2817387,6.1570287 6.3730435,6.2128261 C6.4643483,6.2686235 6.5713762,6.3142752 6.6941304,6.3497826 C6.8168847,6.38529 6.958405,6.4030435 7.1186957,6.4030435 L7.1704348,6.4030435 C7.1805798,6.4030435 7.1907246,6.402029 7.2008696,6.4 C7.4037691,6.389855 7.5924629,6.3695654 7.7669565,6.3391304 C7.9414501,6.3086955 8.0981877,6.2615221 8.2371739,6.1976087 C8.3761601,6.1336953 8.4953618,6.0505078 8.5947826,5.9480435 C8.6942034,5.8455792 8.7713041,5.7182616 8.826087,5.566087 C8.8768118,5.4240573 8.8976087,5.2734066 8.8884783,5.1141304 C8.8793478,4.9548543 8.8489133,4.7889864 8.7971739,4.6165217 C8.7454345,4.4440571 8.6779714,4.2655082 8.5947826,4.0808696 C8.5115938,3.896231 8.4223193,3.7085517 8.3269565,3.5178261 L9.0026087,3.0886957 L9.2643478,3.5908696 C9.3556526,3.7714502 9.4439126,3.9104343 9.5291304,4.0078261 C9.6143483,4.1052179 9.6965213,4.1767389 9.7756522,4.2223913 C9.854783,4.2680437 9.930362,4.2944203 10.0023913,4.3015217 C10.0744207,4.3086232 10.1428982,4.3121739 10.2078261,4.3121739 C10.2251008,4.3121739 10.2420224,4.3131826 10.2585909,4.3152001 C10.4918839,4.3136237 10.7001776,4.2040653 10.8834783,3.9865217 C10.9544931,3.9013039 11.0265214,3.7947832 11.0995652,3.6669565 C11.1442031,3.5857967 11.2020286,3.4721746 11.2730435,3.326087 L11.3491304,3.173913 C11.4708702,2.9324626 11.6017384,2.7498557 11.7417391,2.626087 C11.9060878,2.4799993 12.1039119,2.4069565 12.3352174,2.4069565 C12.6131898,2.4069565 12.8576801,2.4992744 13.0686957,2.683913 C13.3081171,2.8949286 13.4450723,3.1840561 13.4795652,3.5513043 L13.4795652,3.5786957 L13.4826087,3.5878261 L13.4826087,3.593913 C13.4846377,3.6 13.4856522,3.6071014 13.4856522,3.6152174 L13.4856522,3.6304348 C13.4856522,3.6365218 13.4866667,3.6436231 13.4886957,3.6517391 C13.4907246,3.6740581 13.4927536,3.6973912 13.4947826,3.7217391 C13.5028986,3.80087 13.5150724,3.8728982 13.5313043,3.9378261 C13.5901452,4.1813056 13.7311583,4.304058 13.9543478,4.306087 L13.9604348,4.306087 C13.9851055,4.306087 14.0089218,4.3081159 14.0318838,4.3121739 Z M12.6821739,4.3547826 C12.8302906,4.3121737 12.9084058,4.1873923 12.9165217,3.9804348 C12.9246377,3.8039122 12.8901453,3.6466674 12.8130435,3.5086957 C12.7460866,3.3889849 12.6598556,3.2956525 12.5543478,3.2286957 C12.4427531,3.1597098 12.3321745,3.1363767 12.2226087,3.1586957 C12.1556518,3.1728986 12.0582615,3.3068103 11.9304348,3.5604348 L11.8208696,3.7795652 C11.8086956,3.8059422 11.7975363,3.8302897 11.7873913,3.8526087 C11.7772463,3.8708697 11.7721739,3.8810145 11.7721739,3.8830435 L11.7417391,3.956087 C12.2124661,4.2259434 12.508695,4.3608696 12.6304348,4.3608696 C12.6507247,4.3608696 12.6679709,4.3588406 12.6821739,4.3547826 Z M7.9373913,3.2530435 L7.356087,3.8343478 L6.7717391,3.25 L7.3530435,2.6686957 L7.9373913,3.2530435 Z M2.0676812,4.3121739 L2.4426087,4.3121739 C2.5278265,4.3121739 2.6120286,4.3086232 2.6952174,4.3015217 C2.7784062,4.2944203 2.8565214,4.2797103 2.9295652,4.2573913 C3.0026091,4.2350724 3.0670287,4.2036234 3.1228261,4.1630435 C3.1786235,4.1224636 3.221739,4.0697105 3.2521739,4.0047826 C3.2744929,3.9601447 3.2856522,3.8931889 3.2856522,3.803913 C3.2856522,3.7511592 3.2750001,3.6771019 3.2536957,3.5817391 C3.2323912,3.4863763 3.2029712,3.3808701 3.1654348,3.2652174 C3.1278984,3.1495646 3.0842756,3.0298557 3.0345652,2.906087 C2.9848548,2.7823182 2.932609,2.6666672 2.8778261,2.5591304 L3.5808696,2.2121739 C3.6315945,2.3278267 3.6823186,2.4505791 3.7330435,2.5804348 C3.7837684,2.7102905 3.8289128,2.843695 3.8684783,2.9806522 C3.9080437,3.1176094 3.9399999,3.2550718 3.9643478,3.3930435 C3.9886958,3.5310152 4.0008696,3.6659414 4.0008696,3.7978261 C4.0008696,3.9946387 3.9673916,4.1701442 3.9004348,4.3243478 C3.8233329,4.5028994 3.7147833,4.6494922 3.5747826,4.7641304 C3.4347819,4.8787687 3.2684068,4.9644925 3.0756522,5.0213043 C2.9599994,5.0537683 2.8478991,5.0735507 2.7393478,5.0806522 C2.6307966,5.0877537 2.5298555,5.0913043 2.4365217,5.0913043 L1.9921739,5.0913043 C1.9862048,5.0913043 1.9802839,5.0911839 1.9744111,5.090943 C1.7582814,5.0874517 1.5714504,5.0586594 1.413913,5.0045652 C1.2455064,4.9467388 1.1004354,4.8589861 0.9786957,4.7413043 C0.9056518,4.6682605 0.849348,4.5896381 0.8097826,4.5054348 C0.7702172,4.4212315 0.7413044,4.3390584 0.7230435,4.258913 C0.7047825,4.1787677 0.6941305,4.1026815 0.691087,4.0306522 C0.6880435,3.9586228 0.6865217,3.8962321 0.6865217,3.8434783 C0.6885507,3.7785504 0.6910869,3.6710152 0.6941304,3.5208696 C0.6971739,3.3707239 0.6986957,3.1891315 0.6986957,2.976087 C0.6986957,2.8482602 0.6981884,2.7118123 0.6971739,2.5667391 C0.6961594,2.4216659 0.6946377,2.2740587 0.6926087,2.123913 C0.6905797,1.9737674 0.687029,1.8231167 0.6819565,1.6719565 C0.676884,1.5207963 0.6697827,1.3752181 0.6606522,1.2352174 C0.6515217,1.0952167 0.6403624,0.9638412 0.6271739,0.841087 C0.6139854,0.7183327 0.598261,0.6092758 0.58,0.513913 L1.343913,0.2856522 C1.366232,0.4033339 1.3855072,0.5453615 1.4017391,0.7117391 C1.4179711,0.8781168 1.4311594,1.055144 1.4413043,1.2428261 C1.4514493,1.4305082 1.4595652,1.6222454 1.4656522,1.8180435 C1.4717392,2.0138416 1.4747826,2.1999991 1.4747826,2.3765217 C1.4747826,2.4292756 1.4752899,2.4850722 1.4763043,2.543913 C1.4773188,2.6027539 1.4783333,2.6610867 1.4793478,2.718913 C1.4803623,2.7767394 1.4808696,2.8330432 1.4808696,2.8878261 L1.4808696,3.0369565 C1.4808696,3.1140584 1.4803623,3.1865939 1.4793478,3.2545652 C1.4783333,3.3225366 1.4773188,3.3879707 1.4763043,3.4508696 C1.4752899,3.5137684 1.4742754,3.5756519 1.4732609,3.6365217 C1.4722464,3.6973916 1.4717391,3.759275 1.4717391,3.8221739 C1.4697101,3.8992757 1.4717391,3.9718113 1.4778261,4.0397826 C1.4839131,4.107754 1.5042027,4.1579709 1.5386957,4.1904348 C1.6117395,4.2675366 1.7628974,4.3071014 1.9921739,4.3091304 L2.0195652,4.3091304 C2.0358455,4.3091304 2.0518841,4.3101449 2.0676812,4.3121739 Z M3.4895652,6.1443478 L2.9082609,6.7256522 L2.323913,6.1413043 L2.9052174,5.56 L3.4895652,6.1443478 Z" id="badge-b"></path>
                </g>
                <g id="badge-b-link" transform="translate(10.000000, 55.000000)" fill="#222852">
                    <path d="M38.3978261,4.3121739 L38.8695652,4.3121739 C38.968986,4.3121739 39.0744922,4.3086232 39.186087,4.3015217 C39.2976817,4.2944203 39.4047096,4.2802175 39.5071739,4.258913 C39.6096382,4.2376086 39.7024634,4.2081886 39.7856522,4.1706522 C39.868841,4.1331158 39.9307244,4.0849278 39.9713043,4.026087 C40.0017393,3.9814491 40.0174638,3.9215946 40.0184783,3.8465217 C40.0194928,3.7714489 40.0093479,3.6892758 39.9880435,3.6 C39.966739,3.5107242 39.9383335,3.4168846 39.9028261,3.3184783 C39.8673187,3.220072 39.8292756,3.1247106 39.7886957,3.0323913 C39.7481157,2.940072 39.7080437,2.8528265 39.6684783,2.7706522 C39.6289128,2.6884779 39.5959422,2.6189858 39.5695652,2.5621739 L40.2786957,2.2121739 C40.3334785,2.3095657 40.3877534,2.4267384 40.4415217,2.5636957 C40.4952901,2.7006529 40.5424636,2.8421732 40.5830435,2.9882609 C40.6236234,3.1343486 40.6565941,3.2784051 40.6819565,3.4204348 C40.707319,3.5624645 40.72,3.6882603 40.72,3.7978261 C40.72,3.9946387 40.6865221,4.1701442 40.6195652,4.3243478 C40.5424634,4.5028994 40.4339137,4.6494922 40.293913,4.7641304 C40.1539123,4.8787687 39.9875372,4.9644925 39.7947826,5.0213043 C39.7359417,5.0375363 39.6623917,5.0502173 39.5741304,5.0593478 C39.4858691,5.0684783 39.3960874,5.0755797 39.3047826,5.0806522 C39.2134778,5.0857247 39.1267395,5.0887681 39.0445652,5.0897826 C38.9623909,5.0907971 38.8989857,5.0913043 38.8543478,5.0913043 L38.3856522,5.0913043 C38.3793759,5.0913043 38.3731529,5.0911712 38.3669831,5.0909049 C38.3515615,5.0906514 38.3344513,5.0902773 38.3156522,5.0897826 C38.2771013,5.0887681 38.2350002,5.0842029 38.1893478,5.076087 C38.1436954,5.067971 38.094493,5.0552899 38.0417391,5.0380435 C37.9889852,5.020797 37.9372466,4.9959422 37.8865217,4.9634783 C37.8601448,5.2191317 37.7825369,5.4641293 37.6536957,5.6984783 C37.5248544,5.9328273 37.36203,6.1524627 37.1652174,6.3573913 C36.9684048,6.5623199 36.7477548,6.7499991 36.5032609,6.9204348 C36.2587669,7.0908704 36.0076824,7.2399994 35.75,7.3678261 L35.4091304,6.6647826 C35.5511601,6.5917388 35.6936949,6.5126091 35.8367391,6.4273913 C35.9797833,6.3421735 36.1162312,6.2513773 36.246087,6.155 C36.3759427,6.0586227 36.4971734,5.9566672 36.6097826,5.8491304 C36.7223919,5.7415937 36.8197822,5.6305078 36.9019565,5.5158696 C36.9841308,5.4012313 37.0490577,5.2830441 37.0967391,5.1613043 C37.1444205,5.0395646 37.1682609,4.9147832 37.1682609,4.7869565 C37.1682609,4.7707246 37.1677536,4.7539856 37.1667391,4.7367391 C37.1657246,4.7194927 37.1642029,4.7027537 37.1621739,4.6865217 L37.1621739,4.6895652 C37.1479709,4.5759415 37.1241306,4.4607977 37.0906522,4.3441304 C37.0571737,4.2274632 37.0211596,4.1143484 36.9826087,4.0047826 C36.9440578,3.8952168 36.9055074,3.7902179 36.8669565,3.6897826 C36.8284056,3.5893473 36.7959422,3.4985511 36.7695652,3.4173913 L37.5,3.1130435 C37.5791308,3.350436 37.6536953,3.5467384 37.7236957,3.7019565 C37.793696,3.8571747 37.8642025,3.9799271 37.9352174,4.0702174 C38.0062322,4.1605077 38.0787677,4.2234056 38.1528261,4.258913 C38.2268844,4.2944205 38.3085503,4.3121739 38.3978261,4.3121739 Z M38.9395652,6.61 L38.4221739,6.0895652 L38.9456522,5.5691304 L39.4630435,6.0865217 L38.9395652,6.61 Z M40.09,6.603913 L39.5726087,6.0865217 L40.096087,5.5630435 L40.6134783,6.0834783 L40.09,6.603913 Z M39.5208696,6.4882609 L39.9956522,6.9630435 L39.5178261,7.4408696 L39.0430435,6.966087 L39.5208696,6.4882609 Z M32.9926087,3.8952174 C33.0697105,3.9439133 33.1625357,3.9936229 33.271087,4.0443478 C33.3796382,4.0950727 33.4922458,4.1412317 33.608913,4.1828261 C33.7255803,4.2244205 33.8402168,4.2578984 33.9528261,4.2832609 C34.0654353,4.3086233 34.1643474,4.3213043 34.2495652,4.3213043 C34.3002901,4.3213043 34.3687677,4.3187681 34.455,4.3136957 C34.5412323,4.3086232 34.6259416,4.2944204 34.7091304,4.271087 C34.7923193,4.2477535 34.8643475,4.2112321 34.9252174,4.1615217 C34.9860873,4.1118113 35.0175362,4.0413048 35.0195652,3.95 C35.0215942,3.8668112 34.9992756,3.7729715 34.9526087,3.6684783 C34.9059418,3.563985 34.8430439,3.4554353 34.763913,3.3428261 C34.6847822,3.2302168 34.5934788,3.117102 34.49,3.0034783 C34.3865212,2.8898545 34.2789861,2.7807976 34.1673913,2.6763043 C34.0557965,2.5718111 33.9436962,2.4754352 33.831087,2.3871739 C33.7184777,2.2989126 33.6134787,2.2243481 33.516087,2.1634783 L33.9695652,1.4908696 C34.1562328,1.6186963 34.3403614,1.7627528 34.5219565,1.9230435 C34.7035516,2.0833341 34.8709413,2.2542745 35.0241304,2.4358696 C35.1773196,2.6174647 35.3102168,2.8066657 35.4228261,3.0034783 C35.5354353,3.2002908 35.6160867,3.3991294 35.6647826,3.6 C35.7175365,3.8252185 35.718551,4.0331875 35.6678261,4.223913 C35.6171012,4.4146386 35.5257978,4.5784776 35.393913,4.7154348 C35.2620283,4.852392 35.0946387,4.9573909 34.8917391,5.0304348 C34.6888396,5.1034786 34.4615955,5.1339131 34.21,5.1217391 C34.0760863,5.1217391 33.9401456,5.1085509 33.8021739,5.0821739 C33.6642022,5.055797 33.5287688,5.0207973 33.3958696,4.9771739 C33.2629704,4.9335505 33.1351455,4.8828264 33.0123913,4.825 C32.8896371,4.7671736 32.7755078,4.7057974 32.67,4.6408696 L32.9926087,3.8952174 Z M31.2365217,0.4895652 L32.0186957,0.233913 C32.1201454,1.0029024 32.1728985,1.7221706 32.1769565,2.3917391 C32.1810145,3.4691358 32.1657973,4.3263736 32.1313043,4.9634783 L31.333913,5.0852174 C31.3947829,4.1478214 31.4130436,3.3626119 31.3886957,2.7295652 C31.3562317,1.901735 31.3055076,1.1550758 31.2365217,0.4895652 Z M26.1021739,4.312855 C26.1102104,4.312401 26.1183263,4.3121739 26.1265217,4.3121739 L26.7291304,4.3121739 C26.9807259,4.3121739 27.2368828,4.2883336 27.4976087,4.2406522 C27.7583346,4.1929708 28.0175349,4.1300729 28.2752174,4.0519565 C28.5328998,3.9738402 28.7844915,3.8840585 29.03,3.7826087 C29.2755085,3.6811589 29.507825,3.5766672 29.7269565,3.4691304 C29.5524629,3.4305795 29.3901457,3.3793481 29.24,3.3154348 C29.0898543,3.2515214 28.9478268,3.1891307 28.813913,3.1282609 C28.6799993,3.067391 28.55116,3.0146379 28.4273913,2.97 C28.3036226,2.9253621 28.1808702,2.9030435 28.0591304,2.9030435 C27.9881156,2.9030435 27.921667,2.9157245 27.8597826,2.941087 C27.7978982,2.9664494 27.74058,2.9984056 27.6878261,3.0369565 C27.6350722,3.0755074 27.5878988,3.1181157 27.5463043,3.1647826 C27.5047099,3.2114495 27.4681886,3.256594 27.4367391,3.3002174 C27.4052897,3.3438408 27.3794204,3.3828984 27.3591304,3.4173913 C27.3388405,3.4518842 27.3246377,3.4762318 27.3165217,3.4904348 L26.6834783,3.0795652 C26.7524641,2.9578255 26.8346372,2.8396383 26.93,2.725 C27.0253628,2.6103617 27.1313762,2.507899 27.2480435,2.4176087 C27.3647107,2.3273184 27.4910138,2.2552901 27.6269565,2.2015217 C27.7628992,2.1477534 27.9069558,2.1208696 28.0591304,2.1208696 C28.2153631,2.1208696 28.3705789,2.1416665 28.5247826,2.1832609 C28.6789863,2.2248553 28.8316659,2.2771011 28.9828261,2.34 C29.1339863,2.4028989 29.2856514,2.4713764 29.4378261,2.5454348 C29.5900008,2.6194931 29.7436949,2.6884779 29.898913,2.7523913 C30.0541312,2.8163047 30.2108688,2.8700722 30.3691304,2.9136957 C30.5273921,2.9573191 30.6897093,2.9801449 30.856087,2.9821739 L30.7921739,3.7673913 C30.5081145,3.903334 30.2118856,4.0473905 29.9034783,4.1995652 C29.5950709,4.3517399 29.2724655,4.492753 28.9356522,4.6226087 C28.5988389,4.7524644 28.2468134,4.8610141 27.8795652,4.9482609 C27.512317,5.0355077 27.1288426,5.0831884 26.7291304,5.0913043 L26.1265217,5.0913043 C26.1183263,5.0913043 26.1102104,5.0910773 26.1021739,5.0906232 C26.0941374,5.0910773 26.0860215,5.0913043 26.0778261,5.0913043 L26.0534783,5.0913043 C25.8850716,5.0913043 25.7308703,5.0771016 25.5908696,5.0486957 C25.4508689,5.0202897 25.3230441,4.9751452 25.2073913,4.9132609 C25.0917386,4.8513765 24.9887686,4.7722469 24.8984783,4.6758696 C24.808188,4.5794923 24.7295656,4.463334 24.6626087,4.3273913 C24.1046349,4.8427562 23.2697157,5.1004348 22.1578261,5.1004348 C21.5268084,5.0963768 21.0028282,5.0172471 20.5858696,4.8630435 C20.168911,4.7088398 19.86203,4.4734798 19.6652174,4.1569565 C19.5881156,4.0271008 19.5328263,3.8921746 19.4993478,3.7521739 C19.4658694,3.6121732 19.4491304,3.4752181 19.4491304,3.3413043 C19.4491304,3.1769557 19.4694201,3.0186964 19.51,2.8665217 L19.51,2.8695652 C19.5343479,2.7701444 19.55971,2.6834062 19.586087,2.6093478 C19.6124639,2.5352895 19.6368115,2.4728988 19.6591304,2.4221739 C19.6814494,2.371449 19.7007246,2.3318842 19.7169565,2.3034783 C19.7331885,2.2750723 19.7443478,2.2557972 19.7504348,2.2456522 L20.3378261,2.613913 C20.3175361,2.650435 20.294203,2.6899998 20.2678261,2.7326087 C20.2414491,2.7752176 20.2165943,2.8249273 20.1932609,2.8817391 C20.1699274,2.938551 20.150145,3.0055069 20.133913,3.0826087 C20.1176811,3.1597105 20.1095652,3.2499995 20.1095652,3.3534783 C20.1095652,3.4244931 20.1227535,3.4970286 20.1491304,3.571087 C20.1755074,3.6451453 20.2089853,3.7146374 20.2495652,3.7795652 C20.3063771,3.874928 20.3926081,3.9560866 20.5082609,4.0230435 C20.6239136,4.0900003 20.7644195,4.1447824 20.9297826,4.1873913 C21.0951458,4.2300002 21.2813033,4.2614492 21.4882609,4.2817391 C21.6952184,4.3020291 21.9184046,4.3121739 22.1578261,4.3121739 C22.3749286,4.3121739 22.5808686,4.3040581 22.7756522,4.2878261 C22.9704358,4.2715941 23.1515209,4.2457248 23.318913,4.2102174 C23.4863052,4.17471 23.6374631,4.1290583 23.7723913,4.0732609 C23.9073195,4.0174635 24.0244923,3.9489859 24.123913,3.8678261 C24.2131889,3.7988402 24.2852171,3.7186961 24.34,3.6273913 C24.3947829,3.5360865 24.4404346,3.4402179 24.4769565,3.3397826 C24.5134784,3.2393473 24.5439129,3.1363773 24.5682609,3.0308696 C24.5926088,2.9253618 24.6189854,2.8239135 24.6473913,2.7265217 L25.3473913,2.9152174 C25.3210144,3.0247832 25.2931161,3.13384 25.2636957,3.2423913 C25.2342752,3.3509426 25.2205797,3.4630429 25.2226087,3.5786957 L25.2226087,3.5756522 C25.2286957,3.6872469 25.2479709,3.7886952 25.2804348,3.88 C25.3128987,3.9713048 25.3631156,4.0489127 25.431087,4.1128261 C25.4990583,4.1767395 25.5857966,4.2259419 25.6913043,4.2604348 C25.7968121,4.2949277 25.9256514,4.3121739 26.0778261,4.3121739 C26.0860215,4.3121739 26.0941374,4.312401 26.1021739,4.312855 Z M28.5126087,1.0891304 L27.9313043,1.6704348 L27.3469565,1.086087 L27.9282609,0.5047826 L28.5126087,1.0891304 Z M22.3465217,2.0052174 L21.8291304,2.5226087 L21.3056522,2.0021739 L21.8230435,1.4817391 L22.3465217,2.0052174 Z M23.4969565,2.0082609 L22.9795652,2.5286957 L22.456087,2.0052174 L22.9734783,1.4878261 L23.4969565,2.0082609 Z M17.0586957,0.4895652 L17.8408696,0.233913 C17.9423193,1.0029024 17.9950724,1.7221706 17.9991304,2.3917391 C18.0031884,3.4691358 17.9879712,4.3263736 17.9534783,4.9634783 L17.156087,5.0852174 C17.2169568,4.1478214 17.2352175,3.3626119 17.2108696,2.7295652 C17.1784056,1.901735 17.1276815,1.1550758 17.0586957,0.4895652 Z M15.0530435,6.05 L14.5356522,6.5673913 L14.0121739,6.0469565 L14.5295652,5.5265217 L15.0530435,6.05 Z M16.2034783,6.0530435 L15.686087,6.5734783 L15.1626087,6.05 L15.68,5.5326087 L16.2034783,6.0530435 Z M14.0318838,4.3121739 L14.2921739,4.3121739 C14.3915947,4.3121739 14.4971009,4.3086232 14.6086957,4.3015217 C14.7202904,4.2944203 14.8273183,4.2802175 14.9297826,4.258913 C15.0322469,4.2376086 15.125072,4.2081886 15.2082609,4.1706522 C15.2914497,4.1331158 15.3533331,4.0849278 15.393913,4.026087 C15.424348,3.9814491 15.4400725,3.9215946 15.441087,3.8465217 C15.4421015,3.7714489 15.4319566,3.6892758 15.4106522,3.6 C15.3893477,3.5107242 15.3609422,3.4168846 15.3254348,3.3184783 C15.2899274,3.220072 15.2518843,3.1247106 15.2113043,3.0323913 C15.1707244,2.940072 15.1306524,2.8528265 15.091087,2.7706522 C15.0515215,2.6884779 15.0185509,2.6189858 14.9921739,2.5621739 L15.7013043,2.2121739 C15.7560872,2.3095657 15.8103621,2.4267384 15.8641304,2.5636957 C15.9178988,2.7006529 15.9650723,2.8421732 16.0056522,2.9882609 C16.0462321,3.1343486 16.0792028,3.2784051 16.1045652,3.4204348 C16.1299277,3.5624645 16.1426087,3.6882603 16.1426087,3.7978261 C16.1426087,3.9946387 16.1091308,4.1701442 16.0421739,4.3243478 C15.9650721,4.5028994 15.8565224,4.6494922 15.7165217,4.7641304 C15.576521,4.8787687 15.4101459,4.9644925 15.2173913,5.0213043 C15.1585504,5.0375363 15.0850004,5.0502173 14.9967391,5.0593478 C14.9084778,5.0684783 14.8186961,5.0755797 14.7273913,5.0806522 C14.6360865,5.0857247 14.5493482,5.0887681 14.4671739,5.0897826 C14.3849996,5.0907971 14.3215944,5.0913043 14.2769565,5.0913043 L13.8082609,5.0913043 C13.7554121,5.0913043 13.7063405,5.0818632 13.6610448,5.0629806 C13.4971546,5.0279027 13.3697055,4.9602427 13.2786957,4.86 L13.2147826,4.79 L13.1508696,4.8569565 C13.0007239,5.0050732 12.8100012,5.0791304 12.5786957,5.0791304 C12.4569559,5.0791304 12.3169573,5.0527539 12.1586957,5 C12.0308689,4.9594201 11.8949283,4.9026091 11.7508696,4.8295652 C11.5865209,4.7463764 11.4434789,4.6631888 11.3217391,4.58 C11.2649273,4.6652178 11.1776817,4.7514488 11.06,4.8386957 C10.8226075,5.0111603 10.5537696,5.0973913 10.2534783,5.0973913 C10.2284192,5.0973913 10.2042417,5.0952979 10.1809456,5.0911112 C9.9601472,5.0879276 9.7580947,5.0453837 9.5747826,4.9634783 C9.5768116,5.1318849 9.5626088,5.3043469 9.5321739,5.4808696 C9.501739,5.6573922 9.4520293,5.8268108 9.3830435,5.9891304 C9.3140576,6.1514501 9.2252904,6.3021008 9.1167391,6.441087 C9.0081879,6.5800732 8.8768124,6.6962314 8.7226087,6.7895652 L8.7256522,6.7895652 C8.6302894,6.8544931 8.5278266,6.9102896 8.4182609,6.9569565 C8.3086951,7.0036234 8.1925368,7.0421738 8.0697826,7.0726087 C7.9470284,7.1030436 7.8176818,7.126884 7.6817391,7.1441304 C7.5457964,7.1613769 7.4017399,7.1740579 7.2495652,7.1821739 C6.9107229,7.1821739 6.6200737,7.1415946 6.3776087,7.0604348 C6.1351437,6.979275 5.9246386,6.8626095 5.746087,6.7104348 C5.5310134,6.5136222 5.3707252,6.2818129 5.2652174,6.015 C5.1597096,5.7481871 5.1069565,5.4666681 5.1069565,5.1704348 C5.1069565,4.9999991 5.1181158,4.8392037 5.1404348,4.6880435 C5.1627537,4.5368833 5.1962317,4.3882616 5.2408696,4.2421739 C5.2855075,4.0960862 5.3423185,3.9469573 5.4113043,3.7947826 C5.4802902,3.6426079 5.5614488,3.4792762 5.6547826,3.3047826 L6.293913,3.7673913 C6.2310142,3.8810151 6.1691307,4.0052892 6.1082609,4.1402174 C6.047391,4.2751456 5.9941307,4.4151442 5.9484783,4.5602174 C5.9028259,4.7052906 5.8693479,4.8508688 5.8480435,4.9969565 C5.826739,5.1430442 5.8252173,5.2830428 5.8434783,5.4169565 C5.8515942,5.4656524 5.8663042,5.5239852 5.8876087,5.5919565 C5.9089132,5.6599279 5.9403621,5.7304344 5.9819565,5.8034783 C6.0235509,5.8765221 6.076304,5.9490576 6.1402174,6.021087 C6.2041308,6.0931163 6.2817387,6.1570287 6.3730435,6.2128261 C6.4643483,6.2686235 6.5713762,6.3142752 6.6941304,6.3497826 C6.8168847,6.38529 6.958405,6.4030435 7.1186957,6.4030435 L7.1704348,6.4030435 C7.1805798,6.4030435 7.1907246,6.402029 7.2008696,6.4 C7.4037691,6.389855 7.5924629,6.3695654 7.7669565,6.3391304 C7.9414501,6.3086955 8.0981877,6.2615221 8.2371739,6.1976087 C8.3761601,6.1336953 8.4953618,6.0505078 8.5947826,5.9480435 C8.6942034,5.8455792 8.7713041,5.7182616 8.826087,5.566087 C8.8768118,5.4240573 8.8976087,5.2734066 8.8884783,5.1141304 C8.8793478,4.9548543 8.8489133,4.7889864 8.7971739,4.6165217 C8.7454345,4.4440571 8.6779714,4.2655082 8.5947826,4.0808696 C8.5115938,3.896231 8.4223193,3.7085517 8.3269565,3.5178261 L9.0026087,3.0886957 L9.2643478,3.5908696 C9.3556526,3.7714502 9.4439126,3.9104343 9.5291304,4.0078261 C9.6143483,4.1052179 9.6965213,4.1767389 9.7756522,4.2223913 C9.854783,4.2680437 9.930362,4.2944203 10.0023913,4.3015217 C10.0744207,4.3086232 10.1428982,4.3121739 10.2078261,4.3121739 C10.2251008,4.3121739 10.2420224,4.3131826 10.2585909,4.3152001 C10.4918839,4.3136237 10.7001776,4.2040653 10.8834783,3.9865217 C10.9544931,3.9013039 11.0265214,3.7947832 11.0995652,3.6669565 C11.1442031,3.5857967 11.2020286,3.4721746 11.2730435,3.326087 L11.3491304,3.173913 C11.4708702,2.9324626 11.6017384,2.7498557 11.7417391,2.626087 C11.9060878,2.4799993 12.1039119,2.4069565 12.3352174,2.4069565 C12.6131898,2.4069565 12.8576801,2.4992744 13.0686957,2.683913 C13.3081171,2.8949286 13.4450723,3.1840561 13.4795652,3.5513043 L13.4795652,3.5786957 L13.4826087,3.5878261 L13.4826087,3.593913 C13.4846377,3.6 13.4856522,3.6071014 13.4856522,3.6152174 L13.4856522,3.6304348 C13.4856522,3.6365218 13.4866667,3.6436231 13.4886957,3.6517391 C13.4907246,3.6740581 13.4927536,3.6973912 13.4947826,3.7217391 C13.5028986,3.80087 13.5150724,3.8728982 13.5313043,3.9378261 C13.5901452,4.1813056 13.7311583,4.304058 13.9543478,4.306087 L13.9604348,4.306087 C13.9851055,4.306087 14.0089218,4.3081159 14.0318838,4.3121739 Z M12.6821739,4.3547826 C12.8302906,4.3121737 12.9084058,4.1873923 12.9165217,3.9804348 C12.9246377,3.8039122 12.8901453,3.6466674 12.8130435,3.5086957 C12.7460866,3.3889849 12.6598556,3.2956525 12.5543478,3.2286957 C12.4427531,3.1597098 12.3321745,3.1363767 12.2226087,3.1586957 C12.1556518,3.1728986 12.0582615,3.3068103 11.9304348,3.5604348 L11.8208696,3.7795652 C11.8086956,3.8059422 11.7975363,3.8302897 11.7873913,3.8526087 C11.7772463,3.8708697 11.7721739,3.8810145 11.7721739,3.8830435 L11.7417391,3.956087 C12.2124661,4.2259434 12.508695,4.3608696 12.6304348,4.3608696 C12.6507247,4.3608696 12.6679709,4.3588406 12.6821739,4.3547826 Z M7.9373913,3.2530435 L7.356087,3.8343478 L6.7717391,3.25 L7.3530435,2.6686957 L7.9373913,3.2530435 Z M2.0676812,4.3121739 L2.4426087,4.3121739 C2.5278265,4.3121739 2.6120286,4.3086232 2.6952174,4.3015217 C2.7784062,4.2944203 2.8565214,4.2797103 2.9295652,4.2573913 C3.0026091,4.2350724 3.0670287,4.2036234 3.1228261,4.1630435 C3.1786235,4.1224636 3.221739,4.0697105 3.2521739,4.0047826 C3.2744929,3.9601447 3.2856522,3.8931889 3.2856522,3.803913 C3.2856522,3.7511592 3.2750001,3.6771019 3.2536957,3.5817391 C3.2323912,3.4863763 3.2029712,3.3808701 3.1654348,3.2652174 C3.1278984,3.1495646 3.0842756,3.0298557 3.0345652,2.906087 C2.9848548,2.7823182 2.932609,2.6666672 2.8778261,2.5591304 L3.5808696,2.2121739 C3.6315945,2.3278267 3.6823186,2.4505791 3.7330435,2.5804348 C3.7837684,2.7102905 3.8289128,2.843695 3.8684783,2.9806522 C3.9080437,3.1176094 3.9399999,3.2550718 3.9643478,3.3930435 C3.9886958,3.5310152 4.0008696,3.6659414 4.0008696,3.7978261 C4.0008696,3.9946387 3.9673916,4.1701442 3.9004348,4.3243478 C3.8233329,4.5028994 3.7147833,4.6494922 3.5747826,4.7641304 C3.4347819,4.8787687 3.2684068,4.9644925 3.0756522,5.0213043 C2.9599994,5.0537683 2.8478991,5.0735507 2.7393478,5.0806522 C2.6307966,5.0877537 2.5298555,5.0913043 2.4365217,5.0913043 L1.9921739,5.0913043 C1.9862048,5.0913043 1.9802839,5.0911839 1.9744111,5.090943 C1.7582814,5.0874517 1.5714504,5.0586594 1.413913,5.0045652 C1.2455064,4.9467388 1.1004354,4.8589861 0.9786957,4.7413043 C0.9056518,4.6682605 0.849348,4.5896381 0.8097826,4.5054348 C0.7702172,4.4212315 0.7413044,4.3390584 0.7230435,4.258913 C0.7047825,4.1787677 0.6941305,4.1026815 0.691087,4.0306522 C0.6880435,3.9586228 0.6865217,3.8962321 0.6865217,3.8434783 C0.6885507,3.7785504 0.6910869,3.6710152 0.6941304,3.5208696 C0.6971739,3.3707239 0.6986957,3.1891315 0.6986957,2.976087 C0.6986957,2.8482602 0.6981884,2.7118123 0.6971739,2.5667391 C0.6961594,2.4216659 0.6946377,2.2740587 0.6926087,2.123913 C0.6905797,1.9737674 0.687029,1.8231167 0.6819565,1.6719565 C0.676884,1.5207963 0.6697827,1.3752181 0.6606522,1.2352174 C0.6515217,1.0952167 0.6403624,0.9638412 0.6271739,0.841087 C0.6139854,0.7183327 0.598261,0.6092758 0.58,0.513913 L1.343913,0.2856522 C1.366232,0.4033339 1.3855072,0.5453615 1.4017391,0.7117391 C1.4179711,0.8781168 1.4311594,1.055144 1.4413043,1.2428261 C1.4514493,1.4305082 1.4595652,1.6222454 1.4656522,1.8180435 C1.4717392,2.0138416 1.4747826,2.1999991 1.4747826,2.3765217 C1.4747826,2.4292756 1.4752899,2.4850722 1.4763043,2.543913 C1.4773188,2.6027539 1.4783333,2.6610867 1.4793478,2.718913 C1.4803623,2.7767394 1.4808696,2.8330432 1.4808696,2.8878261 L1.4808696,3.0369565 C1.4808696,3.1140584 1.4803623,3.1865939 1.4793478,3.2545652 C1.4783333,3.3225366 1.4773188,3.3879707 1.4763043,3.4508696 C1.4752899,3.5137684 1.4742754,3.5756519 1.4732609,3.6365217 C1.4722464,3.6973916 1.4717391,3.759275 1.4717391,3.8221739 C1.4697101,3.8992757 1.4717391,3.9718113 1.4778261,4.0397826 C1.4839131,4.107754 1.5042027,4.1579709 1.5386957,4.1904348 C1.6117395,4.2675366 1.7628974,4.3071014 1.9921739,4.3091304 L2.0195652,4.3091304 C2.0358455,4.3091304 2.0518841,4.3101449 2.0676812,4.3121739 Z M3.4895652,6.1443478 L2.9082609,6.7256522 L2.323913,6.1413043 L2.9052174,5.56 L3.4895652,6.1443478 Z" id="badge-b"></path>
                </g>
                <path d="M49.0789303,69.1890625 C49.5876476,69.1890625 50,69.6025526 50,70.1123273 L50,75.0767352 C50,75.5865099 49.5876476,76 49.0789303,76 C48.570213,76 48.1578606,75.5865099 48.1578606,75.0767352 L48.1578606,70.1123273 C48.1578606,69.6025526 48.570213,69.1890625 49.0789303,69.1890625 Z M17.873633,64.9120363 C17.9150924,68.3530152 17.9358221,70.073879 17.9358221,70.0746275 L17.9358221,71.9820718 C17.9358221,74.1960546 16.1558717,75.9973894 13.9680511,75.9973894 C11.7799503,75.9973894 10,74.1960546 10,71.9820718 L10,70.1825817 C10,69.672807 10.4120722,69.2593169 10.9210697,69.2593169 C11.429787,69.2593169 11.8421394,69.672807 11.8421394,70.1825817 L11.8421394,71.9820718 C11.8421394,73.1779088 12.7957042,74.1511405 13.9680511,74.1511405 C15.1398377,74.1511405 16.0936827,73.1779088 16.0936827,71.9820718 L16.0936827,70.1231909 L16.0314937,64.9342126 C16.0253308,64.4244379 16.4326408,64.0061757 16.9528435,64 C17.4565185,64 17.8677503,64.4059109 17.873633,64.9120363 Z M36.5448752,69.1890625 L40.538058,69.1890625 C41.0467753,69.1890625 41.4591277,69.6025526 41.4591277,70.1123273 C41.4591277,70.6218212 41.0467753,71.0353113 40.538058,71.0353113 L36.5448752,71.0353113 L36.5448752,71.8260796 C36.5448752,74.1259606 34.6775241,75.9971929 32.3824134,75.9971929 C30.0873027,75.9971929 28.2199516,74.1259606 28.2199516,71.8260796 L28.2199516,70.1823852 C28.2199516,69.6726105 28.6320238,69.2594011 29.1410213,69.2594011 C29.6497386,69.2594011 30.062091,69.6726105 30.062091,70.1823852 L30.062091,71.8260796 C30.062091,73.1080955 31.1030566,74.150944 32.3824134,74.150944 C33.6617702,74.150944 34.7027358,73.1080955 34.7027358,71.8260796 L34.7027358,68.7708002 C34.7027358,68.2610256 35.1150882,67.8478162 35.6238055,67.8478162 C36.132803,67.8478162 36.5448752,68.2610256 36.5448752,68.7708002 L36.5448752,69.1890625 Z M21.4451592,69.1890625 L24.7850772,69.1890625 C25.2937946,69.1890625 25.7061469,69.6025526 25.7061469,70.1123273 C25.7061469,70.6218212 25.2937946,71.0353113 24.7850772,71.0353113 L20.5347345,71.0353113 C20.4717051,71.0353113 20.4097962,71.0288549 20.3501283,71.0167843 C20.3338808,71.0134157 20.319314,71.0063979 20.3033465,71.0021872 C20.2607666,70.9909587 20.2179067,70.9800109 20.177848,70.9631681 C20.1582388,70.9550275 20.1408707,70.9426761 20.1218218,70.9328511 C20.087926,70.9157276 20.0531898,70.899727 20.0218152,70.8786735 C20.0033266,70.8663222 19.9876392,70.8500408 19.9702711,70.8365666 C19.9414177,70.8138289 19.9117238,70.792214 19.8856717,70.7666691 C19.8699843,70.7509492 19.8579387,70.7327028 19.8436521,70.7161408 C19.8195608,70.6883502 19.7940689,70.6614017 19.7733393,70.6305233 C19.7607334,70.6119963 19.7520493,70.5912235 19.7408441,70.5718543 C19.7223555,70.539853 19.7027463,70.5089746 19.6881795,70.4747276 C19.6786551,70.4522706 19.6733326,70.4278486 19.6657691,70.4045494 C19.6542837,70.3708639 19.6413977,70.3380205 19.6341143,70.3026506 C19.6285117,70.2765443 19.6282316,70.2487538 19.62487,70.222086 C19.6212283,70.1892426 19.614225,70.1572413 19.6139449,70.1232751 L19.552036,64.9342968 C19.5458731,64.4245221 19.9531832,64.0062599 20.4733858,64.0000842 C20.9770608,64.0000842 21.3880125,64.4059951 21.3941754,64.9121205 L21.4451592,69.1890625 Z M44.9998074,69.1890625 C45.5085247,69.1890625 45.9208771,69.6025526 45.9208771,70.1123273 L45.9208771,75.0767352 C45.9208771,75.5865099 45.5085247,76 44.9998074,76 C44.4910901,76 44.0787377,75.5865099 44.0787377,75.0767352 L44.0787377,70.1123273 C44.0787377,69.6025526 44.4910901,69.1890625 44.9998074,69.1890625 Z M32.381629,70.9794214 C32.1547232,70.9794214 31.9306186,70.8867861 31.7709441,70.7267798 C31.6084684,70.5639663 31.5160252,70.339396 31.5160252,70.1120185 C31.5160252,69.884641 31.6084684,69.6600707 31.7709441,69.5000643 C32.0902931,69.1772445 32.6729649,69.1744373 32.9951152,69.5000643 C33.1547897,69.6600707 33.2472328,69.884641 33.2472328,70.1120185 C33.2472328,70.339396 33.1547897,70.5639663 32.9951152,70.7267798 C32.8326394,70.8867861 32.6113362,70.9794214 32.381629,70.9794214 Z M49.0773056,68.079657 C48.8503997,68.079657 48.6265753,67.9870217 48.4666207,67.8270153 C48.3069462,67.6642019 48.2117018,67.4396315 48.2117018,67.2122541 C48.2117018,66.9848766 48.3069462,66.7603063 48.4666207,66.6002999 C48.6683148,66.3981866 48.9680546,66.3055513 49.2481853,66.3616939 C49.3044915,66.3729224 49.3574362,66.3897652 49.4106611,66.4122222 C49.4610846,66.4346793 49.5117882,66.4599434 49.5594105,66.4908219 C49.6070327,66.5245074 49.6518536,66.5610001 49.6907918,66.6002999 C49.8507464,66.7603063 49.9431895,66.9848766 49.9431895,67.2122541 C49.9431895,67.4424386 49.8507464,67.6642019 49.6907918,67.8270153 C49.6518536,67.8663152 49.6070327,67.9028078 49.5594105,67.9336863 C49.5117882,67.9645647 49.4610846,67.992636 49.4106611,68.015093 C49.3574362,68.0347429 49.3016902,68.0515857 49.2481853,68.0628142 C49.1921591,68.0740427 49.1333317,68.079657 49.0773056,68.079657 Z M23.5582289,74.7045099 C23.5806394,74.7578453 23.5946459,74.8111808 23.6058511,74.8673234 C23.6170564,74.923466 23.6254603,74.9796085 23.6254603,75.0357511 C23.6254603,75.0918937 23.6170564,75.1508434 23.6058511,75.206986 C23.5946459,75.2603215 23.5806394,75.316464 23.5582289,75.3669924 C23.5358185,75.4203278 23.5106067,75.4708562 23.4800725,75.5185773 C23.4464568,75.5662985 23.4100398,75.6084055 23.3705414,75.6505124 C23.3313231,75.6898122 23.2865022,75.7263049 23.2388799,75.7571833 C23.1912577,75.7880617 23.1411143,75.816133 23.0904107,75.8385901 C23.037466,75.85824 22.983961,75.8750828 22.9279349,75.8863113 C22.8719087,75.8975398 22.8161627,75.903154 22.7598565,75.903154 C22.7038303,75.903154 22.6450029,75.8975398 22.5889768,75.8863113 C22.5360321,75.8750828 22.4797258,75.85824 22.4295824,75.8385901 C22.3760774,75.816133 22.325934,75.7880617 22.2783118,75.7571833 C22.2306896,75.7263049 22.1858687,75.6898122 22.1463703,75.6505124 C22.107152,75.6084055 22.070735,75.5662985 22.0399206,75.5185773 C22.0093864,75.4708562 21.9810932,75.4203278 21.9586827,75.3669924 C21.9393537,75.316464 21.9222657,75.2603215 21.9110605,75.206986 C21.8998553,75.1508434 21.8945328,75.0918937 21.8945328,75.0357511 C21.8945328,74.9796085 21.8998553,74.923466 21.9110605,74.8673234 C21.9222657,74.8111808 21.9393537,74.7578453 21.9586827,74.7045099 C21.9810932,74.6539816 22.0093864,74.6034532 22.0399206,74.555732 C22.070735,74.5080108 22.107152,74.4630968 22.1463703,74.423797 C22.1858687,74.3844972 22.2306896,74.3480045 22.2783118,74.3143189 C22.325934,74.2834405 22.3760774,74.2581763 22.426501,74.2357193 C22.4797258,74.2132623 22.5360321,74.1964195 22.5889768,74.185191 C22.701029,74.162734 22.8161627,74.162734 22.9279349,74.185191 C22.983961,74.1964195 23.037466,74.2132623 23.0904107,74.2357193 C23.1411143,74.2581763 23.1912577,74.2834405 23.2388799,74.3143189 C23.2865022,74.3480045 23.3313231,74.3844972 23.3705414,74.423797 C23.4100398,74.4630968 23.4464568,74.5080108 23.4800725,74.555732 C23.5106067,74.6034532 23.5358185,74.6539816 23.5582289,74.7045099 Z M38.4130267,72.5624177 L40.8902223,72.5624177 C41.2885681,72.5624177 41.6112787,72.8860797 41.6112787,73.2852534 C41.6112787,73.6844272 41.2885681,74.0078085 40.8902223,74.0078085 L38.4130267,74.0078085 C38.0146808,74.0078085 37.6919703,73.6844272 37.6919703,73.2852534 C37.6919703,72.8860797 38.0146808,72.5624177 38.4130267,72.5624177 Z M23.997866,72.2730588 C24.3962118,72.2730588 24.7189224,72.5967208 24.7189224,72.9958946 C24.7189224,73.3950683 24.3962118,73.7184496 23.997866,73.7184496 L21.5206704,73.7184496 C21.1223246,73.7184496 20.799614,73.3950683 20.799614,72.9958946 C20.799614,72.5967208 21.1223246,72.2730588 21.5206704,72.2730588 L23.997866,72.2730588 Z M11.074072,10 L22.260805,10 C23.2074447,10 23.6898669,11.139429 23.0253986,11.8086175 L11.8659725,23.013003 C11.192402,23.6912346 10.0364092,23.220994 10.0364092,22.2714698 L10,11.0670843 C10,10.4792836 10.4733199,10 11.074072,10 Z M48.9429517,50 L37.7398875,50 C36.7926366,50 36.3099029,48.860571 36.9748002,48.1913825 L48.1323235,36.986997 C48.8063289,36.3087654 49.962977,36.779006 49.962977,37.7285302 L49.9995008,48.9329157 C50.0177172,49.5207164 49.5349835,50 48.9429517,50 Z M11.6646386,40.306587 L40.313945,11.6643035 C42.5334631,9.44523216 46.125578,9.44523216 48.3353614,11.6643035 C50.5548795,13.8832776 50.5548795,17.4744146 48.3353614,19.6837536 L19.686055,48.3357695 C17.4762716,50.5547435 13.874422,50.5547435 11.6646386,48.3357695 C9.44512047,46.1166981 9.44512047,42.5255611 11.6646386,40.306587 Z" id="Shape" fill="#222852"></path>
            </g>
        </g>
    </g>
</svg>