<svg xmlns="http://www.w3.org/2000/svg" width="22" height="22" viewBox="0 0 22 22">
  <path fill="#303030" d="M345.002454,3317.35948 C341.880982,3317.35948 339.36319,3319.87783 339.36319,3323 C339.36319,3326.12217 341.880982,3328.64052 345.002454,3328.64052 C348.123926,3328.64052 350.641718,3326.12217 350.641718,3323 C350.641718,3319.87783 348.123926,3317.35948 345.002454,3317.35948 Z M345.002454,3326.66708 C342.985276,3326.66708 341.336196,3325.02254 341.336196,3323 C341.336196,3320.97746 342.980368,3319.33292 345.002454,3319.33292 C347.02454,3319.33292 348.668712,3320.97746 348.668712,3323 C348.668712,3325.02254 347.019632,3326.66708 345.002454,3326.66708 Z M352.18773,3317.12875 C352.18773,3317.8602 351.598773,3318.44438 350.872393,3318.44438 C350.141104,3318.44438 349.557055,3317.85529 349.557055,3317.12875 C349.557055,3316.40221 350.146012,3315.81312 350.872393,3315.81312 C351.598773,3315.81312 352.18773,3316.40221 352.18773,3317.12875 Z M355.922699,3318.46402 C355.839264,3316.70166 355.43681,3315.14058 354.146012,3313.8544 C352.860123,3312.56822 351.299387,3312.16568 349.537423,3312.07732 C347.721472,3311.97423 342.278528,3311.97423 340.462577,3312.07732 C338.705521,3312.16077 337.144785,3312.56332 335.853988,3313.84949 C334.56319,3315.13567 334.165644,3316.69675 334.077301,3318.45911 C333.974233,3320.27547 333.974233,3325.71963 334.077301,3327.53598 C334.160736,3329.29834 334.56319,3330.85942 335.853988,3332.1456 C337.144785,3333.43178 338.700613,3333.83432 340.462577,3333.92268 C342.278528,3334.02577 347.721472,3334.02577 349.537423,3333.92268 C351.299387,3333.83923 352.860123,3333.43668 354.146012,3332.1456 C355.431902,3330.85942 355.834356,3329.29834 355.922699,3327.53598 C356.025767,3325.71963 356.025767,3320.28037 355.922699,3318.46402 Z M353.576687,3329.48488 C353.193865,3330.44706 352.452761,3331.18833 351.48589,3331.57615 C350.038037,3332.15051 346.602454,3332.01796 345.002454,3332.01796 C343.402454,3332.01796 339.961963,3332.1456 338.519018,3331.57615 C337.557055,3331.19324 336.815951,3330.45197 336.428221,3329.48488 C335.853988,3328.03671 335.986503,3324.60036 335.986503,3323 C335.986503,3321.39964 335.858896,3317.95838 336.428221,3316.51512 C336.811043,3315.55294 337.552147,3314.81167 338.519018,3314.42385 C339.966871,3313.84949 343.402454,3313.98204 345.002454,3313.98204 C346.602454,3313.98204 350.042945,3313.8544 351.48589,3314.42385 C352.447853,3314.80676 353.188957,3315.54803 353.576687,3316.51512 C354.15092,3317.96329 354.018405,3321.39964 354.018405,3323 C354.018405,3324.60036 354.15092,3328.04162 353.576687,3329.48488 Z" transform="translate(-334 -3312)"/>
</svg>
