<svg xmlns="http://www.w3.org/2000/svg" width="28" height="22" viewBox="0 0 28 22">
  <path fill="#303030" d="M272.121895,3317.48279 C272.139669,3317.72341 272.139669,3317.96407 272.139669,3318.20469 C272.139669,3325.54372 266.365576,3334 255.812214,3334 C252.56092,3334 249.540627,3333.08902 247,3331.50784 C247.461947,3331.55937 247.906066,3331.57656 248.385787,3331.57656 C251.068492,3331.57656 253.53808,3330.70003 255.510174,3329.20471 C252.98732,3329.15313 250.873093,3327.5547 250.144653,3325.35468 C250.500014,3325.40621 250.85532,3325.4406 251.228454,3325.4406 C251.743667,3325.4406 252.258935,3325.37183 252.738601,3325.25157 C250.109161,3324.7359 248.137012,3322.50155 248.137012,3319.80312 L248.137012,3319.73439 C248.900945,3320.14689 249.789347,3320.4047 250.730905,3320.43904 C249.185212,3319.44214 248.172559,3317.7406 248.172559,3315.81559 C248.172559,3314.78436 248.456771,3313.83904 248.954265,3313.01404 C251.779159,3316.38278 256.025387,3318.58275 260.786773,3318.82341 C260.69796,3318.41091 260.644639,3317.98127 260.644639,3317.55157 C260.644639,3314.49216 263.20304,3312 266.38324,3312 C268.03552,3312 269.527893,3312.67031 270.576147,3313.75312 C271.873066,3313.51251 273.116719,3313.04843 274.218294,3312.4125 C273.791839,3313.70159 272.885773,3314.78441 271.69544,3315.47186 C272.850281,3315.35161 273.969574,3315.04216 275,3314.61252 C274.218403,3315.71247 273.241188,3316.69212 272.121895,3317.48279 Z" transform="translate(-247 -3312)"/>
</svg>
