<svg version="1" xmlns="http://www.w3.org/2000/svg" width="346.667" height="346.667" viewBox="0 0 260.000000 260.000000"><path d="M48.5 1.5C25.3 5.8 8.9 20.7 2.3 43.5.7 48.9.5 56.9.2 125c-.3 78.5-.1 85.3 3.9 96.7 5 14.7 17.9 28 32.3 33.6 11.6 4.4 16.2 4.6 93.1 4.7 44.1 0 75.6-.4 79.5-1 26.9-4.2 45.8-23.1 50-50 1.6-10.5 1.3-150.7-.4-160-1.8-9.8-4.3-16.3-9.3-23.6-9.2-13.3-21.2-20.9-38.3-24C200.4-.5 58.9-.4 48.5 1.5zM102.1 55c1 .6 1.9 1.8 1.9 2.8 0 2.7-44.3 46.5-46.6 46-1.5-.2-2-1.5-2.5-6.3-.9-8.5-1-39.8-.1-41.1.4-.6 1.4-1.4 2.2-1.7 2.8-1 43-.7 45.1.3zm91.4 1.8c10.3 5 14.8 18 9.6 27.8-2.5 4.9-114.3 116.6-118.9 118.9-1.9.9-5.7 1.6-8.7 1.6-14.8 0-24.3-13.9-19.6-28.6 1.1-3.3 11.5-14.2 56-58.8 30-30.2 56.3-56.3 58.5-58 6.8-5.4 15.7-6.6 23.1-2.9zm10.9 100.4c.3.7.7 11.1 1 23 .6 20.9.5 21.9-1.4 23.8-1.9 1.9-3.3 2-23.1 2-12.6 0-21.8-.4-23-1-4.2-2.3-2.3-5 19.8-27.2 15.8-15.8 22.4-21.8 24.1-21.8 1.2 0 2.4.6 2.6 1.2z"/></svg>