<svg xmlns="http://www.w3.org/2000/svg" width="100" height="35" viewBox="0 0 100 35">
  <g fill="#738395" fill-rule="evenodd" transform="rotate(90 50 50)">
    <path d="M13.657162 99.9724895L28.8141065 99.9724895 28.8141065 76.9719729C28.8141065 76.4888279 28.5174815 76.0455925 28.1425602 75.8573781L27.7619028 75.7053923C27.7546435 75.7025186 27.7413889 75.696093 27.735588 75.693639 27.7298519 75.6912496 27.7177963 75.6865999 27.7096944 75.6814982L28.8141065 75.6814982 28.8141065 66.5723926C28.8141065 66.2311915 28.6567361 65.9465612 28.481963 65.7648046 28.1634306 65.4336132 27.8682315 65.4032935 27.7478056 65.3198579L28.8141065 65.3198579 28.8141065 57.8048434C28.8141065 56.734259 27.8104815 56.0209881 26.8718981 56.0209881L13.3905787 56.0209881 13.3905787 58.9055215C13.3905787 59.1478851 13.4501759 59.2383274 13.4667361 59.4369067 13.7564907 59.3597998 14.0518194 58.677785 15.5994028 58.677785 16.640588 58.677785 17.6318981 58.6023894 18.4087685 59.3697449 19.2891481 60.2393607 18.7942546 60.0441718 20.4358843 60.0441718 21.3244954 60.0441718 22.2131065 60.0441718 23.1017176 60.0441718 23.6532593 60.0441718 24.2837454 59.997094 24.534125 60.6281563 24.5960556 60.7842428 24.6630741 60.9876332 24.6630741 61.1828221L24.6630741 65.0162415 19.2553148 65.0162415C19.1130787 65.0162415 18.7079537 65.5391024 18.4993472 65.7050694 18.0725741 66.0446238 17.5695139 66.4585082 16.7799398 66.4585082 15.6149907 66.4585082 14.6875231 66.6142719 13.7325093 65.8899903 13.2916713 65.5556022 13.3905787 65.1011947 13.3905787 67.9387472 13.3905787 69.271424 14.8002361 69.0773975 15.6374491 69.0773975L22.4162037 69.0773975C22.9342685 69.0773975 23.6272361 69.0134001 24.0221852 69.1468195 24.3776296 69.2668712 24.6630741 69.7434291 24.6630741 70.2160155L24.6630741 76.0990313 13.4667361 76.0990313C13.3789769 76.0990313 13.3525 76.125444 13.3525 76.2128511L13.3525 78.9456248C13.3525 80.3113335 14.6075093 80.160155 15.5232454 80.160155L22.378125 80.160155C22.8657593 80.160155 23.6660602 80.0817242 24.0165463 80.2352276 24.3747778 80.392186 24.6250278 80.8204391 24.6250278 81.3367452L24.6250278 95.038392C24.6250278 95.6043268 24.1914167 95.9492735 23.7491204 95.9492735L12.55275 95.9492735 12.55275 98.9097514C12.55275 99.5594769 13.1072731 99.9724895 13.657162 99.9724895M15.7897963 55.3378108L28.8141065 55.3378108 28.8141065 44.0273168C28.8141065 43.9398773 28.8406157 43.9134646 28.928375 43.9134646L34.983537 43.9134646 34.983537 42.213174C34.958162 41.760155 34.8933148 41.338166 34.7428472 41.0410397 34.4712407 40.5047142 34.5516435 40.613949 34.1369583 40.2025831 33.6844537 39.7536971 32.8398519 39.5106878 31.9369167 39.5106878L13.4667361 39.5106878C13.3789769 39.5106878 13.3525 39.5371004 13.3525 39.6245722L13.3525 53.1743946C13.3525 53.5223442 13.4394167 53.8608008 13.5619167 54.1043268 13.9706389 54.9171456 14.8704954 55.3378108 15.7897963 55.3378108zM17.5230093 50.0309655L17.5230093 44.6361963C17.5230093 44.0986761 17.9643981 43.6588957 18.5038519 43.6588957L24.0360556 43.6588957C24.5755417 43.6588957 25.016963 44.0986761 25.016963 44.6361963L25.016963 50.0309655C25.016963 50.5684856 24.5755417 51.0082661 24.0360556 51.0082661L18.5038519 51.0082661C17.9643981 51.0082661 17.5230093 50.5684856 17.5230093 50.0309655zM15.6002778 38.4957055L22.9502454 38.4957055 22.9502454 35.9147885C22.9502454 35.3214401 22.6023519 34.7036487 22.2428241 34.4564417 21.6997407 34.0829512 21.3536296 34.055021 20.4748704 34.055021 19.7508241 34.055021 19.0267454 34.0545689 18.3027315 34.0564417 17.6568194 34.0581208 17.1997778 33.5760413 17.1997778 32.9543429L17.1997778 27.6406845C17.1997778 27.2340006 17.3913704 26.9277365 17.6078194 26.7189861 17.7912778 26.5420407 18.2238519 26.3502099 18.5707083 26.3502099L23.3310648 26.3502099C23.891162 26.3502099 24.3500509 26.6138521 24.5512361 27.1078463 24.7340463 27.5567323 24.6639815 28.3489829 24.6639815 28.9690991L24.6639815 34.8900226C24.6639815 36.1397159 24.422125 37.2162738 25.4956852 38.0084275 26.3666019 38.6510494 27.6477639 38.4957055 28.8149815 38.4957055L28.8149815 24.186826C28.8149815 23.1836939 27.7065833 22.3270262 26.9108843 22.3270262L24.9506574 22.3270262C24.7866111 22.4271876 24.6100556 22.5310946 24.3875463 22.6579916 23.7619861 23.0148208 23.0594259 23.2504682 22.3837315 23.5582499 21.7186991 23.8611882 21.2617546 23.7302874 20.7758704 23.2412012 20.605537 23.0697449 20.3900278 22.7173071 20.1845324 22.3270262L17.1393056 22.3270262C16.9789537 22.4526962 16.8212269 22.5779141 16.6697222 22.7025186 16.0525231 23.2101711 15.2323565 23.8079109 14.5824583 24.3058767 14.220662 24.5830804 13.8054907 24.9094285 13.353375 25.2441072L13.353375 36.4082015C13.353375 37.6506296 14.5105787 38.4957055 15.6002778 38.4957055zM22.8754167 22.7048658C22.9088696 22.6738658 22.9422328 22.6426658 22.9754167 22.6113658 22.9422328 22.6426658 22.9088696 22.6738658 22.8754167 22.7048658zM22.9488843 22.6734139C22.9823561 22.6427139 23.0156433 22.6120139 23.0488843 22.5810139 23.0156433 22.6120139 22.9823561 22.6427139 22.9488843 22.6734139zM23.0228704 22.6401359C23.0563163 22.6103359 23.0896657 22.5804359 23.1228704 22.5504359 23.0896657 22.5804359 23.0563163 22.6103359 23.0228704 22.6401359zM23.0924491 22.6139664C23.12589 22.5823664 23.1592387 22.5504664 23.1924491 22.5185664 23.1592387 22.5504664 23.12589 22.5823664 23.0924491 22.6139664zM23.163875 22.5832551C23.1973166 22.5512551 23.2307117 22.5192551 23.263875 22.4869551 23.2307117 22.5191551 23.1973166 22.5512551 23.163875 22.5832551zM23.2337778 22.5524314C23.2672362 22.5203314 23.3006009 22.4880314 23.3337778 22.4557314L23.2337778 22.5524314zM23.3046204 22.5183367C23.3381012 22.4872367 23.3714345 22.4560367 23.4046204 22.4246367 23.3714345 22.4560367 23.3381012 22.4872367 23.3046204 22.5183367zM23.3749444 22.4595738C23.420088 22.4264453 23.4648102 22.3931119 23.5092083 22.3595738 23.4648102 22.3931119 23.420088 22.4264453 23.3749444 22.4595738zM23.5101157 22.4265262C23.5435782 22.3934262 23.5769438 22.3603262 23.6101157 22.3270262 23.5769438 22.3603262 23.5435782 22.3934262 23.5101157 22.4265262z"/>
    <path d="M17.0846019 93.7099774C17.7641852 93.7099774 18.1574815 93.5525993 18.6541898 93.2247013L19.016375 92.9404585C19.4333935 92.5893122 19.7884815 91.7167259 19.7884815 91.0910881 19.7884815 90.3769131 19.5103287 89.7319987 19.0562361 89.2399419 18.1642546 88.2734905 16.6009213 88.1375202 15.4519491 89.0463997 15.3735556 89.1084275 15.339463 89.1268001 15.2646343 89.2013562 15.1809907 89.2847594 15.0558657 89.4421376 14.9893657 89.534259 14.2905972 90.5025831 14.3525278 91.9637714 15.0946898 92.7327414 15.3443241 92.9914433 15.5843333 93.2768163 16.0061481 93.4563771 16.3622407 93.6079755 16.6932176 93.7099774 17.0846019 93.7099774M15.9421111 65.2060058C18.971588 65.2060058 19.5802963 61.3241524 17.1109167 60.1697449 15.3290278 59.3367452 13.3905787 60.8015176 13.3905787 62.3214724 13.3905787 63.0532128 13.3425185 63.1271553 13.6823426 63.8145302 13.8514444 64.156474 13.8889398 64.1294801 14.0595 64.3495964 14.2549491 64.6017759 14.6403704 64.8582499 14.9463935 64.9838553 15.257537 65.1115273 15.5504352 65.2060058 15.9421111 65.2060058M17.122713 88.2065547C17.2653704 88.2065547 17.5753148 88.1608331 17.6953843 88.1320633 20.1653796 87.5404908 20.5148611 84.3563448 18.3675787 83.2083629 17.6665417 82.8335809 16.6474583 82.8340329 15.940912 83.1953503 15.6484352 83.3449144 15.4547037 83.5133032 15.2277546 83.7370358 14.2365417 84.714175 14.2427963 86.3743623 15.2850185 87.4191799 15.4824444 87.6171456 15.7711944 87.8370681 16.0503194 87.9469164 16.2066204 88.0083952 16.330287 88.0662577 16.5274861 88.1165967 16.6615231 88.1507911 16.9854676 88.2065547 17.122713 88.2065547M32.2415787 76.3647078C33.104912 76.3647078 33.6493241 76.1517598 34.231588 75.5773006 34.6906065 75.1244753 34.9434491 74.5389409 34.983537 73.9339038L34.983537 73.5912173C34.9434167 72.98505 34.6906065 72.3806587 34.2180417 71.8898612 33.8247454 71.4814014 33.1729676 71.1269616 32.5843194 71.1269616 31.7217315 71.1269616 31.1422546 71.2108169 30.4989352 71.8572167 29.7668519 72.5928318 29.728125 73.1262189 29.728125 74.0494349 29.728125 74.7096222 30.2980741 75.5775912 30.8574583 75.9223119 31.2699722 76.1764934 31.6919491 76.3647078 32.2415787 76.3647078M32.3177361 70.8612851C32.9171435 70.8612851 33.3849769 70.6893768 33.8345324 70.3992896L34.1936065 70.1119148C34.383838 69.9457217 34.6115972 69.5921537 34.7300787 69.3561834 34.8757176 69.0662254 34.9586481 68.7557314 34.983537 68.4418792L34.983537 68.0338392C34.9165833 67.1846626 34.435787 66.3649338 33.6250509 65.9146916 32.7780185 65.4442364 31.5507824 65.5129157 30.777412 66.1 30.4605972 66.3404585 30.5653704 66.253794 30.3458426 66.5048757 29.6432176 67.3084921 29.5197454 68.4670649 29.9943843 69.4192767 30.2484583 69.9289635 30.7419583 70.4186632 31.2829352 70.640071 31.5438472 70.7468841 31.9389907 70.8612851 32.3177361 70.8612851M34.1838194 63.4600904L34.983537 63.4600904C34.983537 63.1062318 34.3443657 59.4250242 34.3361343 59.0573458L33.4602269 59.0573458C33.4602269 59.440071 33.6945648 60.848434 33.7705602 61.2910236 33.8326852 61.6525347 33.8722546 62.0369713 33.9339259 62.4186632L34.06025 63.2416532C34.0757731 63.3691637 34.047125 63.4600904 34.1838194 63.4600904M14.5824583 24.3058767C15.2323565 23.8079109 16.0525231 23.2101711 16.6697222 22.7025186 17.1329213 22.321537 17.6543889 21.9350339 18.1301944 21.5461091 18.320912 21.3902163 18.5289352 21.2311269 18.7158287 21.0748789 19.1202083 20.7368098 18.9487407 20.87165 19.5287361 20.847207 19.6882454 21.3551824 20.3641991 22.8268001 20.7758704 23.2412012 21.2617546 23.7302874 21.7186991 23.8611882 22.3837315 23.5582499 23.0594259 23.2504682 23.7619861 23.0148208 24.3875463 22.6579916 24.9468333 22.3390055 25.2159769 22.1651921 25.7254213 21.8317081L26.1509306 21.5363901C26.2424815 21.7115273 26.3446944 21.825896 26.5230648 21.9181789 26.639213 21.9782693 26.6820231 21.9478205 26.8144398 21.9121085 27.5487593 21.7138844 28.49875 21.2841459 29.1785926 20.9525993 30.1521759 20.4778172 31.1010972 19.9328059 32.015537 19.3601873 32.4692083 19.0761382 33.1107778 18.6243461 33.5039769 18.2656442 33.5731343 18.2025509 33.6145833 18.1304488 33.6776481 18.0676461 33.5216065 14.9958993 32.0221157 9.39086212 31.0578009 6.73584114 30.8816667 6.25915402 30.3934491 4.8773329 30.0529769 4.62347433 29.7514583 4.39874072 29.2762037 4.16047788 28.9307731 3.99983855 28.8093102 3.94333226 28.5512824 3.84824023 28.4561667 3.78753633 28.13125 3.58014207 28.2281806 3.36057475 27.5958796 3.25524701 27.4003333 3.2226671 27.2006713 3.18950597 27.0051574 3.15699064 26.3331898 3.04526962 26.3571389 3.19886987 26.3183148 3.0033258 26.1335602 2.1634485 25.9069028 1.14914433 25.3896806.578301582 25.1577083.322279625 24.8966667.126186632 24.5040185.125637714 23.3804213.123990959 22.3168426.257022925 21.2971111.896997094 21.1648241.980012916 21.0694167 1.06855021 20.9619537 1.14317081 20.9000231 1.05760413 20.2755324.450855667 20.1498889.327865676 19.7227593-.0934452696 19.1041019.00229254117 18.5472778.182563771 18.0870602.331546658 17.8150972.451243139 17.3876759.66806587 16.4058287 1.16609622 15.1449537 2.36302874 14.6270509 3.40871811 14.4325417 3.8015176 14.4571713 3.83974814 14.3338935 4.20342267 14.1855324 4.11223765 14.0180509 3.99987084 13.8641157 3.89586697 13.535213 3.6737165 12.7040926 3.19357443 12.3656296 3.0287052 12.0219815 2.86128511 11.6711065 2.67029383 11.3052917 2.51168873 10.170125 2.0196319 9.04040278 1.56160801 7.79851852 1.2839845 7.35453704 1.18472716 6.98360185 1.06738779 6.503875 1.00216338 6.03954167.939070068 4.74227315.898546981 4.25917593 1.04620601 4.09234259 1.09719083 3.46749537 1.54559251 3.30516667 1.66935744 2.99418519 1.90642557 2.73055093 2.13077171 2.45515278 2.39609299.591564815 4.19157249-.0753148148 5.56315789.0404444444 8.62880207.0655601852 10.0123991.614703704 9.83015822 1.75615741 9.98482402 5.061 10.4325799 8.50328241 11.3308363 11.6243102 12.2711011 12.2220324 12.4511786 14.6735556 13.2048111 15.2610046 13.5521795L15.3428657 13.6083952C15.3401111 13.6096545 15.3492176 13.6142396 15.3522315 13.6173071 15.2949352 13.7190184 15.1729537 13.7865676 15.0468889 13.8702615 14.9405926 13.940846 14.8429815 14.0049726 14.7248565 14.0849532 14.1503056 14.4740071 13.2939074 14.9569583 12.6833194 15.315402 12.2206713 15.5869874 11.0359213 16.239619 10.5664676 16.4711334 10.3294074 16.588053 10.0926389 16.7172102 9.86105556 16.8399096 8.91718981 17.340071 7.94743056 17.8273813 6.97371759 18.2984501 5.50164352 19.0106555 4.03501389 19.7203746 2.531375 20.3843397 2.41010648 20.4379077 2.24985185 20.4932838 2.14319907 20.5499193 1.43214815 20.9537294 1.76584722 21.9674201 2.03379167 22.5802389 2.41603704 23.4544398 3.15696759 24.0992573 3.81182407 24.7755893 4.8426713 25.7030998 5.97025463 26.4437843 7.22448611 27.0679044 9.66239815 28.2810462 12.7820972 25.6853407 14.5824583 24.3058767zM.914699074 8.99780433C2.42929167 9.12163384 3.95525926 9.42466903 5.40925 9.7087504 6.83076852 9.98650307 8.23083333 10.35938 9.60085648 10.7215047 11.1849954 11.1402325 13.0223333 11.7068453 14.5666759 12.2522118 14.8698796 12.3593155 15.2431481 12.476558 15.5118056 12.6157249 16.1931713 12.9687439 16.6286944 13.4700678 16.1172083 14.166968 15.9535509 14.389958 15.6726111 14.5841137 15.4115046 14.7531159 13.9488287 15.699774 12.8599722 16.3119148 11.301338 17.1522764 9.76380093 17.9812399 7.69682407 19.0245722 6.11028704 19.765289 5.00218056 20.2826284 3.6684213 20.9500161 2.54702778 21.4006135 2.70614815 22.0726187 3.240125 22.8463997 3.6876713 23.359929 4.53551389 24.3328059 5.88421296 25.2781078 6.98353704 25.8680982 7.31584259 26.0464643 7.79203704 26.3528576 8.19800463 26.4327414 8.68683796 26.5289635 9.31790741 26.3875363 9.77002315 26.2732322 10.3840463 26.1180174 11.0055231 25.6821763 11.5260833 25.3451727 11.7078889 25.2275105 11.8706389 25.1080077 12.0562037 24.986051 12.4139167 24.7509525 12.7538056 24.4905069 13.095963 24.2474976 14.4109907 23.3136584 15.854125 22.1544398 17.1325648 21.1548595L18.3616481 20.1697126C18.5034306 20.050888 18.5242037 20.0111721 18.6561343 20.0111721 18.8836019 20.0079109 18.9153935 20.0052954 19.128375 19.974556 18.4829167 18.2968356 17.5134167 14.0362932 17.347588 11.8980626 17.2134861 10.1686794 17.6964537 10.4277688 18.8708981 10.3333871 18.5593981 9.74087827 18.0272685 8.983371 17.6070093 8.45311592 17.3343657 8.10913788 17.1433241 7.90329351 16.8844213 7.59890216L16.6244167 7.32253794C16.4387546 7.12331288 15.7398889 6.46063933 15.5360139 6.29786891L14.9580926 5.81917985C14.08225 5.14300936 13.4184167 4.69502745 12.4289537 4.13719729 11.0963611 3.38595415 9.48325 2.70177591 7.96165741 2.27749435 7.05797685 2.02547627 5.71712037 1.6395867 4.80187037 1.85544075 4.61261111 1.90009687 4.57731944 1.94145948 4.4384213 2.0280917 4.00575 2.29793348 3.56309722 2.61711334 3.22563889 2.92893122 3.17699537 2.97391024 3.13528704 2.99670649 3.08981944 3.04526962 3.03453241 3.10435906 3.00640278 3.12667097 2.95244444 3.17607362 2.85564352 3.26474007 2.77310185 3.34824023 2.68615278 3.44662577 2.4976713 3.65989667 2.38790741 3.7549887 2.19825926 4.01517598 1.89593056 4.42996448 1.64956944 4.79980626 1.41017593 5.33890862.829435185 6.64685179.871791667 7.62980304.914699074 8.99780433zM29.7461111 17.3219244L29.7460463 12.5792703C29.5864398 12.7563771 29.2895556 13.2119148 29.017463 13.5111721 28.6464954 13.9191476 28.4794028 13.5699709 28.4693565 13.3165967 28.4498796 12.8235066 28.8246713 12.4983855 29.0466944 12.2177914 29.9459352 11.0814659 30.5302083 10.8028737 29.9401019 9.0882144 29.5137824 7.84940265 29.2607778 7.04507588 28.7343194 5.81979335 28.6107824 5.53216015 28.1621343 4.50009687 28.0248889 4.30058121 27.8709861 4.07678398 27.7115741 3.90642557 27.3479954 3.85279303 27.0357176 3.80671618 26.7033148 3.73219244 26.3919444 3.69644818 26.6678287 4.83651921 27.1831065 7.67726832 26.943713 8.83364546 26.7891296 9.58001292 25.7233472 10.3138844 25.0080509 10.3851146 25.0156019 10.6801098 25.0219537 10.9832418 24.9972917 11.2753633 24.9673796 11.6297385 24.9092083 11.700226 24.7544954 11.9419761 24.5539259 12.2552147 24.2025648 12.7504682 23.8669537 12.8621569 23.9212037 13.3021957 23.9978796 13.7388763 24.0454861 14.1905392 24.1205417 14.9020342 24.3036435 17.137617 24.0796111 17.7471424 24.0352454 17.8678076 23.7914769 18.1086858 23.6171574 17.949661 23.4869769 17.8309009 23.4421574 17.5814014 23.4419954 17.3216984 23.4409583 15.6249273 23.6226019 11.0208589 21.1437269 11.0914756 20.8927639 11.0986116 20.6290648 11.0823377 20.3708426 11.0889893 18.4097407 11.1864062 17.8580046 10.7680982 18.0240926 12.372651 18.2359398 15.310042 19.6936898 19.7818211 20.9605602 22.3704553 21.1125509 22.6810785 21.3772546 23.1446884 21.781375 23.0770423 21.9695648 23.0455279 22.1553889 22.9317404 22.3226111 22.8608976 22.5043519 22.7839522 22.6945185 22.7165644 22.8754167 22.6415563 24.4381019 21.9934776 25.5587176 21.1943171 26.6456296 20.3207297 26.7903935 20.2043591 26.9156157 20.0868582 27.0563935 19.9766871 27.0944398 19.9469164 27.115375 19.9204391 27.1529352 19.8896028L27.6582963 19.438618C27.8388056 19.2859219 28.0751528 19.0425896 28.2506065 18.8737488L29.7461111 17.3219244zM19.5322037 10.2478205C20.4117731 10.2727155 21.3974444 10.1433 22.3050139 10.3917662 22.5190324 10.4503713 22.6559537 10.5470455 22.7965046 10.6560542 22.8955741 10.7329028 23.0778009 10.9447853 23.1484167 11.0582176 23.3080231 11.3144656 23.5077176 11.8546335 23.6135602 12.012496L24.3760093 11.1460768C25.0483009 10.3548273 20.808213.499225057 19.164412.964514046 17.4309398 1.45521472 15.6288287 2.78572812 15.1829676 4.61640297 15.154838 4.73186955 15.1690324 4.72935098 15.233912 4.7906361L16.9468056 6.63325799C17.1614398 6.91110752 17.4376806 7.22021311 17.6841389 7.53919923 18.0060741 7.95586051 18.3033472 8.35062964 18.6116065 8.79150791 18.8061157 9.06971263 19.4022824 9.9806587 19.5322037 10.2478205zM24.8514907 9.72667097C25.4874537 9.76419115 26.1907593 9.16483694 26.427463 8.38472716 26.6524676 7.64313852 25.8207639.62392638 24.3426944.667936713 23.2748704.699709396 21.7738565 1.07336132 21.2887824 1.64859541 22.1989769 2.73984501 24.4850602 8.07132709 24.8514907 9.72667097z"/>
    <path d="M27.8971065,20.1187924 C29.3815278,19.4434614 30.5634907,18.8183403 32.4008287,17.5904424 C31.9246991,14.3867937 31.4821759,12.1375525 30.7707361,10.0892154 C30.7707361,11.0984501 30.6884537,11.1953503 30.1153287,11.9812722 L30.3506065,12.2324185 L30.3674259,17.6072005 L27.8971065,20.1187924"/>
  </g>
</svg>
