<svg xmlns="http://www.w3.org/2000/svg" width="110" height="25" viewBox="0 0 110 25">
  <g fill="#221F1F">
    <path d="M76.25 5C76.9565217 5 77.5 4.45652174 77.5 3.75 77.5 3.04347826 76.9565217 2.5 76.25 2.5 75.5434783 2.5 75 3.04347826 75 3.75 75 4.45652174 75.5978261 5 76.25 5M47.5 5C48.2065217 5 48.75 4.45652174 48.75 3.75 48.75 3.04347826 48.2065217 2.5 47.5 2.5 46.7934783 2.5 46.25 3.04347826 46.25 3.75 46.25 4.45652174 46.7934783 5 47.5 5M45 5C45.7065217 5 46.25 4.45652174 46.25 3.75 46.25 3.04347826 45.7065217 2.5 45 2.5 44.2934783 2.5 43.75 3.04347826 43.75 3.75 43.75 4.45652174 44.2934783 5 45 5M12.5017162 5C13.2072679 5 13.75 4.45652174 13.75 3.75 13.75 3.04347826 13.2072679 2.5 12.5017162 2.5 11.7961645 2.5 11.2534324 3.04347826 11.2534324 3.75 11.1991592 4.45652174 11.7961645 5 12.5017162 5"/>
    <path d="M10 5C10.7065217 5 11.25 4.45652174 11.25 3.75 11.25 3.04347826 10.7065217 2.5 10 2.5 9.29347826 2.5 8.75 3.04347826 8.75 3.75 8.75 4.45652174 9.34782609 5 10 5M82.5 22.5C81.7934783 22.5 81.25 23.0434783 81.25 23.75 81.25 24.4565217 81.7934783 25 82.5 25 83.2065217 25 83.75 24.4565217 83.75 23.75 83.75 23.0434783 83.2065217 22.5 82.5 22.5M78.75 22.5C78.0434783 22.5 77.5 23.0434783 77.5 23.75 77.5 24.4565217 78.0434783 25 78.75 25 79.4565217 25 80 24.4565217 80 23.75 80 23.0434783 79.4565217 22.5 78.75 22.5M38.75 22.5C38.0434783 22.5 37.5 23.0434783 37.5 23.75 37.5 24.4565217 38.0434783 25 38.75 25 39.4565217 25 40 24.4565217 40 23.75 40 23.0434783 39.4021739 22.5 38.75 22.5M35 22.5C34.2934783 22.5 33.75 23.0434783 33.75 23.75 33.75 24.4565217 34.2934783 25 35 25 35.7065217 25 36.25 24.4565217 36.25 23.75 36.25 23.0434783 35.6521739 22.5 35 22.5M108.331072 8.07017544C107.566147 8.07017544 106.940299 8.70175439 106.940299 9.47368421L106.940299 14.1754386C106.940299 15.6491228 105.688602 16.9122807 104.22829 16.8421053 97.4830393 16.4912281 91.224559 13.0526316 87.0522388 8.14035088L85.3833107 8.14035088C84.6183853 8.14035088 83.9925373 8.77192982 83.9925373 9.54385965L83.9925373 14.245614C83.9925373 15.7192982 82.8103799 16.9122807 81.3500678 16.9122807 79.8897558 16.9122807 78.7075984 15.7192982 78.7075984 14.245614L78.7075984 9.54385965C78.7075984 8.77192982 78.0817503 8.14035088 77.316825 8.14035088L75.6478969 8.14035088 75.6478969 8.98245614C74.8134328 8.49122807 73.9094301 8.28070175 72.8663501 8.28070175 69.6675712 8.28070175 67.0946404 10.877193 67.0946404 14.1052632 67.0946404 14.1754386 67.0946404 14.1754386 67.0946404 14.245614 67.0946404 15.7894737 65.7734057 16.9824561 64.243555 16.9122807 62.8527815 16.8421053 61.7401628 15.5789474 61.7401628 14.1052632L61.7401628.771929825C61.7401628.350877193 61.3924695 0 60.9752374 0L59.5149254 0C59.0976934 0 58.75.350877193 58.75.771929825L58.75 14.0350877C58.75 17.2631579 61.3229308 20 64.5217096 19.9298246 66.1210991 19.9298246 67.5814111 19.1578947 68.6244912 18.0350877 69.6675712 19.2280702 71.197422 19.9298246 72.8663501 19.9298246 74.5352782 19.9298246 75.9955902 19.2280702 77.108209 18.1052632 78.151289 19.2982456 79.6811398 20 81.3500678 20 84.479308 20 87.0522388 17.4035088 87.0522388 14.245614L87.0522388 12.4210526C92.7544098 17.5438596 102.072592 20.8421053 105.82768 19.7192982 108.191995 19.0175439 110 16.8421053 110 14.1754386L110 8.14035088 108.331072 8.07017544zM72.9358887 16.7719298C71.4755767 16.7719298 70.2238806 15.5789474 70.1543419 14.1052632 70.1543419 14.1052632 70.1543419 14.1052632 70.1543419 14.1052632 70.1543419 14.1052632 70.1543419 14.0350877 70.1543419 14.0350877 70.1543419 12.4912281 71.406038 11.2280702 72.9358887 11.2280702 74.4657395 11.2280702 75.7174355 12.4912281 75.7174355 14.0350877 75.7174355 15.5789474 74.4657395 16.7719298 72.9358887 16.7719298zM48.2476158 9.49146167L48.2476158 14.1541906C48.2476158 15.6156429 47.0606267 16.7987234 45.594346 16.7987234 44.1280654 16.7987234 42.9410763 15.6156429 42.9410763 14.1541906L42.9410763 9.49146167C42.9410763 8.93471792 42.5919619 8.44756713 42.1032016 8.23878823 41.9635559 8.16919526 41.7540872 8.09960229 41.5446185 8.09960229L39.8688692 8.09960229 39.8688692 14.0845976C39.8688692 15.6156429 38.6120572 16.8683164 37.0061308 16.7987234 35.6794959 16.7291305 35.0510899 15.8940148 34.6321526 15.0588992 34.4925068 14.7109344 34.4226839 14.0845976 34.352861 13.5974468 34.2132153 12.9711101 33.9339237 12.1359945 33.1658719 11.1616929L29.8841962 7.26448666 35.1907357 2.25379289C35.4700272 1.97542101 35.5398501 1.48827023 35.1907357 1.20989835L34.2830381.235596784C34.0037466-.0427750927 33.5149864-.112368062 33.2356948.235596784L26.881812 6.22059212C26.3232289 6.77733588 26.253406 7.61245151 26.8119891 8.23878823 30.3031335 12.4839593 31.4901226 13.0407031 31.4901226 14.2237836 31.4901226 15.6156429 30.4427793 16.6595375 29.1859673 16.7987234 27.5800409 17.0075023 26.1835831 15.7548289 26.1835831 14.1541906L26.1835831 9.49146167C26.1835831 8.72593901 25.5551771 8.09960229 24.7871253 8.09960229L23.111376 8.09960229C18.9220027 13.0407031 12.7077657 16.3811656 5.86512262 16.7291305 4.39884196 16.9379094 3.07220708 15.6156429 3.07220708 14.1541906L3.07220708 9.49146167C3.07220708 8.72593901 2.44380109 8.09960229 1.67574932 8.09960229L0 8.09960229 0 14.1541906C0 16.7291305 1.74557221 18.9561055 4.1893733 19.6520352 7.88998638 20.7655227 17.3160763 17.4946531 23.0415531 12.4143664L23.0415531 14.1541906C23.0415531 17.2858742 25.4853542 19.7912211 28.76703 19.8608141 30.4427793 19.930407 31.9090599 19.0952914 32.8865804 18.0513969 34.0037466 19.3040703 35.5398501 19.930407 37.2155995 19.930407 38.8215259 19.930407 40.2878065 19.1648844 41.3351499 18.1209898 42.3824932 19.2344773 43.8487738 20 45.5245232 20 48.6665531 20 51.25 17.4250601 51.25 14.2933765L51.25 8.3083812 49.5742507 8.3083812C48.8760218 8.16919526 48.2476158 8.79553198 48.2476158 9.49146167"/>
  </g>
</svg>
