<?xml version="1.0" encoding="utf-8"?>
<!-- Generator: Adobe Illustrator 22.0.1, SVG Export Plug-In . SVG Version: 6.00 Build 0)  -->
<svg version="1.1" id="Layer_1" xmlns="http://www.w3.org/2000/svg" xmlns:xlink="http://www.w3.org/1999/xlink" x="0px" y="0px"
	 viewBox="0 0 154 60" style="enable-background:new 0 0 154 60;" xml:space="preserve">
<style type="text/css">
	.st0{clip-path:url(#SVGID_2_);fill:#221F1F;}
	.st1{clip-path:url(#SVGID_4_);fill:#221F1F;}
	.st2{clip-path:url(#SVGID_6_);fill:#221F1F;}
	.st3{clip-path:url(#SVGID_8_);fill:#221F1F;}
	.st4{clip-path:url(#SVGID_10_);fill:#221F1F;}
	.st5{clip-path:url(#SVGID_12_);fill:#221F1F;}
	.st6{clip-path:url(#SVGID_14_);fill:#221F1F;}
	.st7{clip-path:url(#SVGID_16_);fill:#221F1F;}
	.st8{clip-path:url(#SVGID_18_);fill:#221F1F;}
	.st9{clip-path:url(#SVGID_20_);fill:#221F1F;}
	.st10{clip-path:url(#SVGID_22_);fill:#221F1F;}
</style>
<g>
	<g>
		<defs>
			<rect id="SVGID_1_" x="-170.6" y="-161.9" width="531.6" height="375.9"/>
		</defs>
		<clipPath id="SVGID_2_">
			<use xlink:href="#SVGID_1_"  style="overflow:visible;"/>
		</clipPath>
		<path class="st0" d="M105.2,31.9c1.3,0,2.3-1,2.3-2.3s-1-2.3-2.3-2.3s-2.3,1-2.3,2.3S104,31.9,105.2,31.9"/>
	</g>
	<g>
		<defs>
			<rect id="SVGID_3_" x="-170.6" y="-161.9" width="531.6" height="375.9"/>
		</defs>
		<clipPath id="SVGID_4_">
			<use xlink:href="#SVGID_3_"  style="overflow:visible;"/>
		</clipPath>
		<path class="st1" d="M69.6,31.2c1.3,0,2.3-1,2.3-2.3c0-1.3-1-2.3-2.3-2.3s-2.3,1-2.3,2.3C67.3,30.2,68.3,31.2,69.6,31.2"/>
	</g>
	<g>
		<defs>
			<rect id="SVGID_5_" x="-170.6" y="-161.9" width="531.6" height="375.9"/>
		</defs>
		<clipPath id="SVGID_6_">
			<use xlink:href="#SVGID_5_"  style="overflow:visible;"/>
		</clipPath>
		<path class="st2" d="M64.3,31.2c1.3,0,2.3-1,2.3-2.3c0-1.3-1-2.3-2.3-2.3c-1.3,0-2.3,1-2.3,2.3C62,30.2,63,31.2,64.3,31.2"/>
	</g>
	<g>
		<defs>
			<rect id="SVGID_7_" x="-170.6" y="-161.9" width="531.6" height="375.9"/>
		</defs>
		<clipPath id="SVGID_8_">
			<use xlink:href="#SVGID_7_"  style="overflow:visible;"/>
		</clipPath>
		<path class="st3" d="M21,31.1c1.3,0,2.3-1,2.3-2.3c0-1.3-1-2.3-2.3-2.3s-2.3,1-2.3,2.3C18.6,30.1,19.7,31.1,21,31.1"/>
	</g>
	<g>
		<defs>
			<rect id="SVGID_9_" x="-170.6" y="-161.9" width="531.6" height="375.9"/>
		</defs>
		<clipPath id="SVGID_10_">
			<use xlink:href="#SVGID_9_"  style="overflow:visible;"/>
		</clipPath>
		<path class="st4" d="M15.6,31.1c1.3,0,2.3-1,2.3-2.3c0-1.3-1-2.3-2.3-2.3c-1.3,0-2.3,1-2.3,2.3C13.3,30.1,14.4,31.1,15.6,31.1"/>
	</g>
	<g>
		<defs>
			<rect id="SVGID_11_" x="-170.6" y="-161.9" width="531.6" height="375.9"/>
		</defs>
		<clipPath id="SVGID_12_">
			<use xlink:href="#SVGID_11_"  style="overflow:visible;"/>
		</clipPath>
		<path class="st5" d="M115.4,54.4c-1.3,0-2.3,1-2.3,2.3c0,1.3,1,2.3,2.3,2.3c1.3,0,2.3-1,2.3-2.3C117.7,55.4,116.7,54.4,115.4,54.4
			"/>
	</g>
	<g>
		<defs>
			<rect id="SVGID_13_" x="-170.6" y="-161.9" width="531.6" height="375.9"/>
		</defs>
		<clipPath id="SVGID_14_">
			<use xlink:href="#SVGID_13_"  style="overflow:visible;"/>
		</clipPath>
		<path class="st6" d="M110.1,54.4c-1.3,0-2.3,1-2.3,2.3c0,1.3,1,2.3,2.3,2.3c1.3,0,2.3-1,2.3-2.3C112.4,55.4,111.4,54.4,110.1,54.4
			"/>
	</g>
	<g>
		<defs>
			<rect id="SVGID_15_" x="-170.6" y="-161.9" width="531.6" height="375.9"/>
		</defs>
		<clipPath id="SVGID_16_">
			<use xlink:href="#SVGID_15_"  style="overflow:visible;"/>
		</clipPath>
		<path class="st7" d="M57,54.4c-1.3,0-2.3,1-2.3,2.3c0,1.3,1,2.3,2.3,2.3c1.3,0,2.3-1,2.3-2.3C59.3,55.4,58.2,54.4,57,54.4"/>
	</g>
	<g>
		<defs>
			<rect id="SVGID_17_" x="-170.6" y="-161.9" width="531.6" height="375.9"/>
		</defs>
		<clipPath id="SVGID_18_">
			<use xlink:href="#SVGID_17_"  style="overflow:visible;"/>
		</clipPath>
		<path class="st8" d="M51.7,54.4c-1.3,0-2.3,1-2.3,2.3c0,1.3,1,2.3,2.3,2.3c1.3,0,2.3-1,2.3-2.3C54,55.4,52.9,54.4,51.7,54.4"/>
	</g>
	<g>
		<defs>
			<rect id="SVGID_19_" x="-170.6" y="-161.9" width="531.6" height="375.9"/>
		</defs>
		<clipPath id="SVGID_20_">
			<use xlink:href="#SVGID_19_"  style="overflow:visible;"/>
		</clipPath>
		<path class="st9" d="M150.8,34.4c-1.1,0-2,0.9-2,2l0,6.7c0,2.1-1.8,3.9-3.9,3.8c-9.7-0.5-18.7-5.4-24.7-12.4l-2.4,0
			c-1.1,0-2,0.9-2,2l0,6.7c0,2.1-1.7,3.8-3.8,3.8c-2.1,0-3.8-1.7-3.8-3.8l0-6.7c0-1.1-0.9-2-2-2l-2.4,0l0,1.2c-1.2-0.7-2.5-1-4-1
			c-4.6,0-8.3,3.7-8.3,8.3c0,0.1,0,0.1,0,0.2c0,2.2-1.9,3.9-4.1,3.8c-2-0.1-3.6-1.9-3.6-4v-19c0-0.6-0.5-1.1-1.1-1.1h-2.1
			c-0.6,0-1.1,0.5-1.1,1.1v18.9c0,4.6,3.7,8.5,8.3,8.4c2.3,0,4.4-1.1,5.9-2.7c1.5,1.7,3.7,2.7,6.1,2.7c2.4,0,4.5-1,6.1-2.6
			c1.5,1.7,3.7,2.7,6.1,2.7c4.5,0,8.2-3.7,8.2-8.2l0-2.6c8.2,7.3,21.6,12,27,10.4v0c3.4-1,6-4.1,6-7.9l0-8.6L150.8,34.4z M99.9,46.8
			c-2.1,0-3.9-1.7-4-3.8c0,0,0,0,0,0h0c0,0,0-0.1,0-0.1c0-2.2,1.8-4,4-4c2.2,0,4,1.8,4,4S102.1,46.8,99.9,46.8"/>
	</g>
	<g>
		<defs>
			<rect id="SVGID_21_" x="-170.6" y="-161.9" width="531.6" height="375.9"/>
		</defs>
		<clipPath id="SVGID_22_">
			<use xlink:href="#SVGID_21_"  style="overflow:visible;"/>
		</clipPath>
		<path class="st10" d="M70.2,36.3l0,6.7c0,2.1-1.7,3.8-3.8,3.8c-2.1,0-3.8-1.7-3.8-3.8l0-6.7c0-0.8-0.5-1.5-1.2-1.8
			c-0.2-0.1-0.5-0.2-0.8-0.2l-2.4,0l0,8.6c0,2.2-1.8,4-4.1,3.9c-1.9-0.1-2.8-1.3-3.4-2.5c-0.2-0.5-0.3-1.4-0.4-2.1
			c-0.2-0.9-0.6-2.1-1.7-3.5l-4.7-5.6l7.6-7.2c0.4-0.4,0.5-1.1,0-1.5L50.2,23c-0.4-0.4-1.1-0.5-1.5,0l-9.1,8.6l0,0
			c-0.8,0.8-0.9,2-0.1,2.9c5,6.1,6.7,6.9,6.7,8.6c0,2-1.5,3.5-3.3,3.7c-2.3,0.3-4.3-1.5-4.3-3.8l0-6.7c0-1.1-0.9-2-2-2l-2.4,0v0l0,0
			c-6,7.1-14.9,11.9-24.7,12.4C7.4,47,5.5,45.1,5.5,43l0-6.7c0-1.1-0.9-2-2-2l-2.4,0l0,8.7c0,3.7,2.5,6.9,6,7.9v0
			c5.3,1.6,18.8-3.1,27-10.4l0,2.5c0,4.5,3.5,8.1,8.2,8.2c2.4,0.1,4.5-1.1,5.9-2.6c1.6,1.8,3.8,2.7,6.2,2.7c2.3,0,4.4-1.1,5.9-2.6
			c1.5,1.6,3.6,2.7,6,2.7c4.5,0,8.2-3.7,8.2-8.2l0-8.6l-2.4,0C71.1,34.4,70.2,35.3,70.2,36.3"/>
	</g>
</g>
</svg>
