<svg xmlns="http://www.w3.org/2000/svg" xmlns:xlink="http://www.w3.org/1999/xlink" width="144" height="30" viewBox="0 0 144 30">
  <defs>
    <polygon id="hiholiday-a" points=".256 0 39.949 0 39.949 20.354 .256 20.354"/>
    <polygon id="hiholiday-c" points="0 .068 18.91 .068 18.91 20.741 0 20.741"/>
    <polygon id="hiholiday-e" points=".196 .351 30.755 .351 30.755 20.722 .196 20.722"/>
  </defs>
  <g fill="none" fill-rule="evenodd">
    <g transform="translate(103.754 .39)">
      <mask id="hiholiday-b" fill="#fff">
        <use xlink:href="#hiholiday-a"/>
      </mask>
      <path fill="#738395" d="M28.3460677,17.7372593 C27.9207138,15.5224444 27.5016369,13.340963 27.0807138,11.1520741 L24.8845292,11.1520741 C25.3324062,13.3720741 25.7725292,15.5539259 26.2133908,17.7372593 L28.3460677,17.7372593 Z M29.7653908,11.4917037 C30.1431138,13.4461481 30.52896,15.3528148 30.8682831,17.2672593 C30.9428677,17.6902222 31.1045908,17.7787407 31.4963446,17.7739259 C33.1335138,17.7528148 34.7706831,17.7654074 36.4078523,17.7639259 C36.5621908,17.7639259 36.7165292,17.7513333 36.8778831,17.7446667 C36.2162215,14.7168889 33.11136,11.9835556 29.7653908,11.4917037 Z M39.9491446,19.5702222 C39.5326523,20.2017037 38.9378215,20.3546667 38.2060062,20.3535556 C27.7944369,20.3387407 17.3828677,20.3454074 6.97056,20.3431852 C6.60280615,20.3431852 6.23283692,20.3198519 5.86692923,20.2805926 C4.77437538,20.1639259 4.04108308,19.5439259 3.80182154,18.4542963 C3.31148308,16.2176296 2.85548308,13.9742963 2.38766769,11.7328148 C1.69092923,8.39281481 0.997883077,5.05207407 0.299298462,1.71207407 C0.129821538,0.902814815 0.472836923,0.150222222 1.12932923,0.038 C1.96452923,-0.104592593 2.59960615,0.129851852 2.82003692,1.19725926 C3.93326769,6.57837037 5.05905231,11.9565185 6.17154462,17.3376296 C6.23062154,17.6228148 6.31443692,17.7757778 6.64600615,17.775037 C12.1996062,17.7657778 17.7524677,17.7676296 23.3056985,17.7654074 C23.3773292,17.7654074 23.4493292,17.7483704 23.5778215,17.7320741 C23.4430523,17.0398519 23.3156677,16.3635556 23.1797908,15.6891111 C22.81536,13.8787407 22.44576,12.0694815 22.0813292,10.2594815 C21.9173908,9.44355556 22.3534523,8.69837037 23.1155446,8.64355556 C26.3422523,8.4117037 29.5504985,8.45133333 32.6328369,9.62355556 C35.6826831,10.7835556 37.6994215,13.0054074 38.9703138,15.9576296 C39.3299446,16.7920741 39.6245908,17.6542963 39.9491446,18.5035556 L39.9491446,19.5702222 Z" mask="url(#hiholiday-b)"/>
    </g>
    <g transform="translate(0 8.908)">
      <mask id="hiholiday-d" fill="#fff">
        <use xlink:href="#hiholiday-c"/>
      </mask>
      <path fill="#738395" d="M8.83019077,20.7407407 C8.29517538,20.6555556 7.75646769,20.5896296 7.22625231,20.4811111 C3.15105231,19.6488889 0.337144615,16.4107407 0.0506215385,12.232963 C0.0284676923,11.9085185 -0.00808615385,11.5822222 0.00151384615,11.2581481 C0.0232984615,10.5022222 0.570129231,9.93703704 1.26797538,9.92 C1.96397538,9.90296296 2.53923692,10.4440741 2.56840615,11.212963 C2.60606769,12.2244444 2.70649846,13.2185185 3.08532923,14.1662963 C4.06969846,16.6281481 6.60114462,18.2148148 9.39216,18.1207407 C13.09776,17.9962963 15.71376,15.5844444 16.1531446,11.8244444 C15.9762831,11.8244444 15.8068062,11.8248148 15.6373292,11.8244444 C12.5664369,11.8207407 9.49517538,11.8240741 6.42465231,11.8033333 C6.08459077,11.8011111 5.71277538,11.7259259 5.41332923,11.5718519 C4.92188308,11.3188889 4.74982154,10.7625926 4.87092923,10.1440741 C5.93874462,4.68481481 10.04976,0.865555556 15.5778831,0.205925926 C16.1631138,0.135925926 16.7531446,0.0925925926 17.3416985,0.0696296296 C18.2581292,0.0337037037 18.8813908,0.545555556 18.9094523,1.32407407 C18.9371446,2.08925926 18.3389908,2.63444444 17.4070523,2.64925926 C15.7506831,2.6762963 14.1526523,2.96333333 12.6498831,3.68296296 C10.3879754,4.76703704 8.81948308,6.49777778 7.91708308,8.84074074 C7.88532923,8.92296296 7.85874462,9.00740741 7.83511385,9.09222222 C7.82809846,9.11666667 7.84028308,9.14666667 7.85172923,9.23296296 C8.00163692,9.23296296 8.15819077,9.23259259 8.31474462,9.23296296 C11.2973908,9.23851852 14.2796677,9.24444444 17.2615754,9.25148148 C18.3781292,9.2537037 18.8662523,9.73740741 18.8248985,10.8544444 C18.7067446,14.0518519 17.6596062,16.8162963 15.0391754,18.8148148 C13.6069292,19.907037 11.9749292,20.4962963 10.1848985,20.6548148 C10.0567754,20.6659259 9.93160615,20.7111111 9.80496,20.7407407 L8.83019077,20.7407407 Z" mask="url(#hiholiday-d)"/>
    </g>
    <path fill="#738395" d="M93.7236923,29.6485185 C93.2038154,29.5648148 92.6795077,29.5014815 92.1640615,29.3944444 C87.7222154,28.477037 84.7860923,24.7488889 84.9131077,20.1977778 C84.9348923,19.4092593 85.4699077,18.8344444 86.1869538,18.8281481 C86.8977231,18.8225926 87.4131692,19.3907407 87.5017846,20.1762963 C87.6022154,21.0666667 87.6454154,21.9903704 87.9241846,22.8292593 C88.7937231,25.4444444 91.3624615,27.0981481 94.2653538,27.0285185 C97.9654154,26.9388889 100.635323,24.4866667 101.061046,20.7322222 C100.882708,20.7322222 100.710646,20.7325926 100.538585,20.7322222 C97.512,20.7288889 94.4854154,20.7255556 91.4588308,20.7211111 C91.2819692,20.7211111 91.1036308,20.722963 90.9286154,20.7025926 C90.1089231,20.607037 89.6167385,19.9433333 89.7588923,19.1359259 C90.6694154,13.9618519 94.6545231,10.0222222 99.8318769,9.21259259 C100.703262,9.0762963 101.590154,9.01222222 102.472246,8.98074074 C103.177108,8.95555556 103.702892,9.44592593 103.803692,10.1011111 C103.889354,10.6588889 103.520123,11.2918519 102.963323,11.462963 C102.7008,11.5437037 102.411323,11.5555556 102.133292,11.5622222 C100.212923,11.607037 98.3970462,12.0348148 96.7358769,13.0303704 C94.7815385,14.2011111 93.4781538,15.897037 92.6828308,18.1151852 C92.9006769,18.1255556 93.0664615,18.1392593 93.2318769,18.1396296 C96.1993846,18.147037 99.1665231,18.1525926 102.134031,18.1588889 C103.287508,18.1611111 103.764185,18.6222222 103.724677,19.7733333 C103.607262,23.1681481 102.424615,26.0348148 99.5398154,28.0114815 C98.1995077,28.9296296 96.7000615,29.4288889 95.0802462,29.5633333 C94.9513846,29.5737037 94.8254769,29.6192593 94.6984615,29.6485185 L93.7236923,29.6485185 Z"/>
    <g transform="translate(21.046 .019)">
      <mask id="hiholiday-f" fill="#fff">
        <use xlink:href="#hiholiday-e"/>
      </mask>
      <path fill="#738395" d="M14.0814646,18.138 C14.1948185,15.8217037 12.4051569,13.2539259 10.1251569,12.3735556 C8.60503385,11.7861481 7.01438769,11.5768889 5.40564923,11.5002222 C4.12331077,11.4391111 2.83728,11.450963 1.55309538,11.4268889 C0.785095385,11.4128148 0.22608,10.898 0.201341538,10.1902222 C0.177341538,9.51096296 0.695372308,8.88837037 1.42866462,8.87059259 C4.29463385,8.80022222 7.15580308,8.83318519 9.95124923,9.6017037 C13.76688,10.6505926 15.8497108,13.2494815 16.5752492,17.0598519 C16.6413415,17.4061481 16.6978338,17.755037 16.7617108,18.118 L20.2863877,18.118 C20.1014031,17.1765185 19.9182646,16.2557778 19.7406646,15.3342963 C19.4330954,13.7383704 19.1233108,12.1431852 18.8253415,10.5454074 C18.6794954,9.76281481 19.13328,9.11318519 19.8938954,8.97874074 C20.5976492,8.8542963 21.2146338,9.33392593 21.3671262,10.1157778 C21.8641108,12.6676296 22.3670031,15.2187407 22.8573415,17.7724444 C22.9023877,18.0083704 22.9570338,18.1446667 23.2354338,18.1420741 C24.7267569,18.1291111 26.2184492,18.1317037 27.7101415,18.1268889 C27.7799262,18.1265185 27.8493415,18.1031852 27.9737723,18.080963 C27.8305108,17.3265185 27.69648,16.5894815 27.5498954,15.8554074 C26.6231262,11.2202222 25.6926646,6.58540741 24.7662646,1.94985185 C24.6255877,1.24503704 25.0262031,0.538 25.6291569,0.398740741 C26.46288,0.206148148 27.1341415,0.610962963 27.2973415,1.43022222 C28.3958031,6.93466667 29.4887262,12.4405926 30.5834954,17.9461481 C30.6266954,18.1635556 30.6806031,18.3787407 30.7215877,18.5965185 C30.9095262,19.5946667 30.2962338,20.4813333 29.2952492,20.6357778 C28.9610954,20.6876296 28.6191877,20.7113333 28.2809723,20.7117037 C23.6290338,20.7191111 18.9770954,20.7224444 14.3255262,20.7224444 C10.1753723,20.7220741 6.02558769,20.7165185 1.87580308,20.7135556 C1.80195692,20.7131852 1.72811077,20.7139259 1.65426462,20.7128148 C0.786941538,20.6991111 0.207249231,20.1913333 0.195803077,19.4357778 C0.183618462,18.6568889 0.759987692,18.1242963 1.65537231,18.1242963 C5.61315692,18.1242963 9.57131077,18.1324444 13.5290954,18.138 L14.0814646,18.138 Z" mask="url(#hiholiday-f)"/>
    </g>
    <path fill="#738395" d="M66.0045415 18.127963L68.2287877 18.127963C68.1586338 17.747963 68.0969723 17.4031481 68.0312492 17.0594444 67.7030031 15.3357407 67.3773415 13.612037 67.0369108 11.8905556 67.0110646 11.7575926 66.8844185 11.5438889 66.7976492 11.5401852 66.1020185 11.5112963 65.4045415 11.5238889 64.6738338 11.5238889 65.1250338 13.7624074 65.5640492 15.942037 66.0045415 18.127963M69.6639877 11.8927778C70.07088 14.0153704 70.4648492 16.0701852 70.85808 18.1216667L76.7055877 18.1216667C75.4815877 14.7672222 73.2806031 12.5887037 69.6639877 11.8927778M63.3674954 18.1046296C63.2231262 17.3731481 63.0828185 16.6531481 62.9384492 15.9335185 62.5777108 14.1387037 62.2106954 12.3446296 61.8543877 10.5487037 61.7122338 9.83277778 62.1704492 9.0887037 62.8730954 9.03796296 66.29328 8.79166667 69.6924185 8.83018519 72.9194954 10.2175926 75.7585108 11.4383333 77.6094646 13.6331481 78.7998646 16.4290741 79.1517415 17.2557407 79.4375262 18.1131481 79.7048492 18.9716667 80.0061415 19.9409259 79.4061415 20.7209259 78.3878031 20.7312963 77.5758646 20.7401852 76.7639262 20.7338889 75.9519877 20.7338889 70.3570338 20.7342593 64.76208 20.7368519 59.1671262 20.7309259 58.7558031 20.7301852 58.3352492 20.7138889 57.9353723 20.6294444 56.9838646 20.4272222 56.3587569 19.8405556 56.1501415 18.8772222 55.6993108 16.7998148 55.2680492 14.717963 54.8338338 12.6368519 54.1068185 9.15351852 53.3783262 5.67055556 52.6675569 2.18388889 52.6022031 1.86277778 52.58928 1.49611111 52.6767877 1.18648148 52.8414646.603148148 53.3041108.375740741 54.0455262.405740741 54.5366031.426111111 54.9626954.769444444 55.0897108 1.33240741 55.3987569 2.70018519 55.6838031 4.07388889 55.9695877 5.44685185 56.8247262 9.55203704 57.6776492 13.657963 58.5224492 17.7653704 58.57488 18.0205556 58.6502031 18.1627778 58.9378338 18.1609259 60.3405415 18.1516667 61.74288 18.1557407 63.1452185 18.1527778 63.2009723 18.1527778 63.2567262 18.1294444 63.3674954 18.1046296M40.6009846 26.9495556C42.1502769 26.9502963 43.6999385 26.9380741 45.2488615 26.9547407 46.2033231 26.9647407 46.7900308 27.6958519 46.5780923 28.5621481 46.4326154 29.1577037 45.9241846 29.5343704 45.2163692 29.5380741 43.7556923 29.5462222 42.2950154 29.5406667 40.8339692 29.5406667 39.1812923 29.5406667 37.5286154 29.5499259 35.8763077 29.536963 34.8971077 29.5299259 34.2731077 28.7265926 34.5385846 27.8521481 34.7080615 27.2932593 35.1803077 26.9588148 35.8641231 26.9528889 37.0006154 26.9421481 38.1367385 26.9491852 39.2728615 26.9491852 39.7155692 26.9491852 40.1582769 26.9491852 40.6009846 26.9495556"/>
  </g>
</svg>
