<svg xmlns="http://www.w3.org/2000/svg" xmlns:xlink="http://www.w3.org/1999/xlink" width="179" height="25" viewBox="0 0 179 25">
  <defs>
    <polygon id="p24-a" points=".303 .125 17.388 .125 17.388 23.944 .303 23.944"/>
    <polygon id="p24-c" points=".31 .332 25.339 .332 25.339 24.296 .31 24.296"/>
    <polygon id="p24-e" points="0 .334 18.225 .334 18.225 24.289 0 24.289"/>
  </defs>
  <g fill="none" fill-rule="evenodd">
    <g transform="translate(161.417 .892)">
      <mask id="p24-b" fill="#fff">
        <use xlink:href="#p24-a"/>
      </mask>
      <path fill="#284379" d="M11.0108914,4.30605634 C10.898357,4.53950704 10.8164179,4.76838028 10.7323688,4.99584507 C10.6437479,5.23669014 10.5470387,5.47084507 10.402854,5.68633803 C8.90438841,7.9356338 7.40943949,10.1866901 5.91202888,12.4366901 C5.1548835,13.5747183 4.39527642,14.711338 3.63602102,15.8479577 C3.61808585,15.8754225 3.59944735,15.9028873 3.61386582,15.9345775 C3.63215265,15.9754225 3.67224303,15.9673239 3.70705835,15.9669718 C3.86847485,15.9648592 4.02989136,15.961338 4.19130786,15.9616901 C6.40190511,15.9623944 8.61250236,15.9638028 10.8227479,15.9648592 C11.0239031,15.9652113 11.047465,15.9426761 11.047465,15.7423239 C11.0478167,15.4226056 11.04641,15.1032394 11.04641,14.7835211 C11.0457067,11.3356338 11.0450033,7.88774648 11.0439483,4.43985915 C11.0439483,4.40183099 11.0534434,4.36169014 11.0108914,4.30605634 Z M14.0426379,8.04478873 C14.0426379,10.6057042 14.0426379,13.1662676 14.0429896,15.7271831 C14.0429896,15.9528873 14.0549464,15.9655634 14.2845868,15.9648592 C15.2383157,15.9630986 16.1916929,15.961338 17.1454218,15.9592254 C17.1770721,15.9592254 17.2087224,15.961338 17.240021,15.9599296 C17.3448187,15.955 17.3887774,16.0039437 17.3884257,16.1092254 C17.3866674,16.8190845 17.3880741,17.5292958 17.3866674,18.239507 C17.3866674,18.3754225 17.3536104,18.4039437 17.2023923,18.4035915 C16.268357,18.4021831 15.3346733,18.4007746 14.4006379,18.3965493 C13.9782823,18.3944366 14.0440446,18.386338 14.0436929,18.7497183 C14.0426379,20.4106338 14.0443963,22.0719014 14.0450996,23.733169 C14.0454513,23.9278873 14.0299778,23.9437324 13.8397244,23.9437324 L11.2507303,23.9437324 C11.0615318,23.9437324 11.0418383,23.9240141 11.0418383,23.733169 C11.0439483,22.0444366 11.0460583,20.3557042 11.047465,18.6669718 C11.047465,18.6159155 11.04641,18.564507 11.0446517,18.5134507 C11.0418383,18.4419718 11.003858,18.4046479 10.933524,18.4014789 C10.8864002,18.3993662 10.8389248,18.3983099 10.791801,18.3983099 C7.39080098,18.4000704 3.99015265,18.4021831 0.589152652,18.4039437 C0.54167721,18.4039437 0.494553438,18.405 0.447429666,18.4028873 C0.354237132,18.398662 0.30289332,18.3567606 0.30324499,18.2557042 C0.30535501,17.7511268 0.30500334,17.2458451 0.30570668,16.7405634 C0.30605835,16.645493 0.352830452,16.5676761 0.402064244,16.4905634 C1.91846503,14.1169718 3.43486582,11.7430282 4.95091493,9.36873239 C6.87138448,6.35992958 8.79255737,3.35147887 10.7091585,0.340211268 C10.8072745,0.186338028 10.9134788,0.122605634 11.0991605,0.12471831 C12.0054139,0.133873239 12.9116674,0.128591549 13.8182725,0.128239437 C14.0412312,0.128239437 14.0450996,0.131760563 14.0450996,0.350774648 C14.0454513,2.91556338 14.0450996,5.48 14.0450996,8.04478873 L14.0426379,8.04478873 Z" mask="url(#p24-b)"/>
    </g>
    <path fill="#284379" d="M161.052782,5.00176513 C161.001833,4.9584214 160.86745,4.67289914 160.829355,4.66848592 C160.45975,4.12271127 160.011371,3.66073944 159.425137,3.34454225 C158.896577,3.0596831 158.328278,2.92693662 157.732901,2.88010563 C156.7746,2.80475352 155.83107,2.86989437 154.903365,3.13116197 C154.097337,3.35827465 153.386964,3.73996479 152.850316,4.40158451 C152.731451,4.54806338 152.624192,4.7040493 152.511657,4.85545775 C152.449387,4.94827271 152.449417,4.95550537 152.416397,5.00619507 C152.383377,5.05688477 152.369995,5.08006287 152.321756,5.15580986 C151.958129,5.90475352 151.824143,6.70299296 151.812889,7.52728873 C151.810779,7.69735915 151.810428,7.69911972 151.639868,7.69911972 L148.661223,7.70017606 C148.486795,7.70017606 148.486443,7.69278169 148.491367,7.51919014 C148.51317,6.81038732 148.610934,6.11426056 148.817013,5.43503521 C149.262579,3.96778169 150.144567,2.82271127 151.385962,1.94102113 C152.428663,1.20088028 153.583899,0.746302817 154.843932,0.54278169 C155.909844,0.370950704 156.980679,0.308978873 158.058196,0.38221831 C159.380475,0.472359155 160.648596,0.762852113 161.801019,1.45088028 C162.418551,1.81883803 162.966101,2.27165493 163.428547,2.82411972 C163.414446,2.83737448 163.586995,3.02535801 163.639938,3.10074545 C163.641825,3.09941722 163.643711,3.09808892 163.645598,3.09676056 C164.202292,3.82774648 164.54728,4.65274648 164.724521,5.55133803 C165.113117,7.52316901 164.652429,9.30873239 163.541855,10.9527465 C162.610985,12.3305634 161.520808,13.5738732 160.353264,14.7527465 C157.991097,17.1369014 155.587433,19.4791549 153.209089,21.8471127 C153.143679,21.9122535 153.080026,21.9788028 152.993867,22.0671831 L153.164427,22.0671831 L165.638863,22.0671831 C165.80872,22.0671831 165.808368,22.0671831 165.80872,22.2323239 C165.809423,22.923169 165.810127,23.613662 165.81083,24.3041549 C165.81083,24.4865493 165.792191,24.5048592 165.60651,24.5048592 C163.30483,24.504507 161.00315,24.5038028 158.701119,24.5038028 C155.552266,24.5041549 152.403062,24.5052113 149.253857,24.5059155 C148.985885,24.5062676 148.98694,24.5020423 148.988698,24.2358451 C148.992215,23.6876056 148.993973,23.138662 148.987292,22.5900704 C148.985182,22.4242254 149.03758,22.2985211 149.153983,22.1802113 C152.122781,19.1703521 155.091578,16.1608451 158.054749,13.145 C158.881174,12.3034507 159.671728,11.4288028 160.359946,10.466831 C160.911013,9.69711268 161.300311,8.85873239 161.452233,7.91647887 C161.609077,6.94112676 161.5085,5.99992958 161.103728,5.09535211 C161.089431,5.06301138 161.070948,5.03246679 161.052782,5.00176513 Z"/>
    <g transform="translate(56.619 .54)">
      <mask id="p24-d" fill="#fff">
        <use xlink:href="#p24-c"/>
      </mask>
      <path fill="#284379" d="M12.7812682,17.5144014 C12.940223,17.4115845 12.9648399,17.2672183 13.0102053,17.1365845 C14.8803861,11.7791901 16.7484568,6.42144366 18.6186375,1.0640493 C18.8595314,0.373908451 18.9295138,0.330950704 19.6497338,0.332007042 C21.3373978,0.334119718 23.0247102,0.332711268 24.7123743,0.33306338 C25.2862996,0.333415493 25.3386984,0.383767606 25.3386984,0.960880282 C25.3362367,8.60700704 25.33061,16.2534859 25.3376434,23.8996127 C25.3379951,24.2295423 25.2381208,24.2901056 24.9349813,24.2862324 C23.5567868,24.2703873 22.177889,24.2622887 20.8003978,24.2897535 C20.3843723,24.2982042 20.2503861,24.1467958 20.2458143,23.7633451 C20.2201424,21.7644014 20.1586002,19.7651056 20.2296375,17.766162 C20.3140383,15.4027817 20.4223527,13.0401056 20.527502,10.6770775 C20.5728674,9.66757042 20.638278,8.65841549 20.6987652,7.56475352 C20.4751031,7.9059507 20.4100442,8.2225 20.3041916,8.51827465 C18.4895747,13.5675704 16.6770678,18.6175704 14.8765177,23.6714437 C14.7189695,24.1140493 14.5086709,24.3235563 14.0001562,24.2929225 C13.1730285,24.2429225 12.3395707,24.2460915 11.512443,24.2922183 C11.0341719,24.3186268 10.8738104,24.0813028 10.7387692,23.7020775 C9.87260609,21.2672183 8.99729961,18.8355282 8.12234479,16.403838 C7.14751572,13.694331 6.17057662,10.9862324 5.19363752,8.2781338 C5.14862377,8.1531338 5.09516994,8.03165493 5.02483595,7.85806338 C5.02483595,8.56510563 4.99881238,9.20454225 5.02940766,9.8418662 C5.25025639,14.4686268 5.51295383,19.0932746 5.40428782,23.728838 C5.39549607,24.1122887 5.28999509,24.3013732 4.84091257,24.2908099 C3.50562181,24.2587676 2.16857269,24.2633451 0.832930255,24.2890493 C0.439763261,24.2971479 0.319140472,24.2172183 0.320898821,23.7950352 C0.336723969,19.3872887 0.32898723,14.9802465 0.324767191,10.5725 C0.321953831,7.39045775 0.314568762,4.20806338 0.310348723,1.02602113 C0.309293713,0.355950704 0.337778978,0.335176056 0.991885069,0.336232394 C2.66513065,0.33834507 4.3387279,0.334471831 6.01232515,0.332359155 C6.69597151,0.331302817 6.72551179,0.350669014 6.95058055,0.990105634 C8.83060806,6.32883803 10.7095806,11.6679225 12.5899597,17.007007 C12.6490403,17.1746127 12.7155059,17.3401056 12.7812682,17.5144014" mask="url(#p24-d)"/>
    </g>
    <path fill="#284379" d="M108.469463 9.6665493L108.469463 10.425C108.469112 15.015493 108.469112 19.606338 108.469112 24.196831 108.469112 24.8021127 108.453287 24.8190141 107.866701 24.8190141 106.502222 24.8190141 105.138094 24.8112676 103.773966 24.8253521 103.489817 24.8285211 103.393811 24.7679577 103.394163 24.4609155 103.400493 16.7866197 103.395218 9.11232394 103.39346 1.43767606 103.39346.919014085 103.447617.875 103.986375.875 105.209483.875704225 106.433294.88943662 107.656051.865140845 108.120607.855985915 108.404405 1.02323944 108.643892 1.42112676 111.52864 6.21514085 114.426752 11.0014085 117.322403 15.7894366 117.464477 16.0246479 117.611827 16.256338 117.830566 16.4732394L117.830566 16.0302817C117.828807 11.2711268 117.827049 6.51126761 117.825291 1.75176056 117.824939.867605634 117.850259.857746479 118.716774.871126761 119.785147.887676056 120.853872.88028169 121.922597.872535211 122.693106.867253521 122.741988.904577465 122.741636 1.66795775 122.739175 9.08873239 122.73601 16.5098592 122.733196 23.9309859 122.732845 24.8190141 122.733196 24.8190141 121.839603 24.8190141 120.686126 24.8190141 119.531945 24.7887324 118.380577 24.8320423 117.840061 24.8524648 117.531998 24.656338 117.265432 24.2073944 116.175255 22.3693662 115.057296 20.5478873 113.950591 18.7204225 112.180988 15.7978873 110.411737 12.8753521 108.642837 9.9528169 108.602043 9.88591549 108.561601 9.81901408 108.469463 9.6665493M26.9885228 7.07144366C26.9129138 7.19926056 26.8759884 7.24292254 26.8591083 7.29362676 25.9542615 10.0126408 25.0539864 12.7327113 24.1438646 15.4499648 24.035902 15.7714437 24.1090493 15.8770775 24.4508725 15.8753169 26.1104029 15.866162 27.7699334 15.8746127 29.4291122 15.8735563 29.8971849 15.8732042 29.9172301 15.8439789 29.764957 15.3865845 29.1688764 13.6010211 28.5699825 11.8168662 27.9731986 10.0313028 27.6535306 9.07390845 27.3359727 8.11616197 26.9885228 7.07144366M38.1364599 24.8189789C36.4259373 24.8189789 34.7671102 24.8136972 33.1086348 24.8235563 32.7527448 24.825669 32.6627173 24.587993 32.5765582 24.3305986 32.1869079 23.1725 31.7986642 22.0140493 31.415344 20.853838 31.1828902 20.1503169 31.0682458 20.0577113 30.3304422 20.0573592 28.0523244 20.0563028 25.7745582 20.0573592 23.4964403 20.0594718 22.9063381 20.0601761 22.7435149 20.1834155 22.5525582 20.7584155 22.1678312 21.9182746 21.7760709 23.075669 21.4043558 24.2397535 21.2728312 24.6503169 21.0804678 24.8457394 20.5972733 24.8330634 19.135733 24.7939789 17.6727861 24.8112324 16.2105424 24.8253169 15.8954462 24.8281338 15.8328489 24.7732042 15.9489 24.4594718 18.7770297 16.8207394 21.5953126 9.1781338 24.4171122 1.53728873 24.6330375.95278169 24.7765189.851021127 25.3803361.868978873 26.4627762.901021127 27.545568.915809859 28.6273047.861584507 29.1136642.837288732 29.3176328 1.08764085 29.4723676 1.5059507 32.2723637 9.06510563 35.0825582 16.6207394 37.8906426 24.1770775 37.9630866 24.3732042 38.0401024 24.5672183 38.1364599 24.8189789M85.3396039 12.9194718C85.3396039 9.11700704 85.3392523 5.31489437 85.3396039 1.51242958 85.3399556.904683099 85.3691442.872992958 85.9891383.872992958 90.855547.87193662 95.7216039.87193662 100.588013.872992958 101.245635.872992958 101.276582.913133803 101.273769 1.56947183 101.269197 2.47052817 101.273066 3.37158451 101.274472 4.27264085 101.275176 4.8046831 101.20238 4.88461268 100.667842 4.88390845 97.4613151 4.88179577 94.2544369 4.87616197 91.0475587 4.87299296 90.3122169 4.87228873 90.2390695 4.95573944 90.2411796 5.70221831 90.2450479 7.09588028 90.2429379 8.48954225 90.2422346 9.88320423 90.2415312 10.5046831 90.3290971 10.6036268 90.9392444 10.6015141 93.512765 10.5934155 96.0866373 10.5832042 98.660158 10.5663028 99.6870342 10.5596127 99.6810558 10.5504577 99.6705057 11.588838 99.662769 12.3490493 99.672264 13.1096127 99.6747257 13.8698239 99.6764841 14.3955282 99.6258436 14.4546831 99.094822 14.4539789 96.408767 14.4515141 93.7223603 14.4437676 91.0359536 14.4384859 90.2981501 14.4374296 90.2408279 14.4994014 90.2415312 15.222993 90.2439929 16.8846127 90.2422346 18.5458803 90.2429379 20.2075 90.2432896 20.8053873 90.2953367 20.8603169 90.8914173 20.8596127 94.1264291 20.8564437 97.3614409 20.8508099 100.596101 20.8476408 101.237899 20.8469366 101.289242 20.9032746 101.287132 21.547993 101.283616 22.5198239 101.274472 23.4913028 101.285374 24.4627817 101.288187 24.7208803 101.24247 24.826162 100.947419 24.8258099 95.8555902 24.8163028 90.7644644 24.8152465 85.672987 24.8272183 85.3142837 24.8279225 85.344879 24.6469366 85.3452306 24.4110211 85.3476923 20.5803873 85.346989 16.7501056 85.346989 12.9194718L85.3396039 12.9194718z"/>
    <g transform="translate(0 .54)">
      <mask id="p24-f" fill="#fff">
        <use xlink:href="#p24-e"/>
      </mask>
      <path fill="#284379" d="M4.90987505,8.10330986 C4.90987505,9.2015493 4.9116334,10.2997887 4.90846837,11.3976761 C4.90776503,11.6677465 4.95418546,11.8688028 5.29706365,11.8592958 C6.8700833,11.8145775 8.44521297,11.925493 10.0185843,11.7878169 C11.9225253,11.6205634 12.9603033,10.7064789 13.212099,8.81985915 C13.4878083,6.75788732 12.4419418,4.59309859 9.85962947,4.39626761 C8.34358035,4.28077465 6.82366287,4.36950704 5.3058554,4.3434507 C4.98618743,4.33816901 4.90495167,4.52584507 4.90671002,4.80859155 C4.91233674,5.90683099 4.90917171,7.00507042 4.90987505,8.10330986 Z M0.0047827112,12.3652817 C0.0047827112,8.54838028 0.00443104126,4.73147887 0.00513438114,0.914929577 C0.00513438114,0.380774648 0.0462797642,0.333239437 0.579763065,0.334295775 C3.75885933,0.341338028 6.93865894,0.312464789 10.1163485,0.375140845 C12.6786157,0.425492958 14.8842896,1.36140845 16.5694919,3.3571831 C17.863989,4.89028169 18.3383917,6.6906338 18.2026472,8.66246479 C18.0989045,10.1705634 17.7514546,11.6082394 16.8022974,12.8388732 C15.6913721,14.2800704 14.1566845,15.0226761 12.4528436,15.4807746 C11.52549,15.7300704 10.5780912,15.8420423 9.61697721,15.8392254 C8.22436424,15.835 6.83175128,15.8459155 5.43948998,15.828662 C5.0333112,15.8237324 4.89721493,15.9751408 4.90037996,16.3751408 C4.91937014,18.853662 4.91198507,21.3325352 4.93941532,23.8110563 C4.94398703,24.2050704 4.83285933,24.2952113 4.45481415,24.2885211 C3.13288684,24.2649296 1.81025619,24.2659859 0.48832888,24.288169 C0.118020432,24.2938028 -0.00189901768,24.2156338 -0.000140667976,23.8152817 C0.0174428291,19.9983803 0.0100577603,16.1814789 0.0100577603,12.3652817 L0.0047827112,12.3652817 Z" mask="url(#p24-f)"/>
    </g>
    <path fill="#284379" d="M42.7714346 20.4238732C42.7714346 19.1847887 42.7626428 17.9460563 42.7770613 16.7069718 42.7812813 16.313662 42.6880888 15.9664789 42.5101438 15.6189437 40.0881929 10.8928873 37.6729238 6.16295775 35.2562479 1.43373239 35.2049041 1.33373239 35.1612971 1.22915493 35.1032715 1.13338028 35.0037489.968239437 35.0125407.883028169 35.2369061.883380282 36.8120358.883732394 38.3868138.879859155 39.9619434.873873239 40.3220534.872816901 40.4722165 1.1115493 40.5998727 1.39394366 41.4118786 3.18514085 42.2249395 4.9756338 43.0397587 6.76542254 43.7146134 8.24852113 44.3912263 9.73091549 45.070301 11.2122535 45.1149631 11.3097887 45.1279749 11.4661268 45.2468393 11.4756338 45.4022774 11.4883099 45.4184542 11.3147183 45.4669847 11.2087324 46.9415367 7.99077465 48.4129238 4.77140845 49.8843108 1.55169014 50.1726802.920704225 50.2848629.859788732 50.979411.866478873 52.3576055.87915493 53.7354483.878450704 55.1136428.885492958 55.5511202.887605634 55.5627253.913309859 55.3577018 1.31366197 52.9297725 6.05274648 50.5036016 10.7925352 48.0718039 15.5298592 47.860802 15.9407746 47.760576 16.3611972 47.7619827 16.8242254 47.7721811 19.3590845 47.7630377 21.8935915 47.7771045 24.4277465 47.7788629 24.7369014 47.7116939 24.8319718 47.3878059 24.8273944 45.9677627 24.8080282 44.5470161 24.8094366 43.1269729 24.826338 42.8185583 24.8302113 42.7211458 24.7633099 42.7264208 24.4365493 42.7471694 23.0995775 42.7348609 21.7615493 42.7348609 20.4238732L42.7714346 20.4238732zM131.32597 14.9994718C131.32597 11.9012324 131.326673 8.80299296 131.32597 5.70475352 131.325618 4.93609155 131.256691 4.87200704 130.478094 4.87376761 128.579076 4.8790493 126.68041 4.88257042 124.781744 4.88538732 124.193049 4.88644366 124.119198 4.80651408 124.124473 4.23820423 124.132913 3.32341549 124.13643 2.40792254 124.135023 1.49278169 124.13432.894894366 124.156123.864260563 124.737785.865669014 127.297591.87165493 129.857045.880457746 132.417202.884330986 135.947616.889612676 139.478031.897007042 143.008445.885035211 143.401261.883626761 143.5465.964964789 143.533137 1.38855634 143.501487 2.40158451 143.5043 3.41637324 143.532785 4.42975352 143.544039 4.83609155 143.382622 4.94066901 143.018995 4.93926056 141.218797 4.93327465 139.418247 4.9403169 137.618049 4.94242958 137.491096 4.94242958 137.364846 4.94207746 137.238245 4.94242958 136.445581 4.94771127 136.360828 5.02306338 136.360125 5.80616197 136.356608 9.56602113 136.35696 13.3265845 136.357663 17.0867958 136.358367 19.4385563 136.361532 21.790669 136.364345 24.1424296 136.364697 24.7455986 136.294715 24.8191901 135.710942 24.8191901 134.346815 24.8191901 132.982335 24.8181338 131.617856 24.8202465 131.427954 24.8205986 131.29221 24.8480634 131.293616 24.5477113 131.309441 21.3649648 131.303815 18.1822183 131.303815 14.9994718L131.32597 14.9994718z"/>
  </g>
</svg>
