<?xml version="1.0" encoding="utf-8"?>
<!-- Generator: Adobe Illustrator 22.0.1, SVG Export Plug-In . SVG Version: 6.00 Build 0)  -->
<svg version="1.1" id="Layer_1" xmlns="http://www.w3.org/2000/svg" xmlns:xlink="http://www.w3.org/1999/xlink" x="0px" y="0px"
	 viewBox="0 0 520.2 293.8" style="enable-background:new 0 0 520.2 293.8;" xml:space="preserve">
<style type="text/css">
	.st0{fill:url(#SVGID_1_);}
	.st1{fill:url(#SVGID_2_);}
	.st2{fill:url(#SVGID_3_);}
	.st3{fill:url(#SVGID_4_);}
	.st4{fill:url(#SVGID_5_);}
	.st5{fill:url(#SVGID_6_);}
	.st6{fill:url(#SVGID_7_);}
</style>
<g>
	<g>
		<linearGradient id="SVGID_1_" gradientUnits="userSpaceOnUse" x1="40.6255" y1="190.6208" x2="513.2153" y2="190.6208">
			<stop  offset="0" style="stop-color:#EE2832"/>
			<stop  offset="1" style="stop-color:#841618"/>
		</linearGradient>
		<path class="st0" d="M494.2,212.2c-8.1-2.7-16.6-3.9-25.1-4.6c-16.8-1.5-33.6-1.1-50.4-0.4c-18.4,0.8-36.7,2.3-55,4.5
			c-15.2,1.9-30.6,1-45.9,1c-6,0-5.7,0-5-5.8c1-8.1,0.1-15.6-5.1-22.5c-5.7-7.6-13.6-11.2-22-14.5c-12.9-5-14.7-10.3-7.4-22.1
			c5.4-8.6,12.4-16.1,19.7-23c9.9-9.3,6.3-26.2-0.7-33.1c-0.3-0.3-0.6-0.7-1-1c-0.3-0.3-0.7-0.6-1-1c-1.1-2-3.2-3-5.2-3.6
			c-4.3-1.5-9.1-3-12.3,1.5c-2,2.8-3.2,2.4-5.2,0.4c-1.3,3.1-0.7,5.5,2.1,6.5c3,1,4.7-0.8,5.6-3.5c1.4-4.5,4.5-4.7,8.2-3.6
			c2.2,0.6,4.3,1.7,6.1,3.2v0c0.3,0.2,0.6,0.5,0.9,0.7c0.3,0.3,0.5,0.6,0.8,0.9c7.4,10.4,6.8,18.8-2,27.9
			c-5.9,6.1-11.8,12.2-17.5,18.5c-9.1,10.1-15.7,21.4-13.6,35.7c0.5,3.6-0.5,5.7-2.4,8.2c-6.2,8.2-9.7,17.2-7,27.7
			c0.7,2.6-0.6,2.7-2.6,2.6c-4.6-0.2-18-11.5-18.9-15.9c-0.1-0.5,0.1-1,0.2-1.5c0.8-5.3,0.2-10.6-0.5-15.9c-2-14.1-8.5-25.6-19.9-35
			c-2.5,7.7-4.8,14.9-7.1,22.1c-0.7,2.2,0.2,3.7,1.7,5.3c4.2,4.4,7.8,9.4,11.5,14.3c7.5,10,6.9,19.7,0.2,29.6
			c-9.5,14-22.5,24.1-36.8,32.7c-7.6,4.6-15.5,5.2-23.9,2.7c-4.3-1.3-8.2-3.4-12.2-5.2c-25.2-11.3-50.9-14.6-77.5-5.1
			c-4.7,1.9-8.3,4.3-12.9,7.4c-0.6,0.3-0.8,0.4-1.4,0.9l-0.5,0.4c-0.8,0.9-1.7,1.5-2.5,2.3c-0.3,0.3-0.7,0.7-1,1
			c-0.3,0.3-0.7,0.7-1,1c-0.6,0.4-0.9,0.8-1.6,1.5c-2.7,2.6-4.5,5.6-5.7,9.2c-1.6,4.5-1.9,8.8,3.3,11.5c1.2,0.6,2.9,1.6,1.3,3.4
			c-0.7,0.9-2.1,1.5-0.4,2.6c1.1,0.8,2.1,0.7,3.2,0.1c1.9-1.1,3.1-2.4,2.9-4.7c-0.2-2.7-1.7-4.3-4.2-4.8c-4.1-0.8-4.6-3-4-6.8
			c0.8-5.1,2.4-6.7,4.5-10c0.8-0.9,0.9-1,1.5-1.6c0.4-0.4,0.7-0.8,1.1-1.1h0c0.2-0.1,0.3-0.2,0.4-0.4c0.9-0.9,2.5-2.5,2.8-2.7
			l1.6-1.1c0.1-0.1,0.2-0.1,0.3-0.2c0.2-0.1,0.3-0.2,0.5-0.3c3.9-2.8,8.4-4.7,12.6-7.1c9.6-2.7,19.3-5,29.3-3.8
			c6.8,0.8,14.1,0.5,20,4.8c6.8,5,13.4,10.4,20,15.7c8.4,6.7,16.7,13.6,26.9,17.6c8.9,3.4,17.7,2.4,24.2-3.5
			c16.8-15,31.2-32.1,39.6-53.7c7.1,9.1,16.7,13.9,27.9,16c2.3,0.4,3.3,1.4,3.2,4c-0.1,5.3,0.2,10.6,0.8,15.9
			c2.2,19.2,15.3,28.6,34,24c17.5-4.3,26.8-20,22.1-37.3c-0.7-2.4-1.2-4.9-1.9-7.5c12.6-0.6,24.9,0,37.2-0.9
			c16.9-1.2,33.7-2.6,50.5-4.4c23-2.4,46.1-3.5,69.2-1.8c7.2,0.6,14.4,1.7,21.6,3.1c6.8,1.3,12.1,10.1,12.3,19.4
			c0.4,15.5-5.7,28.8-14.6,41c0,0,0,0,0,0c-0.2,0.5-0.3,0.9-0.5,1.4c-0.9,0.9-1.8,1.8-2.7,2.7c-0.3,0.3-0.5,0.6-0.8,0.9
			c-0.3,0.5-1,1-0.1,1.4c0.1,0,0.5-0.6,0.8-0.9h0c0.3-0.3,0.7-0.6,1-1c0.9-0.9,1.7-1.7,2.6-2.6c0,0,0,0,0,0c0.2-0.4,0.3-0.9,0.5-1.3
			c0.7-0.7,1.5-1.3,2.1-2c10.2-13.9,17-29.2,18.5-46.4C514.3,227.7,509.1,217.2,494.2,212.2z M265.2,196.1
			c1.4-11.3,3.7-12.9,14.3-10.3c8.8,2.1,16.9,5.5,22.4,13.3c4,5.6,3.1,8.6-3.4,10.5c-5.4,1.6-10.9,2.8-16,2.3c-2.6,0-4.6,0.2-6.6,0
			C266.9,210.8,264,206.5,265.2,196.1z M310,256.4c-10,6.4-28.1,2.8-34.7-7.1c-1-1.5-1.9-3.1-2.5-4.7c-2.2-6.2-0.9-8,8.3-7.8
			c9.2,1.4,19.9,6.1,28.9,14.3C312.1,252.8,313,254.5,310,256.4z"/>
		<linearGradient id="SVGID_2_" gradientUnits="userSpaceOnUse" x1="37.7484" y1="176.623" x2="204.3405" y2="176.623">
			<stop  offset="0" style="stop-color:#EE2832"/>
			<stop  offset="1" style="stop-color:#841618"/>
		</linearGradient>
		<path class="st1" d="M76.9,204.5c12.7,1.8,22,9.2,31.4,16.8c8.9,7.2,17.4,14.8,28.2,19.1c8.5,3.4,17.2,2.8,23.9-2.6
			c14.9-12,26.9-27,35.7-43.9c8.2-15.7,9.9-33.1,7.1-50.6c-2.1-13.1-8.7-23.9-19.4-32.6c-2.4,7.5-4.6,14.6-7,21.7
			c-0.7,2.2,0.1,3.3,1.4,4.8c3.7,4.4,7.5,8.9,10.8,13.6c8.2,11.8,9.3,17.9-0.1,31.9c-8.4,12.6-20.5,21.3-33,29.5
			c-10.3,6.8-20.7,6.9-31.4,2c-5.8-2.6-11.3-6.2-17.3-8.3c-24.2-8.3-47.3-5-69.3,7.5c3.5,0.2,6-2.2,9-3.3
			C56.4,206.4,66,202.9,76.9,204.5z"/>
		<linearGradient id="SVGID_3_" gradientUnits="userSpaceOnUse" x1="3.7371" y1="145.9586" x2="134.1688" y2="145.9586">
			<stop  offset="0" style="stop-color:#EE2832"/>
			<stop  offset="1" style="stop-color:#841618"/>
		</linearGradient>
		<path class="st2" d="M64.8,189.8c1.3,1.8,2.5,2.4,5,1.2c9.7-4.5,19.9-6.7,30.6-6.4c5.3,0.1,10.7-0.2,15.9-0.9
			c8.8-1.2,13.9-7.3,16.4-13.8l1.2-5.1c0.8-4.2-1.2-7.9-3.7-11.4c-7.5-10.6-12-22.8-18.5-34c-8.3-14.3-20.3-21.4-37.1-18.7
			c-7.2,1.1-14.4,3.9-13.6,14.8c0.4,5.2,0.1,10.5,0.1,15.6c1.1,0.5,1.1-0.2,1.3-0.6c5.5-10.3,14.7-12.9,24.9-7.1
			c5.9,3.3,10.4,8.1,14.5,13.4c6.9,8.8,13.4,17.8,19.2,27.7c-15.3,0.3-29.8,3.6-44.3,6.2c-8.3,1.4-16.3,3.9-24.8,4
			c-17.6,0.3-33.8,5-48.2,15.4c0.2,0.2,0.4,0.5,0.7,0.7c5-2.5,9.8-5.2,14.9-7.4c6.9-3,14.3-7.3,21.7-5.3
			C49.4,180.4,59,181.5,64.8,189.8z"/>
		<linearGradient id="SVGID_4_" gradientUnits="userSpaceOnUse" x1="131.1409" y1="97.2432" x2="158.7747" y2="97.2432">
			<stop  offset="0" style="stop-color:#EE2832"/>
			<stop  offset="1" style="stop-color:#841618"/>
		</linearGradient>
		<path class="st3" d="M136.8,89.1c3.1,19.4,7.6,38.7,4.4,58.5c-0.9,5.8-1.7,11.6-3.6,17.3l-1.1,3.8c-0.9,3.8-1.3,7.6-0.5,11.7
			c2.3,10.6,12.2,17.9,22.7,15.7c-6.2-1.4-12-2.5-15.7-8.3c-4.7-7.6-5-14.9-0.6-22.7c5.1-9.2,7.1-19.3,7.7-29.6
			c1.4-23.8-2.8-47.2-6.2-70.7c-2.7-18.7-5.8-37.3,0.3-55.9c1.4-3.5,2.8-7,4.2-10.4c-0.4-0.1-0.8-0.3-1.2-0.4
			c-1.2,3.3-2.5,6.6-3.7,9.8c-2.6,7.6-5.4,15.1-8.9,22.3c-2.6,5.6-4,11.5-3.5,17.7C132.3,61.8,134.5,75.4,136.8,89.1z"/>
		<linearGradient id="SVGID_5_" gradientUnits="userSpaceOnUse" x1="364.3166" y1="155.4378" x2="424.3098" y2="155.4378">
			<stop  offset="0" style="stop-color:#EE2832"/>
			<stop  offset="1" style="stop-color:#841618"/>
		</linearGradient>
		<path class="st4" d="M366.6,156.4c3.6,1,6.3,3.5,8.9,6.1c6.3,6.3,10.7,6,16.5-0.7c1.6-1.8,1.7-6.2,4.9-5.2
			c2.6,0.7,4.7,3.5,6.8,5.6c1.2,1.1,2,2.8,3.3,3.7c1.6,1.1,3.3,2.7,5.8,1.4c5.8-3,8.7-8.3,11.5-13.8c-5.3,2.7-5.3,2.7-9-1.1
			c-0.7-0.7-1.4-1.4-2.1-2.1c-9.4-9.4-10.4-9.3-18,1.4c-2.3,3.3-4.6,3.7-7.7,1.1c-2.8-2.4-5.6-4.7-8.6-6.7c-5.8-3.9-5.8-3.8-9.9,1.6
			c-1.2,1.6-2.4,3.1-3.6,4.7C364,154.1,363.6,155.6,366.6,156.4z"/>
		<linearGradient id="SVGID_6_" gradientUnits="userSpaceOnUse" x1="372.3882" y1="135.071" x2="401.7623" y2="135.071">
			<stop  offset="0" style="stop-color:#EE2832"/>
			<stop  offset="1" style="stop-color:#841618"/>
		</linearGradient>
		<path class="st5" d="M374.2,136.5c4.2,2,7.9,4.7,11,8.3c1.6,1.9,3.8,3.2,6.6,2.3c3.9-1.2,10-10.6,10-15.8c-3.2,5-6.1,2.6-8.8,0.2
			c-2-1.7-3.8-3.7-5.8-5.4c-5.3-4.7-7.1-4.5-10.8,1.2c-1.1,1.7-2,3.4-3.1,5.1C372.1,134.1,371.8,135.4,374.2,136.5z"/>
		<linearGradient id="SVGID_7_" gradientUnits="userSpaceOnUse" x1="152.2884" y1="101.7046" x2="182.4454" y2="101.7046">
			<stop  offset="0" style="stop-color:#EE2832"/>
			<stop  offset="1" style="stop-color:#841618"/>
		</linearGradient>
		<path class="st6" d="M154.1,102.9c4.3,2.2,8.1,5.1,11.4,8.6c2.7,2.9,5.7,3,8.7,0.1c3.6-3.6,5.8-8.1,8.3-13.1
			c-6.3,2.5-6.3,2.5-11.3-2.2c-1.7-1.6-3.6-3-5.2-4.6c-1.9-1.9-4-3-6.7-1.6c-1.9,1.1-7.3,9.9-6.9,11.2
			C152.6,102.3,153.4,102.6,154.1,102.9z"/>
	</g>
</g>
</svg>
