<svg xmlns="http://www.w3.org/2000/svg" width="86" height="50" viewBox="0 0 86 50">
  <g fill="#738395">
    <path d="M82.8330404,35.6623168 C81.4569588,35.2025573 80.0129226,34.9982198 78.5688864,34.8790229 C75.7147913,34.623601 72.8606962,34.6917135 70.0066011,34.8109104 C66.8806874,34.9471354 63.7717624,35.2025573 60.6628374,35.5771761 C58.0805609,35.9007105 55.464307,35.7474574 52.8650419,35.7474574 C51.8457222,35.7474574 51.8966882,35.7474574 52.0156088,34.759826 C52.1854954,33.3805477 52.0325975,32.1034381 51.1491871,30.9284973 C50.1808334,29.6343597 48.8387291,29.0213471 47.4116816,28.4594189 C45.2201443,27.6080125 44.9143484,26.7055218 46.1545206,24.6962027 C47.0719084,23.2317838 48.2611146,21.9546742 49.5012869,20.7797334 C51.1831644,19.1961176 50.5715726,16.3183641 49.3823663,15.1434233 C49.3314003,15.0923389 49.2804343,15.0242264 49.2124797,14.973142 C49.1615137,14.9220576 49.0935591,14.8709732 49.0425931,14.8028607 C48.8557178,14.4622982 48.4989559,14.2920169 48.1591827,14.1898481 C47.4286702,13.9344262 46.6132145,13.6790043 46.0695773,14.4452701 C45.7298041,14.9220576 45.5259402,14.8539451 45.186167,14.5133826 C44.9653144,15.0412545 45.0672463,15.4499296 45.5429288,15.6202108 C46.0525887,15.7904921 46.3413959,15.4839858 46.4942939,15.0242264 C46.7321351,14.2579606 47.2587836,14.2239044 47.8873641,14.4112138 C48.2611146,14.5133826 48.6178765,14.700692 48.9236724,14.9561139 C48.9746384,14.9901701 49.0256044,15.0412545 49.0765704,15.0753108 C49.1275364,15.1263951 49.1615137,15.1774795 49.2124797,15.2285639 C50.4696406,16.9994892 50.3677087,18.4298519 48.8727065,19.9794114 C47.8703754,21.0181272 46.8680444,22.056843 45.8996907,23.129615 C44.3537226,24.8494559 43.2324709,26.7736343 43.5892328,29.2086565 C43.6741761,29.8216691 43.5042895,30.1792597 43.1815049,30.6049629 C42.1282079,32.0012694 41.5336048,33.5338008 41.9922986,35.3217542 C42.1112193,35.7644855 41.8903667,35.7815136 41.5505934,35.7644855 C40.769115,35.7304293 38.4926344,33.8062509 38.3397365,33.0570133 C38.3227478,32.9718726 38.3567251,32.886732 38.3737138,32.8015914 C38.5096231,31.8991006 38.4076911,30.9966099 38.2887705,30.0941191 C37.9489972,27.6931531 36.8447343,25.7349185 34.9080269,24.1342745 C34.4833103,25.4454403 34.0925711,26.6714655 33.7018319,27.8974907 C33.5829113,28.2721095 33.7358092,28.5275314 33.9906392,28.7999814 C34.7041629,29.549219 35.3157547,30.4006254 35.9443352,31.2350036 C37.2184848,32.9378164 37.1165528,34.5895447 35.9783125,36.2753293 C34.3643897,38.6592672 32.1558637,40.379108 29.7264852,41.843527 C28.4353469,42.6268208 27.0932427,42.7289896 25.6661951,42.3032864 C24.9356827,42.0819208 24.2731249,41.7243301 23.5935784,41.4178238 C19.3124358,39.4936454 14.9463498,38.9317172 10.4273659,40.5493893 C9.62889886,40.8729237 9.01730705,41.2815988 8.23582863,41.8094707 C8.13389666,41.8605551 8.09991934,41.8775832 7.99798737,41.9627239 L7.91304407,42.0308364 C7.77713478,42.1840895 7.62423682,42.2862583 7.48832753,42.4224833 C7.43736155,42.4735677 7.36940691,42.5416802 7.31844092,42.5927646 C7.26747494,42.643849 7.19952029,42.7119615 7.14855431,42.7630459 C7.04662234,42.8311584 6.99565636,42.8992709 6.87673573,43.0184678 C6.41804187,43.4611991 6.11224597,43.9720429 5.90838203,44.5850555 C5.63656345,45.3513212 5.58559747,46.0835307 6.46900786,46.5432901 C6.67287179,46.6454589 6.96167903,46.8157402 6.68986045,47.1222465 C6.57093982,47.2754996 6.33309857,47.3776684 6.62190581,47.5649778 C6.80878108,47.7012028 6.9786677,47.6841747 7.16554297,47.5820059 C7.48832753,47.3946965 7.69219147,47.1733309 7.65821415,46.7816839 C7.62423682,46.3219245 7.36940691,46.0494745 6.94469037,45.9643338 C6.24815526,45.8281088 6.16321195,45.45349 6.26514392,44.8064212 C6.40105321,43.9379867 6.67287179,43.6655366 7.02963368,43.1036084 C7.16554297,42.9503553 7.18253163,42.9333271 7.2844636,42.8311584 C7.35241824,42.7630459 7.40338423,42.6949334 7.47133887,42.643849 C7.5053162,42.6268208 7.52230486,42.6097927 7.53929352,42.5757365 C7.69219147,42.4224833 7.96401005,42.1500333 8.01497603,42.115977 L8.28679462,41.9286676 C8.30378328,41.9116395 8.32077194,41.9116395 8.3377606,41.8946114 C8.37173792,41.8775832 8.38872658,41.8605551 8.42270391,41.843527 C9.0852617,41.3667394 9.84975145,41.043205 10.5632752,40.6345299 C12.1941867,40.1747705 13.8420869,39.7831236 15.540953,39.9874611 C16.696182,40.1236861 17.9363542,40.0726017 18.9386852,40.8048112 C20.0939142,41.6562176 21.2151659,42.5757365 22.3364175,43.4782272 C23.7634651,44.6191118 25.1735239,45.7940525 26.9063674,46.4751776 C28.4183583,47.054134 29.9133604,46.8838527 31.0176234,45.8791932 C33.8717185,43.3249741 36.3180858,40.4131643 37.7451333,36.7350888 C38.9513283,38.2846484 40.5822397,39.1019985 42.4849698,39.4595892 C42.875709,39.5277017 43.0455956,39.6979829 43.028607,40.1407143 C43.0116183,41.043205 43.0625843,41.9456958 43.1645163,42.8481865 C43.5382668,46.117587 45.7637814,47.7182309 48.9406611,46.9349371 C51.9136768,46.2027276 53.4936223,43.5293116 52.6951552,40.5834456 C52.5762346,40.1747705 52.4912913,39.7490673 52.3723707,39.306336 C54.512942,39.2041672 56.6025473,39.306336 58.6921527,39.1530829 C61.5632364,38.9487453 64.4173315,38.7103516 67.2714266,38.4038453 C71.1788187,37.9951702 75.1031995,37.8078608 79.0275803,38.097339 C80.2507639,38.1995077 81.4739475,38.3868171 82.6971311,38.6252109 C83.8523601,38.8465766 84.7527591,40.3450518 84.7867364,41.9286676 C84.8546911,44.5680274 83.8183827,46.8327683 82.3063919,48.9101998 C82.3063919,48.9101998 82.3063919,48.9101998 82.3063919,48.9101998 C82.2724146,48.9953405 82.2554259,49.063453 82.2214486,49.1485936 C82.0685506,49.3018468 81.9156527,49.4550999 81.7627547,49.6083531 C81.7117887,49.6594375 81.6778114,49.7105218 81.6268454,49.7616062 C81.5758795,49.8467469 81.4569588,49.9318875 81.6098568,50 C81.6268454,50 81.6948001,49.8978312 81.7457661,49.8467469 C81.7967321,49.7956625 81.8646867,49.7445781 81.9156527,49.6764656 C82.0685506,49.5232124 82.2044599,49.3869874 82.3573579,49.2337343 C82.3573579,49.2337343 82.3573579,49.2337343 82.3573579,49.2337343 C82.3913352,49.1656218 82.4083239,49.0804811 82.4423012,49.0123686 C82.5612218,48.8931717 82.6971311,48.791003 82.7990631,48.6718061 C84.5319065,46.3048964 85.6871355,43.6995929 85.9419654,40.770755 C86.2477613,38.3016765 85.3643509,36.5137231 82.8330404,35.6623168 Z M43.929006,32.9207882 C44.1668473,30.9966099 44.5575865,30.7241598 46.3583846,31.1668911 C47.8533868,31.5244818 49.2294683,32.1034381 50.1638447,33.4316321 C50.8433912,34.3852072 50.6904932,34.896051 49.5862302,35.2195854 C48.6688425,35.4920355 47.7344661,35.696373 46.8680444,35.6112324 C46.4263392,35.6112324 46.086566,35.6452886 45.7467928,35.6112324 C44.2178133,35.423923 43.7251421,34.6917135 43.929006,32.9207882 Z M51.5399263,43.1887491 C49.8410601,44.2785492 46.7661125,43.6655366 45.6448608,41.979752 C45.4749742,41.7243301 45.3220762,41.4518801 45.2201443,41.17943 C44.8463937,40.1236861 45.0672463,39.8171798 46.6302032,39.8512361 C48.19316,40.0896299 50.0109468,40.8899519 51.5399263,42.2862583 C51.8966882,42.5757365 52.0495861,42.8652146 51.5399263,43.1887491 Z"/>
    <path d="M12.4459539,34.0183869 C14.6318586,34.3094175 16.2325604,35.5058766 17.8504741,36.7346725 C19.3823286,37.8987948 20.8453356,39.1275907 22.7042152,39.8228305 C24.1672222,40.3725549 25.664653,40.2755447 26.8178468,39.4024529 C29.3824121,37.462249 31.4478338,35.036994 32.9624764,32.30454 C34.3738479,29.7661065 34.6664494,26.9528107 34.1845176,24.1233465 C33.8230688,22.0052905 32.6870869,20.2591069 30.8454192,18.852459 C30.4323348,20.0650865 30.0536742,21.2130405 29.6405898,22.3609946 C29.5201069,22.7166986 29.6578017,22.8945507 29.8815557,23.1370762 C30.5183941,23.8484843 31.1724443,24.5760608 31.7404352,25.335974 C33.1518068,27.2438413 33.3411371,28.2301116 31.7232234,30.493683 C30.2774282,32.5308971 28.1947946,33.937545 26.0433137,35.2633511 C24.2704933,36.3628 22.4804612,36.3789684 20.6387935,35.5867184 C19.6405063,35.1663409 18.6938547,34.5842797 17.6611438,34.244744 C13.4958767,32.9027696 9.51993983,33.4363257 5.73333333,35.4573715 C6.335748,35.4897082 6.7660442,35.1016674 7.28239963,34.9238154 C8.91752516,34.3255858 10.5698625,33.759693 12.4459539,34.0183869 Z"/>
    <path d="M10.3635162 31.6730138C10.5840166 31.9632926 10.7875553 32.0600522 11.2115945 31.866533 12.8568663 31.140836 14.5869459 30.7860508 16.4018334 30.8344306 17.3007963 30.8505572 18.2167208 30.8021774 19.0987222 30.6892912 20.5913399 30.495772 21.4563797 29.5120495 21.8804189 28.4638205L22.0839576 27.6413639C22.2196502 26.9640467 21.8804189 26.3673625 21.4563797 25.8029316 20.1842624 24.093512 19.4209919 22.1260669 18.3184902 20.3198877 16.9106803 18.013784 14.8752925 16.8687954 12.0257496 17.3042136 10.8045169 17.4816062 9.58328423 17.933151 9.71897675 19.6909504 9.78682301 20.5295335 9.73593831 21.3842433 9.73593831 22.2066999 9.92251553 22.2873329 9.92251553 22.1744467 9.95643866 22.1099403 10.8893247 20.4489005 12.4497887 20.0296089 14.1798683 20.9649517 15.1806007 21.4971295 15.9438711 22.2712063 16.6392953 23.1259161 17.8096433 24.5450568 18.912145 25.9964508 19.8959158 27.5929841 17.3007963 27.6413639 14.8413694 28.1735417 12.3819425 28.5928333 10.9741326 28.8186057 9.61720736 29.2217707 8.17547433 29.2378973 5.19023889 29.2862771 2.44246536 30.0442272 0 31.7213936.03392313 31.7536468.06784626 31.8020266.118730955 31.8342798.966809205 31.4311148 1.78096433 30.9956966 2.64600414 30.6409114 3.81635213 30.1571134 5.07150794 29.4636697 6.32666375 29.7862016 7.75143521 30.1571134 9.37974545 30.334506 10.3635162 31.6730138zM23.1433174 15.0389216C23.6932849 18.2450213 24.4916247 21.4345948 23.9239164 24.7067997 23.7642484 25.6653244 23.6223213 26.6238491 23.2852445 27.5658475L23.0900947 28.1938464C22.9304268 28.8218453 22.8594632 29.4498442 23.0013903 30.127422 23.4094307 31.8792085 25.1657784 33.0856275 27.0285714 32.7220492 25.9286365 32.4906811 24.8996651 32.308892 24.2432523 31.3503673 23.4094307 30.0943694 23.356208 28.8879505 24.136807 27.5989 25.0415922 26.0784816 25.3964099 24.4093266 25.5028552 22.707119 25.7512276 18.7738625 25.0061104 14.9067113 24.4029203 11.0230337 23.9239164 7.93261798 23.3739489 4.85872851 24.456143 1.78483904 24.7045154 1.20641898 24.9528878.627998923 25.2012602.0661051498 25.1302966.0495788624 25.0593331.0165262875 24.9883695 0 24.7754789.545367486 24.5448474 1.09073497 24.3319568 1.61957617 23.8706937 2.87557402 23.3739489 4.11504558 22.7530179 5.30493827 22.2917549 6.23041037 22.0433825 7.20546133 22.1320869 8.23009115 22.3449775 10.5272451 22.735277 12.7748202 23.1433174 15.0389216zM60.9805908 25.9566288C61.5706604 26.1245766 62.0132126 26.5444463 62.439374 26.9811108 63.4719958 28.0391824 64.193192 27.9887981 65.1438597 26.8635473 65.4061128 26.5612411 65.4225036 25.8222704 65.9470099 25.9902183 66.3731713 26.1077818 66.7173786 26.5780359 67.0615859 26.9307264 67.2582757 27.1154691 67.3894023 27.4009805 67.602483 27.5521336 67.8647361 27.7368763 68.1433801 28.0055929 68.5531507 27.7872606 69.5038184 27.283417 69.9791522 26.3932932 70.4380952 25.4695799 69.5693817 25.9230392 69.5693817 25.9230392 68.9629212 25.2848372 68.8481855 25.1672737 68.7334497 25.0497102 68.618714 24.9321467 67.0779767 23.3534366 66.9140685 23.3702314 65.668366 25.1672737 65.2913771 25.7215017 64.9143881 25.7886809 64.4062727 25.3520164 63.9473296 24.9489415 63.4883866 24.5626614 62.9966619 24.2267656 62.0459943 23.5717689 62.0459943 23.5885637 61.3739705 24.4954822 61.1772807 24.7641988 60.9805908 25.0161206 60.7839009 25.2848372 60.5544294 25.5703486 60.4888661 25.8222704 60.9805908 25.9566288z"/>
    <path d="M62.5499854 22.7763051C63.2517992 23.1093789 63.8700638 23.5590285 64.3880692 24.1585614 64.6554269 24.4749815 65.0230436 24.6914795 65.4909195 24.5415963 66.1426037 24.341752 67.1619048 22.7763051 67.1619048 21.9103132 66.6271895 22.7429977 66.1426037 22.3433091 65.6914377 21.9436206 65.3572407 21.6605078 65.0564633 21.327434 64.7222663 21.0443213 63.8366441 20.2615979 63.5358667 20.2949052 62.9176022 21.2441656 62.7337938 21.5272783 62.5834051 21.8103911 62.3995967 22.0935038 62.1990785 22.3766165 62.1489489 22.5931145 62.5499854 22.7763051zM25.6712734 17.0234493C26.3728227 17.3951427 26.9927965 17.8851022 27.5311948 18.4764326 27.9717025 18.9663921 28.4611556 18.9832873 28.9506086 18.4933278 29.5379522 17.8851022 29.8968844 17.1248202 30.3047619 16.2800625 29.2769106 16.7024413 29.2769106 16.7024413 28.4611556 15.908369 28.1837988 15.6380466 27.8738119 15.4015144 27.6127703 15.1311919 27.3027834 14.810184 26.9601663 14.6243373 26.5196586 14.8608694 26.2096717 15.0467161 25.3286563 16.5334898 25.3939167 16.7531268 25.4265469 16.9220783 25.5570677 16.9727638 25.6712734 17.0234493z"/>
  </g>
</svg>
