<?xml version="1.0" encoding="utf-8"?>
<!-- Generator: Adobe Illustrator 22.0.1, SVG Export Plug-In . SVG Version: 6.00 Build 0)  -->
<svg version="1.1" id="Layer_1" xmlns="http://www.w3.org/2000/svg" xmlns:xlink="http://www.w3.org/1999/xlink" x="0px" y="0px"
	 viewBox="0 0 200.1 213.1" style="enable-background:new 0 0 200.1 213.1;" xml:space="preserve">
<style type="text/css">
	.st0{fill:#492F8C;}
	.st1{fill:#FFFFFF;}
</style>
<title>tagmond</title>
<path class="st0" d="M129.9,34.8c8.2-7.2,14.5-18,14.8-29.6c-10.1-1-23.2,3.4-31.6,10.6c-7.5,6.4-14.8,17.2-14.9,28.6
	C109.3,46.9,121.7,42.1,129.9,34.8z"/>
<g>
	<path class="st0" d="M41.7,177.8c1.4,1.8,2.9,3.5,4.4,5.2l20.3-16.3c-1.5-1.5-2.9-3-4.2-4.7c-16.3-21-12.4-51.2,8.6-67.4
		c19.7-15.2,47.4-12.8,64.2,4.8l-0.3-0.4C96.4,56.2,37.7,73.3,37.7,73.3C6.7,144.9,41.7,177.8,41.7,177.8z"/>
	<path class="st1" d="M45.9,184.9l-0.9-1c-1.5-1.6-3-3.4-4.4-5.2c-1-1-9.2-9.3-13.9-25.9c-2.9-10.1-3.8-21.2-2.9-33
		c1.2-14.7,5.4-30.5,12.6-47l0.3-0.6l0.6-0.2c0.6-0.2,15.1-4.3,34.6-3.3c11.4,0.6,22.2,2.9,32,6.9c12.2,4.9,22.9,12.5,31.8,22.3
		l0.1,0.1l0.3,0.4l-2.1,1.8c-7.9-8.3-18.6-13.4-30.1-14.3c-11.6-0.9-23,2.5-32.2,9.6c-9.9,7.6-16.2,18.6-17.7,31
		c-1.6,12.4,1.8,24.6,9.4,34.5c1.3,1.6,2.6,3.2,4.1,4.6l1.1,1.1L45.9,184.9z M38.7,74.5c-6.8,15.9-10.9,31.1-12.1,45.3
		c-1,11.4,0,22.2,2.7,32c4.7,16.7,13.2,24.8,13.3,24.9l0.1,0.1l0.1,0.1c1.1,1.4,2.2,2.8,3.4,4.1l18.1-14.5c-1.1-1.2-2.2-2.4-3.2-3.7
		c-8.1-10.5-11.6-23.4-10-36.6c1.7-13.1,8.3-24.8,18.8-32.9c9.7-7.5,21.9-11.2,34.1-10.2c4.9,0.4,9.7,1.5,14.2,3.2
		c-4.8-3.2-9.9-6-15.4-8.2c-9.5-3.8-19.9-6.1-31.1-6.7C55,70.6,41.7,73.8,38.7,74.5z"/>
</g>
<g>
	<path class="st0" d="M132.3,183.4l4.5-8.9l-20.9,7.6l-4.6-3.8C93.6,183,74,177,62,161.6c-15-19.4-12.6-46.7,4.7-63.2l-0.3,0.3
		c-42,37.7-25.1,95.4-25.1,95.4c70.5,30.6,102.8-3.9,102.8-3.9c1.8-1.4,3.5-2.8,5.1-4.3L132.3,183.4z"/>
	<path class="st1" d="M95.6,207.8c-2.8,0-5.7-0.1-8.6-0.4c-14.4-1.2-30-5.4-46.1-12.4l-0.5-0.2l-0.1-0.5c0-0.1-4.3-14.8-3.2-34
		c0.6-11.2,2.9-21.8,6.7-31.4c4.8-12,12.2-22.5,21.9-31.2l0.3-0.3l1.5,1.6c-8.2,7.9-13.3,18.5-14.2,29.8
		c-0.9,11.5,2.5,22.8,9.5,31.9c11.4,14.7,30.3,21.1,48.2,16.5l0.5-0.1l4.5,3.7l22.9-8.3l-5.1,10l17.6,2.5l-1.7,1.5
		c-1.7,1.6-3.4,3-5.1,4.3c-0.9,0.9-9,9-25.4,13.7C112,206.8,104,207.8,95.6,207.8z M42.2,193.3c15.7,6.8,30.8,10.8,44.9,12
		c11.3,0.9,21.9,0,31.6-2.7c8.6-2.4,14.8-5.9,18.6-8.3c4-2.7,6.1-4.8,6.1-4.8l0.1-0.1l0.1-0.1c1.1-0.9,2.2-1.7,3.3-2.7l-16.1-2.3
		l4-7.7l-18.8,6.9l-4.6-3.8c-3.9,1-7.8,1.4-11.7,1.4c-14.8,0-29-6.8-38.3-18.8c-7.4-9.5-10.9-21.4-10-33.4
		c0.4-5.7,1.9-11.2,4.2-16.3c-3.9,5.3-7.1,11.2-9.6,17.4c-3.8,9.4-6,19.7-6.6,30.7C38.3,177.3,41.5,190.6,42.2,193.3z"/>
</g>
<g>
	<path class="st0" d="M158.7,87.6c-1.4-1.8-2.9-3.5-4.4-5.1l-20.2,16.3c1.5,1.5,2.9,3,4.2,4.7c16.2,20.9,12.4,51-8.6,67.2
		c-19.6,15.2-47.2,12.8-63.9-4.8l0.3,0.3c38.1,42.5,96.5,25.4,96.5,25.4C193.5,120.3,158.7,87.6,158.7,87.6z"/>
	<path class="st1" d="M134.7,196c-2,0-4-0.1-6.1-0.2c-11.4-0.6-22-2.9-31.7-6.8c-12.1-4.9-22.6-12.3-31.4-22
		c-0.2-0.2-0.3-0.3-0.5-0.5l1.6-1.5l0.4,0.4c0,0,0.1,0.1,0.1,0.1c7.9,8,18.4,12.9,29.7,13.8c11.6,0.9,23.1-2.5,32.3-9.7
		c9.9-7.7,16.2-18.7,17.8-31.1c1.6-12.4-1.8-24.7-9.4-34.6c-1.2-1.6-2.5-3.1-4.1-4.6l-0.9-0.9l22-17.7l0.7,0.7
		c1.5,1.6,3,3.3,4.4,5.1c0.9,0.8,9.1,9.1,13.8,25.7c2.9,10.1,3.8,21.1,2.8,32.8c-1.2,14.6-5.4,30.3-12.5,46.7l-0.2,0.5l-0.5,0.1
		C162.8,192.7,151,196,134.7,196z M80,177.3c5.4,4,11.3,7.2,17.7,9.8c9.5,3.8,19.9,6.1,31,6.7c17,0.9,30.4-2.3,33.1-3
		c6.9-15.9,10.9-31.2,12.1-45.4c1-11.4,0-22.2-2.7-32c-2.5-8.7-5.9-15-8.4-18.8c-2.7-4.1-4.9-6.1-4.9-6.1l-0.1-0.1l-0.1-0.1
		c-1.2-1.5-2.4-3-3.6-4.3l-18.5,14.9c1.2,1.3,2.4,2.6,3.4,3.9c8,10.3,11.5,23.2,9.9,36.2c-1.7,13-8.3,24.5-18.6,32.5
		c-9.6,7.5-21.6,11.1-33.8,10.1C90.7,181.1,85.1,179.6,80,177.3z"/>
</g>
<g>
	<path class="st0" d="M59.9,70.4c19-1.4,48.2,1.7,72.7,26.2c2,1.8,3.8,3.8,5.5,6c15,19.4,12.6,46.8-4.7,63.4l0.3-0.3
		c42.1-37.8,25.2-95.7,25.2-95.7C102.6,45.5,70.6,62.5,59.9,70.4z"/>
	<path class="st1" d="M134,166.5l-1.2-1.3c8.3-7.9,13.3-18.6,14.2-30.1c0.9-11.6-2.5-23-9.6-32.1c-1.6-2.1-3.4-4-5.4-5.9l0,0
		c-24-24-52.4-27.3-72-25.9l-3,0.2l2.4-1.8c5-3.7,15.9-10.3,32.8-12.5c20.1-2.7,42.6,1.3,67.1,11.9l0.4,0.2l0.1,0.4
		c0,0.1,4.3,14.8,3.2,34c-0.6,11.2-2.9,21.8-6.7,31.4c-4.8,12-12.2,22.5-21.9,31.2L134,166.5z M133.2,96c2.1,1.9,3.9,3.9,5.6,6.1
		c7.4,9.5,10.9,21.4,10,33.3c-0.5,6.5-2.3,12.7-5.2,18.4c4.5-5.9,8.2-12.4,11-19.3c3.8-9.4,6-19.8,6.6-30.8
		c0.9-17.1-2.4-30.6-3.1-33c-24-10.4-46.1-14.3-65.8-11.6c-14,1.9-23.9,6.8-29.5,10.5c10.9-0.5,21.5,0.7,31.5,3.6
		C109.1,77.2,122.1,84.9,133.2,96z"/>
</g>
</svg>
