<svg xmlns="http://www.w3.org/2000/svg" width="173" height="25" viewBox="0 0 173 25">
  <g fill="none">
    <path fill="#738395" d="M71.2677803 5.16666667L71.2677803 5.84615385C71.2677803 11.7564103 71.2677803 17.6538462 71.2677803 23.5641026 71.2677803 24.4230769 71.3833705 24.3076923 70.5228656 24.3205128 69.8806978 24.3205128 69.2513734 24.3205128 68.6092056 24.3205128L68.1468448 24.3205128C68.0312546 24.1538462 68.0697847 24.0128205 68.0697847 23.8717949 68.0697847 16.3205128 68.0697847 8.78205128 68.0697847 1.23076923 68.0697847 1.1025641 68.0697847.987179487 68.0826281.858974359 68.0826281.794871795 68.1468448.743589744 68.2110616.743589744 68.2881218.743589744 68.3780252.730769231 68.4550854.730769231 69.7907944.730769231 71.1265033.743589744 72.4622123.717948718 72.7704529.717948718 72.8988864.833333333 73.0016333 1.08974359 73.7465479 2.88461538 74.4914625 4.67948718 75.2492205 6.47435897 76.8546399 10.3076923 78.4729027 14.1410256 80.0783222 17.974359 80.142539 18.1410256 80.2324425 18.3076923 80.3095026 18.474359 80.3351893 18.525641 80.360876 18.5384615 80.4122494 18.5128205 80.4507795 18.4871795 80.4893096 18.474359 80.5021529 18.4487179 80.5663697 18.3205128 80.6177431 18.1923077 80.6691166 18.0512821 81.478248 16.1025641 82.3002227 14.1538462 83.1093541 12.2179487 84.6248701 8.58974359 86.140386 4.96153846 87.655902 1.33333333 87.7072754 1.21794872 87.7458055 1.1025641 87.7843356.987179487 87.8485523.769230769 87.9898293.717948718 88.1953229.717948718 89.0815145.730769231 89.967706.717948718 90.8410542.717948718 91.3162584.717948718 91.7914625.717948718 92.2538233.717948718 92.6519673.717948718 92.6519673.717948718 92.6519673 1.14102564 92.6519673 1.26923077 92.6519673 1.38461538 92.6519673 1.51282051L92.6519673 23.5384615C92.6519673 23.7179487 92.6519673 23.9102564 92.6519673 24.0897436 92.6519673 24.2435897 92.5620638 24.3076923 92.4079436 24.3076923L89.5310319 24.3076923C89.389755 24.0897436 89.4411284 23.8846154 89.4411284 23.6794872 89.4411284 22.5512821 89.4411284 21.4230769 89.4411284 20.2948718L89.4411284 5.83333333C89.4411284 5.28205128 89.4154417 5.17948718 89.3255382 5.23076923 89.1457313 5.34615385 89.1200445 5.56410256 89.0429844 5.74358974 86.5642168 11.7435897 84.0982925 17.7435897 81.6323682 23.7564103 81.5809948 23.8717949 81.5296214 23.9871795 81.4910913 24.1025641 81.4525612 24.2435897 81.3112843 24.3333333 81.1571641 24.3076923 80.6177431 24.3076923 80.0911656 24.2948718 79.5517446 24.3076923 79.3719376 24.3333333 79.1921307 24.2051282 79.1407572 24.0384615 78.7426132 23.0512821 78.3316258 22.0641026 77.9206385 21.0897436 75.8143281 15.9615385 73.6951745 10.8205128 71.5888641 5.67948718 71.511804 5.5 71.4219005 5.32051282 71.3448404 5.14102564L71.2677803 5.16666667zM129.486711 4.96153846C129.473868 5.26923077 129.461024 5.46153846 129.461024 5.66666667 129.461024 10.3076923 129.461024 14.9358974 129.461024 19.5769231 129.461024 20.9487179 129.461024 22.3205128 129.461024 23.7051282 129.461024 23.8461538 129.461024 23.9871795 129.461024 24.1410256 129.461024 24.2435897 129.383964 24.3205128 129.294061 24.3333333 129.281218 24.3333333 129.281218 24.3333333 129.268374 24.3333333 128.279436 24.3333333 127.303341 24.3333333 126.314402 24.3333333 126.198812 24.0641026 126.250186 23.8205128 126.250186 23.5769231 126.250186 16.7435897 126.250186 9.92307692 126.250186 3.08974359 126.250186 2.3974359 126.250186 1.69230769 126.250186 1 126.250186.782051282 126.288716.756410256 126.507053.756410256 127.740015.756410256 128.972977.756410256 130.205939.756410256 130.347216.743589744 130.488493.807692308 130.565553.935897436 130.655457 1.07692308 130.74536 1.20512821 130.835264 1.34615385 134.893764 7.38461538 138.952264 13.4358974 143.010765 19.474359 143.139198 19.6666667 143.190572 19.9358974 143.473125 19.9871795 143.563029 19.7692308 143.511656 19.5512821 143.511656 19.3333333 143.511656 13.3846154 143.511656 7.43589744 143.511656 1.48717949 143.511656.666666667 143.421752.769230769 144.230883.769230769 144.924425.769230769 145.630809.769230769 146.32435.769230769 146.722494.769230769 146.722494.782051282 146.722494 1.19230769 146.722494 1.29487179 146.722494 1.3974359 146.722494 1.5 146.722494 8.88461538 146.722494 16.2692308 146.722494 23.6538462 146.722494 24.4358974 146.812398 24.3589744 146.05464 24.3589744 145.065702 24.3589744 144.076763 24.3461538 143.100668 24.3717949 142.818114 24.3974359 142.535561 24.2564103 142.394284 24.0128205 141.520935 22.6923077 140.621901 21.3974359 139.735709 20.0897436 136.460653 15.2692308 133.198441 10.4487179 129.936229 5.62820513 129.794952 5.35897436 129.653675 5.15384615 129.486711 4.96153846zM109.489607 24.8974359C107.267706 24.8846154 105.315516 24.4871795 103.491759 23.5384615 100.794655 22.1538462 98.9580549 20 97.8663697 17.1923077 96.5563474 13.8076923 96.7233111 9.35897436 98.7397179 5.97435897 100.486414 3.02564103 103.042242 1.17948718 106.381514.423076923 108.757535-.141025641 111.236303-.0128205128 113.548107.769230769 116.707572 1.83333333 118.980846 3.8974359 120.432146 6.8974359 122.127468 10.4102564 122.076095 15.1538462 120.162435 18.6410256 118.415739 21.8205128 115.770007 23.7692308 112.250928 24.5769231 111.33905 24.7820513 110.414328 24.8846154 109.489607 24.8974359zM100.447884 12.6666667C100.460728 13.3076923 100.524944 13.9487179 100.640535 14.5897436 101.000148 16.3589744 101.719376 17.9487179 102.990869 19.2435897 105.354046 21.6538462 108.243801 22.3589744 111.467483 21.6538462 114.151745 21.0641026 116.091091 19.4230769 117.27268 16.9358974 118.325835 14.7051282 118.505642 12.3717949 117.940535 9.97435897 117.619451 8.6025641 117.0415 7.33333333 116.129621 6.25641026 113.753601 3.47435897 110.696882 2.6025641 107.190646 3.37179487 104.596288 3.93589744 102.708315 5.52564103 101.501039 7.88461538 100.756125 9.33333333 100.447884 10.8846154 100.447884 12.6666667zM152.296511.782051282C152.476318.692307692 152.643281.730769231 152.797402.730769231 155.43029.730769231 158.050334.717948718 160.683222.730769231 162.378545.743589744 164.035338.961538462 165.640757 1.55128205 168.543356 2.6025641 170.598293 4.53846154 171.818411 7.35897436 172.691759 9.34615385 173.064217 11.4487179 172.84588 13.6025641 172.422049 17.6794872 170.418486 20.7564103 166.783816 22.7307692 165.22977 23.5641026 163.50876 24.0769231 161.74922 24.2307692 161.004306 24.2948718 160.272235 24.3205128 159.540163 24.3205128 157.318263 24.3205128 155.109206 24.3205128 152.887305 24.3205128 152.720341 24.3205128 152.566221 24.3205128 152.399258 24.3076923 152.335041 24.3076923 152.283667 24.2564103 152.270824 24.1923077 152.257981 24.1282051 152.257981 24.0769231 152.257981 24.0128205 152.257981 23.8717949 152.257981 23.7307692 152.257981 23.5769231 152.257981 16.1923077 152.257981 8.80769231 152.257981 1.43589744 152.257981 1.20512821 152.219451.987179487 152.296511.782051282zM155.46882 21.3076923C155.648627 21.3205128 155.751373 21.3333333 155.841277 21.3333333 156.997179 21.3333333 158.140238 21.3461538 159.29614 21.3333333 160.143801 21.3333333 160.978619 21.2692308 161.813437 21.1282051 162.995026 20.9230769 164.138085 20.5897436 165.178396 20 167.798441 18.5384615 169.224053 16.3076923 169.455234 13.3205128 169.532294 12.2564103 169.44239 11.1794872 169.185523 10.1538462 168.491982 7.23076923 166.681069 5.28205128 163.881218 4.25641026 162.828062 3.87179487 161.723534 3.75641026 160.606162 3.75641026 159.103489 3.74358974 157.61366 3.74358974 156.110987 3.74358974 155.391759 3.74358974 155.46882 3.64102564 155.46882 4.41025641 155.46882 9.82051282 155.46882 15.2307692 155.46882 20.6538462L155.46882 21.3076923zM60.1582777 5.05128205C58.8739421 3.65384615 57.1529324 2.70512821 55.2778025 2.37179487 51.7587231 1.69230769 48.6249443 2.46153846 46.0562732 5.02564103 44.8233111 6.25641026 44.0527097 7.76923077 43.6417223 9.44871795 42.9995546 12.0512821 43.0894581 14.6153846 44.1682999 17.1025641 45.5553823 20.3076923 48.0213066 22.1666667 51.4633259 22.7435897 52.7476615 22.9615385 54.0448404 22.8974359 55.3291759 22.7820513 56.3181143 22.7179487 57.281366 22.525641 58.218931 22.2179487 58.7069785 22.0512821 59.1821826 21.8461538 59.6317001 21.6025641 59.772977 21.5512821 59.8500371 21.4102564 59.8371938 21.2564103 59.8371938 21.1794872 59.8371938 21.0897436 59.8371938 21.0128205 59.8371938 18.7179487 59.8371938 16.4230769 59.8371938 14.1282051 59.8371938 14 59.8371938 13.8846154 59.8243504 13.7564103 59.8243504 13.6794872 59.7601336 13.6025641 59.6830735 13.6025641 59.6830735 13.6025641 59.6702301 13.6025641 59.6702301 13.6025641 59.5032665 13.6025641 59.3363029 13.6025641 59.1821826 13.5897436L54.8668151 13.5897436C54.6998515 13.5897436 54.5328879 13.5897436 54.3787676 13.5897436 54.2631774 13.5897436 54.1732739 13.525641 54.1732739 13.4102564 54.1732739 12.8589744 54.1732739 12.2948718 54.1732739 11.7435897 54.1732739 11.6538462 54.2503341 11.6025641 54.3402376 11.6025641 54.4686711 11.5897436 54.5842613 11.5897436 54.7126949 11.5897436L61.5582034 11.5897436C61.6609503 11.5897436 61.7636971 11.5897436 61.8664439 11.5897436 61.9563474 11.5769231 62.0462509 11.6538462 62.0590943 11.7435897 62.0590943 11.7564103 62.0590943 11.7692308 62.0590943 11.7692308 62.0590943 11.9102564 62.0590943 12.0512821 62.0590943 12.2051282L62.0590943 22.1794872C62.0462509 22.2820513 62.0462509 22.3846154 62.0590943 22.4871795 62.084781 22.7051282 61.9691908 22.8205128 61.7893838 22.9102564 60.530735 23.5897436 59.1693393 24.1025641 57.7694135 24.4102564 56.2025241 24.7564103 54.5971047 24.9102564 53.0045286 24.8846154 51.2193022 24.8589744 49.4982925 24.525641 47.8671863 23.7820513 44.9132146 22.4358974 42.9353378 20.1794872 41.8308092 17.1410256 41.1757981 15.3589744 40.9959911 13.5128205 41.0858946 11.6410256 41.1629547 9.73076923 41.6766889 7.87179487 42.5885672 6.19230769 44.2453601 3.15384615 46.8011878 1.25641026 50.1533036.461538462 52.6449146-.141025641 55.2521158-.0256410256 57.67951.807692308 59.0409057 1.26923077 60.2995546 2.01282051 61.3527097 2.98717949 61.4554566 3.08974359 61.5582034 3.17948718 61.6609503 3.28205128 61.725167 3.34615385 61.725167 3.43589744 61.6609503 3.5 61.6609503 3.5 61.6609503 3.5 61.6609503 3.5 61.1600594 4 60.6848552 4.5 60.1582777 5.05128205zM39.0951745 24.3076923L36.8861173 24.3076923C36.7833705 24.3205128 36.6806236 24.2564103 36.6420935 24.1538462 36.5650334 23.9615385 36.4879733 23.7820513 36.3980698 23.5897436 35.7173719 21.9358974 35.0495174 20.2948718 34.3688196 18.6410256 34.2917595 18.4487179 34.201856 18.2692308 34.1119525 18.0512821L22.2190052 18.0512821C22.0905716 18.0512821 21.9749814 18.0512821 21.8465479 18.0512821 21.6795843 18.0384615 21.5896808 18.1282051 21.5383073 18.2820513 21.3199703 18.8076923 21.0887899 19.3333333 20.8576095 19.8589744 20.3053452 21.1538462 19.7402376 22.4487179 19.1879733 23.7564103 19.1365999 23.8717949 19.0852264 23.974359 19.033853 24.0897436 18.9953229 24.2307692 18.854046 24.3205128 18.7127691 24.3076923 18.057758 24.3076923 17.4027468 24.3076923 16.7477357 24.3076923 16.6835189 24.1153846 16.7862658 23.974359 16.8504826 23.8333333 18.1091314 20.9615385 19.3549369 18.0897436 20.6135857 15.2179487 22.6428359 10.5897436 24.6720861 5.94871795 26.7013363 1.32051282 27.0095768.615384615 26.8426132.730769231 27.6389013.717948718 28.0755754.717948718 28.4994061.730769231 28.9360802.717948718 29.1287305.692307692 29.3085375.807692308 29.3599109.987179487 29.6809948 1.75641026 30.014922 2.53846154 30.3360059 3.30769231 33.1872309 10.0769231 36.0384558 16.8589744 38.9025241 23.6282051 38.9795843 23.8461538 39.1208612 24.025641 39.0951745 24.3076923zM27.9342984 3.30769231C26.149072 7.51282051 24.3766889 11.7179487 22.5914625 15.9102564 22.5786192 15.9358974 22.6043059 15.9871795 22.6171492 16.0641026L33.2386043 16.0641026C33.2899777 15.8589744 33.2000742 15.7435897 33.1487008 15.6153846 31.4405345 11.5128205 29.7708983 7.41025641 27.9342984 3.30769231zM10.2746845 24.3076923L8.28396437 24.3076923C8.16837416 24.3205128 8.07847068 24.2435897 8.06562732 24.1282051 8.06562732 24.1153846 8.06562732 24.0897436 8.06562732 24.0769231 8.06562732 23.8974359 8.06562732 23.7051282 8.06562732 23.525641 8.06562732 16.8461538 8.06562732 10.1538462 8.06562732 3.47435897 8.06562732 2.62820513 8.18121752 2.75641026 7.35924276 2.74358974 5.13734224 2.74358974 2.92828508 2.74358974.706384558 2.74358974.565107647 2.74358974.423830735 2.74358974.269710468 2.74358974.0385300668 2.73076923 0 2.70512821 0 2.5 0 1.98717949 0 1.47435897 0 .961538462 0 .756410256.0385300668.730769231.269710468.717948718.410987379.717948718.552264291.717948718.706384558.717948718L17.659614.717948718C17.8265776.717948718 17.9935412.717948718 18.1476615.717948718 18.2632517.705128205 18.3659985.794871795 18.3659985.91025641 18.3659985.923076923 18.3659985.935897436 18.3659985.948717949 18.3659985 1.46153846 18.3659985 1.97435897 18.3659985 2.48717949 18.3788419 2.6025641 18.3017817 2.70512821 18.1861915 2.73076923 18.1733482 2.73076923 18.1605048 2.73076923 18.1476615 2.73076923 17.9806978 2.73076923 17.8137342 2.73076923 17.659614 2.73076923L10.9296956 2.73076923C10.1719376 2.73076923 10.2618411 2.67948718 10.2618411 3.38461538 10.2618411 10.1153846 10.2618411 16.8333333 10.2618411 23.5641026L10.2746845 24.3076923z"/>
    <path fill="#FFF" d="M100.435041,12.6666667 C100.435041,10.8846154 100.756125,9.33333333 101.501039,7.88461538 C102.708315,5.52564103 104.596288,3.93589744 107.190646,3.37179487 C110.696882,2.6025641 113.740757,3.47435897 116.129621,6.25641026 C117.054343,7.33333333 117.619451,8.6025641 117.940535,9.97435897 C118.505642,12.3717949 118.325835,14.7051282 117.27268,16.9358974 C116.091091,19.4230769 114.151745,21.0512821 111.467483,21.6538462 C108.243801,22.3589744 105.354046,21.6538462 102.990869,19.2435897 C101.719376,17.9487179 101.000148,16.3589744 100.640535,14.5897436 C100.524944,13.9487179 100.460728,13.3076923 100.435041,12.6666667 Z"/>
  </g>
</svg>
