<?xml version="1.0" encoding="utf-8"?>
<!-- Generator: Adobe Illustrator 22.0.1, SVG Export Plug-In . SVG Version: 6.00 Build 0)  -->
<svg version="1.1" id="Layer_1" xmlns="http://www.w3.org/2000/svg" xmlns:xlink="http://www.w3.org/1999/xlink" x="0px" y="0px"
	 viewBox="0 0 1355.9 213.1" style="enable-background:new 0 0 1355.9 213.1;" xml:space="preserve">
<style type="text/css">
	.st0{fill:#050404;}
	.st1{fill:#FFFFFF;}
</style>
<title>tagmond</title>
<path class="st0" d="M554.9,49.3v5.3c0,46.1,0,92.1,0,138.2c0,6.7,0.9,5.8-5.8,5.9c-5,0-9.9,0-14.9,0h-3.6c-0.9-1.3-0.6-2.4-0.6-3.5
	c0-58.9,0-117.7,0-176.6c0-1,0-1.9,0.1-2.9c0-0.5,0.5-0.9,1-0.9c0.6,0,1.3-0.1,1.9-0.1c10.4,0,20.8,0.1,31.2-0.1
	c2.4,0,3.4,0.9,4.2,2.9c5.8,14,11.6,28,17.5,42c12.5,29.9,25.1,59.8,37.6,89.7c0.5,1.3,1.2,2.6,1.8,3.9c0.2,0.4,0.4,0.5,0.8,0.3
	c0.3-0.2,0.6-0.3,0.7-0.5c0.5-1,0.9-2,1.3-3.1c6.3-15.2,12.7-30.4,19-45.5c11.8-28.3,23.6-56.6,35.4-84.9c0.4-0.9,0.7-1.8,1-2.7
	c0.5-1.7,1.6-2.1,3.2-2.1c6.9,0.1,13.8,0,20.6,0c3.7,0,7.4,0,11,0c3.1,0,3.1,0,3.1,3.3c0,1,0,1.9,0,2.9v171.8c0,1.4,0,2.9,0,4.3
	c0,1.2-0.7,1.7-1.9,1.7h-22.4c-1.1-1.7-0.7-3.3-0.7-4.9c0-8.8,0-17.6,0-26.4V54.5c0-4.3-0.2-5.1-0.9-4.7c-1.4,0.9-1.6,2.6-2.2,4
	c-19.3,46.8-38.5,93.6-57.7,140.5c-0.4,0.9-0.8,1.8-1.1,2.7c-0.3,1.1-1.4,1.8-2.6,1.6c-4.2,0-8.3-0.1-12.5,0
	c-1.4,0.2-2.8-0.8-3.2-2.1c-3.1-7.7-6.3-15.4-9.5-23c-16.4-40-32.9-80.1-49.3-120.2c-0.6-1.4-1.3-2.8-1.9-4.2L554.9,49.3z"/>
<path class="st0" d="M1008.2,47.7c-0.1,2.4-0.2,3.9-0.2,5.5c0,36.2,0,72.3,0,108.5c0,10.7,0,21.4,0,32.2c0,1.1,0,2.2,0,3.4
	c0,0.8-0.6,1.4-1.3,1.5c-0.1,0-0.1,0-0.2,0c-7.7,0-15.3,0-23,0c-0.9-2.1-0.5-4-0.5-5.9c0-53.3,0-106.5,0-159.8c0-5.4,0-10.9,0-16.3
	c0-1.7,0.3-1.9,2-1.9c9.6,0,19.2,0,28.8,0c1.1-0.1,2.2,0.4,2.8,1.4c0.7,1.1,1.4,2.1,2.1,3.2c31.6,47.1,63.2,94.3,94.8,141.4
	c1,1.5,1.4,3.6,3.6,4c0.7-1.7,0.3-3.4,0.3-5.1c0-46.4,0-92.8,0-139.2c0-6.4-0.7-5.6,5.6-5.6c5.4,0,10.9,0,16.3,0
	c3.1,0,3.1,0.1,3.1,3.3c0,0.8,0,1.6,0,2.4c0,57.6,0,115.2,0,172.8c0,6.1,0.7,5.5-5.2,5.5c-7.7,0-15.4-0.1-23,0.1
	c-2.2,0.2-4.4-0.9-5.5-2.8c-6.8-10.3-13.8-20.4-20.7-30.6c-25.5-37.6-50.9-75.2-76.3-112.8C1010.6,50.8,1009.5,49.2,1008.2,47.7z"/>
<path class="st0" d="M852.5,203.2c-17.3-0.1-32.5-3.2-46.7-10.6c-21-10.8-35.3-27.6-43.8-49.5c-10.2-26.4-8.9-61.1,6.8-87.5
	c13.6-23,33.5-37.4,59.5-43.3c18.5-4.4,37.8-3.4,55.8,2.7c24.6,8.3,42.3,24.4,53.6,47.8c13.2,27.4,12.8,64.4-2.1,91.6
	c-13.6,24.8-34.2,40-61.6,46.3C866.9,202.3,859.7,203.1,852.5,203.2z M782.1,107.8c0.1,5,0.6,10,1.5,15c2.8,13.8,8.4,26.2,18.3,36.3
	c18.4,18.8,40.9,24.3,66,18.8c20.9-4.6,36-17.4,45.2-36.8c8.2-17.4,9.6-35.6,5.2-54.3c-2.5-10.7-7-20.6-14.1-29
	c-18.5-21.7-42.3-28.5-69.6-22.5c-20.2,4.4-34.9,16.8-44.3,35.2C784.5,81.8,782.1,93.9,782.1,107.8L782.1,107.8z"/>
<path class="st0" d="M1185.8,15.1c1.4-0.7,2.7-0.4,3.9-0.4c20.5,0,40.9-0.1,61.4,0c13.2,0.1,26.1,1.8,38.6,6.4
	c22.6,8.2,38.6,23.3,48.1,45.3c6.8,15.5,9.7,31.9,8,48.7c-3.3,31.8-18.9,55.8-47.2,71.2c-12.1,6.5-25.5,10.5-39.2,11.7
	c-5.8,0.5-11.5,0.7-17.2,0.7c-17.3,0-34.5,0-51.8,0c-1.3,0-2.5,0-3.8-0.1c-0.5,0-0.9-0.4-1-0.9c-0.1-0.5-0.1-0.9-0.1-1.4
	c0-1.1,0-2.2,0-3.4c0-57.6,0-115.2,0-172.7C1185.5,18.4,1185.2,16.7,1185.8,15.1z M1210.5,175.2c1.4,0.1,2.2,0.2,2.9,0.2
	c9,0,17.9,0.1,26.9,0c6.6,0,13.1-0.5,19.6-1.6c9.2-1.6,18.1-4.2,26.2-8.8c20.4-11.4,31.5-28.8,33.3-52.1c0.6-8.3-0.1-16.7-2.1-24.7
	c-5.4-22.8-19.5-38-41.3-46c-8.2-3-16.8-3.9-25.5-3.9c-11.7-0.1-23.3-0.1-35-0.1c-5.6,0-5-0.8-5,5.2c0,42.2,0,84.4,0,126.7V175.2z"
	/>
<path class="st0" d="M468.4,48.4c-10-10.9-23.4-18.3-38-20.9c-27.4-5.3-51.8,0.7-71.8,20.7c-9.6,9.6-15.6,21.4-18.8,34.5
	c-5,20.3-4.3,40.3,4.1,59.7c10.8,25,30,39.5,56.8,44c10,1.7,20.1,1.2,30.1,0.3c7.7-0.5,15.2-2,22.5-4.4c3.8-1.3,7.5-2.9,11-4.8
	c1.1-0.4,1.7-1.5,1.6-2.7c0-0.6,0-1.3,0-1.9c0-17.9,0-35.8,0-53.7c0-1,0-1.9-0.1-2.9c0-0.6-0.5-1.2-1.1-1.2c0,0-0.1,0-0.1,0
	c-1.3,0-2.6,0-3.8-0.1h-33.6c-1.3,0-2.6,0-3.8,0c-0.9,0-1.6-0.5-1.6-1.4c0-4.3,0-8.7,0-13c0-0.7,0.6-1.1,1.3-1.1
	c1-0.1,1.9-0.1,2.9-0.1h53.3c0.8,0,1.6,0,2.4,0c0.7-0.1,1.4,0.5,1.5,1.2c0,0.1,0,0.2,0,0.2c0,1.1,0,2.2,0,3.4V182
	c-0.1,0.8-0.1,1.6,0,2.4c0.2,1.7-0.7,2.6-2.1,3.3c-9.8,5.3-20.4,9.3-31.3,11.7c-12.2,2.7-24.7,3.9-37.1,3.7
	c-13.9-0.2-27.3-2.8-40-8.6c-23-10.5-38.4-28.1-47-51.8c-5.1-13.9-6.5-28.3-5.8-42.9c0.6-14.9,4.6-29.4,11.7-42.5
	c12.9-23.7,32.8-38.5,58.9-44.7c19.4-4.7,39.7-3.8,58.6,2.7c10.6,3.6,20.4,9.4,28.6,17c0.8,0.8,1.6,1.5,2.4,2.3
	c0.5,0.5,0.5,1.2,0,1.7c0,0,0,0,0,0C476.2,40.2,472.5,44.1,468.4,48.4z"/>
<path class="st0" d="M304.4,198.6h-17.2c-0.8,0.1-1.6-0.4-1.9-1.2c-0.6-1.5-1.2-2.9-1.9-4.4c-5.3-12.9-10.5-25.7-15.8-38.6
	c-0.6-1.5-1.3-2.9-2-4.6h-92.6c-1,0-1.9,0-2.9,0c-1.3-0.1-2,0.6-2.4,1.8c-1.7,4.1-3.5,8.2-5.3,12.3c-4.3,10.1-8.7,20.2-13,30.4
	c-0.4,0.9-0.8,1.7-1.2,2.6c-0.3,1.1-1.4,1.8-2.5,1.7c-5.1,0-10.2,0-15.3,0c-0.5-1.5,0.3-2.6,0.8-3.7c9.8-22.4,19.5-44.8,29.3-67.2
	c15.8-36.1,31.6-72.3,47.4-108.4c2.4-5.5,1.1-4.6,7.3-4.7c3.4,0,6.7,0.1,10.1,0c1.5-0.2,2.9,0.7,3.3,2.1c2.5,6,5.1,12.1,7.6,18.1
	c22.2,52.8,44.4,105.7,66.7,158.5C303.5,195,304.6,196.4,304.4,198.6z M217.5,34.8c-13.9,32.8-27.7,65.6-41.6,98.3
	c-0.1,0.2,0.1,0.6,0.2,1.2h82.7c0.4-1.6-0.3-2.5-0.7-3.5C244.8,98.8,231.8,66.8,217.5,34.8z"/>
<path class="st0" d="M80,198.6H64.5c-0.9,0.1-1.6-0.5-1.7-1.4c0-0.1,0-0.3,0-0.4c0-1.4,0-2.9,0-4.3c0-52.1,0-104.3,0-156.4
	c0-6.6,0.9-5.6-5.5-5.7c-17.3,0-34.5,0-51.8,0c-1.1,0-2.2,0-3.4,0c-1.8-0.1-2.1-0.3-2.1-1.9c0-4,0-8,0-12c0-1.6,0.3-1.8,2.1-1.9
	c1.1,0,2.2,0,3.4,0h132c1.3,0,2.6,0,3.8,0c0.9-0.1,1.7,0.6,1.7,1.5c0,0.1,0,0.2,0,0.3c0,4,0,8,0,12c0.1,0.9-0.5,1.7-1.4,1.9
	c-0.1,0-0.2,0-0.3,0c-1.3,0-2.6,0-3.8,0H85.1c-5.9,0-5.2-0.4-5.2,5.1c0,52.5,0,104.9,0,157.4L80,198.6z"/>
<path class="st1" d="M782,107.8c0-13.9,2.5-26,8.3-37.3c9.4-18.4,24.1-30.8,44.3-35.2c27.3-6,51,0.8,69.6,22.5
	c7.2,8.4,11.6,18.3,14.1,29c4.4,18.7,3,36.9-5.2,54.3c-9.2,19.4-24.3,32.1-45.2,36.8c-25.1,5.5-47.6,0-66-18.8
	c-9.9-10.1-15.5-22.5-18.3-36.3C782.7,117.8,782.2,112.8,782,107.8z"/>
</svg>
